<mxfile host="app.diagrams.net" modified="2024-02-28T16:42:27.224Z" agent="Mozilla/5.0 (Windows NT 10.0; Win64; x64) AppleWebKit/537.36 (KHTML, like Gecko) Chrome/121.0.0.0 Safari/537.36" etag="YP1NdGVL6tJUmQrTOcXY" version="23.1.4" type="google">
  <diagram name="PÃ¡gina-1" id="RFsnGwLn_FwcQgA3HD-I">
    <mxGraphModel grid="1" page="1" gridSize="10" guides="1" tooltips="1" connect="1" arrows="1" fold="1" pageScale="1" pageWidth="827" pageHeight="1169" math="0" shadow="0">
      <root>
        <mxCell id="0" />
        <mxCell id="1" parent="0" />
        <mxCell id="8DKzb_6AEsdGShowUm3d-1" value="&lt;u&gt;id_profesor&lt;/u&gt;" style="ellipse;whiteSpace=wrap;html=1;" vertex="1" parent="1">
          <mxGeometry x="80" y="-50" width="120" height="80" as="geometry" />
        </mxCell>
        <mxCell id="8DKzb_6AEsdGShowUm3d-2" value="profesores" style="rounded=0;whiteSpace=wrap;html=1;" vertex="1" parent="1">
          <mxGeometry x="330" y="140" width="120" height="60" as="geometry" />
        </mxCell>
        <mxCell id="8DKzb_6AEsdGShowUm3d-3" value="" style="shape=image;verticalLabelPosition=bottom;labelBackgroundColor=default;verticalAlign=top;aspect=fixed;imageAspect=0;image=data:image/png,iVBORw0KGgoAAAANSUhEUgAAAlMAAAGhCAYAAABF8zFnAAAgAElEQVR4Aeydh3cbyZX1929xttf+PE47yqSYc84EcwJJgCCYc86kSIk5SKKyRKXRaKTJOWfntGt7vc7Z3vWuz+5xeN+5j9MciCIoMCLw8hyebjSqqxvVt+v96lXVq38S/rEEWAIsAZYAS4AlwBJgCWy6BP4pKChK+M8yoAaoAWqAGqAGqAFqYHMaIEwRJgnT1AA1QA1QA9QANbAFDRCmtlB4JPjNETzLjeVGDVAD1AA14EsaIEwRptgaoQaoAWqAGqAGqIEtaIAwtYXC8yWq5m9hK5EaoAaoAWqAGticBghThCm2RqgBaoAaoAaoAWpgCxogTG2h8EjwmyN4lhvLjRqgBqgBasCXNECYIkyxNUINUAPUADVADVADW9AAYWoLhedLVM3fwlYiNUANUAPUADWwOQ0QpghTbI1QA9QANUANUAPUwBY0QJjaQuGR4DdH8Cw3lhs1QA1QA9SAL2mAMEWYYmuEGqAGqAFqgBqgBragAcLUFgrPl6iav4WtRGqAGqAGqAFqYHMaIEwRptgaoQaoAWqAGqAGqIEtaIAwtYXCI8FvjuBZbiw3aoAaoAaoAV/SAGGKMMXWCDXgVAOBgZFy6FCA7N9/hP8sg13XQEBAhFNt+pIh5m/xfrAkTNGQsrKiBpxqIDAwQj772c/LRz7yEf6zDHZdA35+IU61SQDxfgDxpWdImKIhZWVFDTjVAGGKEOlOkCZMEZi8BbgIUzSkTg2pt4iY97lzFS5hijBFmNq594t1l++ULWGKMEWYogacaoAwRZgiTPmOwSe87dyzJEzRkDo1pHzxdu7F85ayJUwRpghTrAe8pb5y530SpghThClqwKkGtgpTeXl58vWvf11aW1vl+9//vjQ0NEhqaqr88Ic/1P9XXnlF7ty5I1/+8pc3PLi5oqJC3nvvPQkPD9/wue4EBF7bdUDlmCmCnDsBaSPXJkzRkDo1pBsREtP6ZqX3IJj63Oc+J1/60pfki1/8onz605+Whx56aOXzJz7xCSktLZVf/vKXYrVapbq6WiIiIuTYsWPym9/8Rvr6+qS4uFgKCgrkn//5n2V1Xl/4whfuyeujH/2oGMewDQkJEQAVrv+pT31Kt9j/5Cc/KR//+Mc1rXE/yBsQ85nPfGYlT6RBWpyD/89/nrMWPQ30CFO+Wa/4or0gTBGmCFPUgFMNrAdTgYGB8s1vflPw96tf/UrB6atf/ap6nH73u99JW1vbCkwNDg7Kn/70J5mYmJDnn39e/vjHP8ri4qK8+OKL8uabbwo8WN/5znfkH//4h/z617+W3Nxc+da3viXf+9735M9//rPU19drGpyHv6997WsyMDAgP/3pTyUpKUlu3Lghf/3rX+Vvf/ubnDlzRr1fuAdA29///nf5xje+IaGhofLUU0/Jj370I/n5z38uvb29CnRIh3yeffZZhTBPA4q9fD+EKcKUt4AXYYqG1Kkh9RYR8z53rsJ1BlPwEk1PT8u///u/S05Ojuzfv189S0VFRVJZWamQ9fTTT0tZWZl6pgyY6u7uFuwDaGJjYxVuAFOXLl1SiAoLC9O84DWC16qurk7+7d/+TR5//HGFnbfeekuQ5itf+Yp2GQKChoeH5b/+67+kvb1d8/7973+vXjCA19DQkJw8eVIATICn3/72tzI7OytPPvmk/OAHP5Dr16/ruQCwhIQEdhd6WCwtwtTOvdusN7e3bAlThCnCFDXgVAPrwdT8/Lx6oRITE+X//b//J2azWT1BgBd4lZ577jmXYWppaUm9WwcPHtS8MjMz1Xu0sLCg0AOP0gsvvCCvvfaaHDhwQD772c+uwNTY2JgCUW1trQLVH/7wB4UwwJTNZpOOjg69r/7+foWq06dPS01Njd5bcHCwjucCsL366qv0TBGmnL4LhI/thQ9fK0/CFA0pKw9qwKkGnMEUup7QbYaB5Pj7xS9+IZ2dndqV9/bbb8uPf/zjDcFUSUmJ/OQnP9FuPoyxgvcKHqbXX39dfvazn6nnCrD2l7/8Ra/3zjvvrMAUuvnu3r2rXXzo0rt8+bKkpaVpV6IjTAHQ4OFCN+L7778vzzzzjHYPossQ93v+/Hn52Mc+Ru+UBwEVPVMEGG+BLsIUDalTQ+otIuZ97lyFux5MAaj27dsnR48elcOHD+sg8iNHjoi/v796j/AdPEg4hoHgfn5+Osgb+4cOHdJB4w8//LB262EgOLoKkRfSY8C4Y16Y7QfQwTGkgXcK3jBcF4PPkR7XxT+uiWO4HvYxsBznYUA8zkEa5IH7Q3ch9nHMGKS+l8coedpvJ0zt3LvNenN7y5YwRZgiTFEDTjXwIJjyNOPL+3E97IA3lBVhansNPgFq58qTMEVD6tSQ8sXbuRfPW8qWMOVbcOINAOV4j4Qp1kHeUlcSpghThClqwKkGCFOEKUe42e19whRhijBFA+XUQHmLOHifrMgIU4Sp3QYox+sRplgHeYsdomeK0EfoowacaoAwRZhyhJvd3idMEaYIUzRQTg2Ut4iD98mKjDBFmNptgHK8HmGKdZC32CF6pgh9hD5qwKkGCFOEKUe42e19whRhijBFA+XUQHmLOHifrMgCAyPlwMFAeXifH/9ZBruugYCACNajtKVeoQF6pihUrxAqwc49YEeYIkS6E6QJU+5571nfbrzcCVOEKcIUNeBUA4QpwhRhauOGlTCy98qMMEVD6tSQskLYexXC6mdOmCJMEaZYD6yuF/j5fk0QpghThClqwKkGCFOEKcLU/YaTMMEyWa0BwhQNqVNDulos/Lz3KpD1YCohMUMGB0clNi5lZWAy9kdGjktISPTKMVeM8aHDgdLU1CE1tY2SnVMkx0bHJTQsRkrMVpmcmpOBgREZGDgmaWk5G8oX1/bzD5W29m6pqKiW/QeObvh84/4zTflSX98iqWnZm87DyItb1yCVY6b2Xp3jrXaGMEWYIkxRA041sB5MJSVnKvTEx6euwEVefom8+ebbEh+ftnLMFXDwPxoqV6/elDNnzktBYamMT0xLWnqOPProHXn66Welt29Yr5WRkbehfHFt5N3V1S92e50cOBiw4fORh9VarUBWU9MkN27cEmtF9abycaUsvDkNoLilpU2KikolOCRKRkfHpKW1TY74BUtEZJy0t3dKpilXpqamZGZmRv9HR0clIDB8zfIkTBGmvAWuCFM0pE4NqbeImPe5cxXuejAFT835C5fVW9TU1K7gA9BYC6YCgyLlwsUr8thjj8vi4nkpLa1QeFpauqGQFB4RtwJTAJerV29If/+IvPXWO/Lkk89Id/eAXqugoFRMWQWydPWG5gWPFbxXN2/e1vPHx2fk4KFAycoqkOvXH9E0o2MTMjU9Jx0dPRIXnyILC4ty+7HH5eTJMxIRGS+9vUNy5uxFuXnzUbl+/ZZC3GqgmZiYUQ+XxVol/QMjcmJ8ek3jv/q8vfb58JEgaWvrkOLiMgkJjZaRkREZGTkmObmFEhkVL52d3RIaFi1R0QnS09MntbX1+gyceQwJUzv3brPe3N6yJUwRpghT1IBTDawHU8UlVnnlldfFYqmSV155TS5cuCwTkzPy5pvv3OOZgjdofGJGnn76Oeno7JXConIJD49T705DQ5u8+uobkpNbvAJTzc0d8s4770lpqU1Banh4TDIy8/Ra6GaDt+rWrcekuaVTUlKz1GjbKmuloaFVQS6/wCx37jyhQNbU3CGFhaV6ztTUnExOzsprr70hnZ198tzzLwngC1D1xhtvqffrzbfe0WOOEJSdXajAhWOHDgep8Uf3pmMa7i93262Gqf7+ATGXWgTblNRMhamjAWFadvBSlZdXrFuOhKntNfgEqJ0rT8IUDalTQ8oXb+dePG8pW1dgqrGpXd59932prmmUtbr5YDyvXLkmp0+fkyN+IR8Y0h557rkX5dKlqwpf+flml2Cqs6tPnn/+RRkYPKb5wAvV3t4jL774sly+ck3eeed9haoXXnhJwQ2QAw8JAAwwdfHikty6dUe7+y5dviqXL1+TU6fOqgcrIDBCIQyAZcARQGp4+LjgN6DbsbTMJidOTKl3zEjD7Yfjn1bD1NDQsHbv1dc3SVdXj3R192hZoswIU6xfvKUedOU+CVOEKcIUNeBUA67AVHGxRSHkpZdekbt3n7zPM7Vvv78CD7r/0M134sS0dqk9/vhTCibwCrkKU9XVDQpl8C7devSOdPcMyrnzl+XRR++qh+mtt97VvM6fv6zeMk3TPbgCU11dfeq9wn28+tob0tbWrefh81ow1dHRK2lp2TowvrdvSHLzSiQiMmEFtghSH4IUymI1TA0Pj0hQcKRExyTK2Nhx6entI0yxvnFa37gCLZ6ahjBFYfuksD31hfO2+1oPpiKjEqW2tknCI+J1hltLS6dU2Gqkrq5ZwcQRNA4fCZa6+haFl3JLlWC8VUtrl6avqq6XiIh4KSurlKLicklOzpSGxjaJjk6Syso6MZnyJSQ0Rq8VF5eq+42NbZoXPEfwGAGK7FX1Osg8LCxWoqITpam5XY/n5ZvFaq2S3Lxi8fMPEYx7am3r0m5GeLYKCst0ph/2cf85OcUrsFRT0yjHj0/qOKs4h4H2jr+N+x8CFcY+oTsvMipB8MxNpjztGgVQJ6dkSHpGthw8tDwJICXVJDExiStlvVY5spuP3itvqTMJU4QpwhQ14FQD68HUWsbPOAZP0/T0vMzMLMjIyAkJC49d12ga53naFnCAcVIALU+7t71wP4QpwhRhigbKqYHyFnHwPlmRbRam9oKh52/80CO1U2VBmGId5C12iJ4pQh+hjxpwqgHC1M4Dw06BiC/kS5giTBGmaKCcGihvEQfvkxUZYYow5U4oI0yxDvIWO0TPFKGP0EcNONUAYYowRZgi0HgL0LjzPglTNKRODak7hclre0YFTpgiTBGmPONdZJ3o2c+BMEWYIkxRA041QJgiTBGmPNuIE7I84/kQpmhInRpSvqSe8ZK68zkQpghThCnWA+6sg7zl2oQpwhRhihpwqgHCFGGKMEWY8hagced9EqZoSJ0aUncKk9f2jAqcMEWYIkx5xrvIOtGznwNhijBFmKIGnGqAMEWYIkx5thEnZHnG8yFM0ZA6NaR8ST3jJXXncyBMEaYIU6wH3FkHecu1CVOEKcIUNeBUAxuFqZCQaF2g2J0GmNf2HQBk0E6CHGGKBsqpgfIWcfA+WZGtB1OJSRnS2Ngmh48ErSwCbLFUSU/P4MpngE1AYIQeCwyKuOf4RqGnuMQiZeWVsm+//7r5BASGS1tbt0RExq+bbqPXZ3rXIS0xKV1CQqMkLj5FsrLzV55ZekaOREUniM1WJbW1DVJTWy8Wq02O+AWv+aygP9ZDrIe8QQP0TBH6WFlRA041sB5MhYXHSX5BqRrB0lKbdHX1y4nx6ftg6ohfiJRb7OJ/NFRKyyqlqaldOjv7JDnFJIePBEtjU7t0dw9Ipb1OjSrS4nNpmU1ycovEZquR+oZWyc83S0pKliQlZ0pVVb2msVir5OChAPE/GiYNDa16Dzk5RVJitirExcWnSkdHr7R39ApgLjIqQXBOV3e/XjcoOHJNI05wch2c1iqrvPxiiYlNlIzMHGlobFaoQrrSsgoJCY3WMs/LK5K0tKx1y7/EbJPs7GIJDY11qlFvMLS8R98HQsIUDSkrKWrAqQbWgylTVoFMTM5KalqWnDt3UVLTsmViYuY+mAoJjZFLl66qp+jy5WtSVm6XsrJKmZs7pXA1Pj4tMbHJamTr6pplZmZBoQegMzh4TBYWFiUqOlGamjrUE9bY1CaLi+c1zczMSQHIjY1NSHt7j0RGJujxU6fO6n2dPXdJMjPzxVxqk7m5kwpSjzxyW9MMDY0p2K0FAzy2PTBlMuVJVlaeWKyV4ucfsmGYioxMlLy8MqmubpaiIqskJmZKcHC0U70SWnwfWjz1GROmaEhZMVEDTjXgCkwBgPoHRrQrx26vXxemADnofoOHaX7+tAC0hoZHZWb2pGRlFcrU1LzYq+pXvBW9vUPqsQLc1Ne3Kkw1NLaqtwnHWlo79dpXr96Q2LgUPQ/dirgOugQBcfBIwTsGiMK9Tk8vaDp4yNrae1auRYDaGkA5lp/hmcrKypeExDT9Lyw0S1m5bUOeqYzMAsnNK1WQqq1rk7b2fmlp7RWzuVKP4zv+77EyyDVLRka+REcnS0hIjNO6a7ehizBFQ+oxYtxt8fN6D27FugJT6H6bmJgVP/9Q6e8f3hBMGQY4PiFNLly4omDU2ta9AjiAqQpbjX42YAoQBG8Vzp2ampP6+hb1cmXnFOoxA6bgObtx45aER8RLYlKmXL58VWyVtYSpfdsHTcbzW71dDVP7DxwVs9kijY3NG4Kp5JRsycwskLy8Umlo6FCYqqpu1s84zv89WAamQsnPLxNbZYNAC/BWekJdTpgiTHmEED3hZeA93A9X68FUQmK6NLd0ysFDgXJsdFyBZnJqVior61ZgCEYWcDM4NCrBIVE6zgnbmJhk6ejslUxTnkxNz8v0zIJ6ksIj4uTYsXHt6rNW1IjdXie5ecWaX3GJVczmCoFnamnpuqYZHh7T/FNSs2R6Zl7zKioq1+vAA1ZYWKbABfjKzi6UtPQcMWDNXFoh5Zaqe+51NRTw8+bAKyXVJGHh0ZKYmC6RUcsTAQDbVmulYIIAyjUlJVNiY5PXLX8YSrPZrkYzK6tIIqMSWV/RZq1oAN3AFbY6SUnJXjnmrnqcMEVhul2E7hI/r3s/PK0uk/VgyhlohIah625MYQfjn6prmtY1mM7ycXYcMIXxUc6+5/HNAZAnlltefqmkpuZ4VHfO6neEnx9cj+xkGUVFJ0ttbavbJykQpghThClqwKkGNgNTO22U4c3CjL2dvg7zdz+UMc6Ue0FlJyFoO/MuLLRIenqe03psO6/lLC/CFA2pWwXoTJg87hmVqCfCFCHH/ZCzW8+AMOUZ9YCn18fJyVlSXFzhVltGmCJMuVWAnv6S7vX7I0ztHXDZLUDayHUIU4QpV+rg+Ph0KS+vdqstI0wRptwqQFdeFKZxX4VKmCJMbQR+tjstYcp977431buEKYIMQYYa8GgNEKYIU9sNSBvJjzBFmHIF6ghTNKQebUhdETHT+HZlR5giTG0EfrY7LWHKt+uX7bIfhCnCFGGKGvBoDRCmCFPbDUgbyY8wRZhyBbgIUzSkHm1IXREx0/h2ZUeYIkxtBH62Oy1hyrfrl+2yH4QpwhRhihrwaA0QpghT2w1IG8mPMEWYcgW4CFM0pB5tSF0RMdP4dmVHmCJMbQR+tjstYcq365ftsh+EKcIUYYoa8GgNEKYIU9sNSBvJjzBFmHIFuAhTNKQebUhdETHT+HZlR5giTG0EfrY7LWHKt+uX7bIfhCnCFGGKGvBoDWwFpoJDouXs2YsSE5ssZnOFHPELluPHJ+Xc+UvS1t4jycmZG1pfb99+f8G6fPEJaRs6zzDwySkmWVq6LuPj01Jitoqff+gD8wkIjJDz5y/rvRv5eNr2wMEASU01icmUJxkZOeJ/NEx/V2BQhB7D8aTkDEH5HTocJCkfpE1MSpfDR4IlMipekEdcfIoEBIavlElwSKTEJ6TqefjN4RFxEhQcqd/vP3BUoqITVtLi+5DQaMEi18EhUZJpytX/sPDYe9LExiXrPeFaBw8FCD4fPBR4TxrH8iVMEaZcAS7CFA2pRxtSV0TMNL5d2T0IpmBAExLTJTomSY74hUhcfKp+BkiFhMYoiACmSkqskpaeI1euXJe8fLNkZOZKYmKGGtGoqEQ9JyIyXoKCo3Q/IWHZ0MOwhobF6jHkk56Rq9cAGMTGLV8LBn7/AX819rFxKZoWEORolGGwW1q7ZGp6XtPhfpAGgAA4wz/gCulwHfwmgADu5+LFJfHzD7knP8e83b3vfzRUqqtrJSY2SQBINbX1CkXJKZliNpdLVHSi/pZDhwOlosKukINjAJ+jAWFisdp0W11TJ0XFZVqW+E02W5U0t7RpmeDcuvpGKS4p13IAGFdWVsu+/cueOzyPsvIKLc/snALJyS1U2EL+RvmgDNPSsvQ+K+3VCl+Av7T0rJU0RlpjS5jy7fplu+wHYYowRZiiBjxaA+vBFAzy6cVz0tM7KBW2GjWkdXXNMjw8JpNTcxIVnaQwlZGRK5cuXZXq6ga5e/cp9Ur19g1JTW2jwtGFC5elvb1Hiost+rmpqV3m509resDZhQtXpKOjV2yVtdLXNyx2e52mXVhY1GvPzZ1UwFpauiEjx07I8RNTMjY2qV4YwyjDSzM9syCXL1+TTFO+brOzC+XWrTsyOHhM77e3d0gBC/k3t3TKmTPnFaq8AaYsFpvAW4Tfm66Aki2AKcCKUQYJialSVFy68hnHATgGTNkqq8VWWaXHDh8Jkrq6RgUzAGZ8QorkFxSLtcKuXqzVMAVvFEAN3qbColI9F3CF48b1jS3At9xiU70AtqqqajVP43vHLWGKMOUKcBGmaEg92pC6ImKm8e3Kbj2Yqq1tkpGR4yvGEp6dsrJKaWntVFhJTcu+B6bgeTp16qxg290zIA2NrTI+MS12e/1KHvBw2Wy1Mjo6LsdGx6W1tVuBCZ4PwAJgqrGxXebmTonJlK9ek6mpWamrb9G84ZlCdx5gzOjuMoxzucUuACZ8BlQBpgB5MO7ZOUUyO3tKvWtFxeVir6qXGzce1ePeBlOAqPyCEu3Oa2/vVFgxZeVJeka25OYVrZQ1ysERpipsy16r1LQsycrOF5xjr6oVeKWwLS4pk9q6Bu1SXA1TuGZBQYnmjWd14OBRBSkAGfaNZ4BtYlKaQh2eJ7odkSfgzTGNsU+Y8u36ZbvsB2GKMEWYogY8WgPrwVRlZa3094+sjKkBILW1d0tFRbVcvnxVu/Uw3sjwTN0HUw2tMjxyXKwV1WpI4aU4deqMerkAPaOjE9LQ0Catbd3anWTAVENDq8zOnlTvFIw69quqGrYFphoa22RsbEJy80rk+vVbkpNb7BXdfIZnCmUEjxC6+1Z7piIi4wTp4D0yYGU1TIWGRSt8wXMErxIgCmOn0KWH8U0Y6wQPFDx9jt18GJNVWGheyRf5o/vRACX/D8anJSSmSV5e0Qo8EaYIS9sBVIQpGlKPNqTbIXLm4d2V5XowhTE3p0+fk4nJWWlsapP+gRE5f+GyzM2fkqtXbzwQptDNh7FK8PyMjk1o992lS0uC7jt07R07dkKiYxLl4sUrOmgcHimjmy8rq0AWF89r193p02d1zBa8Xlv1TFVVN8i1azdlZvak3LjhPTDV2tqukFNhq5L8/GL14mGgOY5brXbJzy9RD1FubqFUVdXoMXifHMdMwTOFgegAKYyNwmB0dMGhey85ZXl8GyAJ+QGKGhqatduvvNwm6enZUl5eoaCWkZkjFmul2O01Oj4rPj5VzGaLjtHq7etXQEMeMTFJClwYm4XrGoDnuKVnyrvrj92q/wlThCnCFDXg0RpYD6Zg9DCeBgPP4WGAQcQ+ZojhM7p70EW0vF3uxkF6nIe08KJgH+lxHr5D+uU8lvPD98jL8RprnWfcC66Ff3hcsnMK1cuF8VyYvYfzDKP94f0t3xfOwfXR5Qdv1/L17r13XMNT/+Ftwv07ep2M34Tjxu9eLqfltMYxozw/3C6XIdLiGP6NgebGMeSN85evuVxuACh006Jbz/FeMFswJDRKn4uR3thioHpqmslpuRKmCFOuABlhiobUow2pKyJmGt+u7B4EU54KFwCAxKQM7aZDV11GZp5Tg+2pv8Hb7gterqMBH4ZWeND9A1zRrWhA3VrpCVO+Xb9sl/0gTBGmCFPUgEdrwFthai3DzGOe61lz9mwIU4QpV4CLMEVD6tGG1BURM41vV3aEKe8DEGdg4o3HCVO+Xb9sl/0gTBGmCFPUgEdrgDBFmHInhBGmCFOuABdhiobUow2pKyJmGt+u7AhThCnClG+/475QhxOmCFOEKWrAozVAmCJMEaYIU54OXIQpGlKPNqSe/gLx/na+kidMEaYIUzv/nrEu21oZE6YIU4QpasCjNUCYIkwRprZm6AlKO19+hCkaUo82pKwEdr4S8PQyJkwRpghTrAc8vZ4iTBGmCFPUgEdrgDBFmCJMEaYIUw/WwD95eiHx/h78EFlGLKOd0gBhijBFmGL9slP1y3blS88UvRIe7ZXYLqEzH++tjAlThCnClPe+v3ul7iVMEaYIU9SAR2tgPZjCYrc1tU0yO3tSklOcL1YLY5yekSNWa/W2rY+HtfeqaxolJTVL/PxDdX23sPA4GRubkL6+YQkLj9WFdTcCAlgjzv9o2IbP28g1fCktygsLQhuLUDv+Nix2bKy5h0WNjXTY4vPyuR8uKO14ruM+g3YS5FwBQsIUDalHG1JXRMw0vl3ZrQdT4RHxcvbsRYmKTnwgJJWW2aS/f+SB6RwN6Xr7MMbHT0wK8rXb6yQuLlXBbnjkuISExuh+UHDkhq4XGZWg5wHO1rs2v1v21uXmFUlNbYOUlVdITU29xMWnrJRbaalVrNZK/ZyYlC7WikoZGBgUi7VSUlJNkpdfrOeUlVVIRmaOYNHjtcqVMOXb9ct22Q/CFGGKMEUNeLQGnMEUvFK9vUPywgsvy/ETU+qZWjh5RhYWFqWtvUeOBoRLR2effh4ZOSHNzR3y2GOPy9z8ablwcUkAYolJGTI5OSuLi+elobH1PmOal2+WU6fOyszMgpjNFdLW3q378wunJSoqUWGqrLxSBgdHpbKyVpaWrsudO09IdU2DHD8+KRGR8eqlmp8/rR6r+IQ0GR4e0zzgwQoMipD6+hY5ffqsjB2flILCUj0vJjZZJiZmZGb2pExNzSmc1dY1yeKZ88vXnz8toWGx993vWjDgy8cAUygr/EY//xCx22vUS3jEL1hBymK1iQG0OFZX1yiHDgdq+uVzkx5YhoQpwpQrwEWYoiH1aEPqioiZxrcrO2cwBQMKIALsoEsNUNTc0qHgcWKIjwcAACAASURBVPXqTamsrJOlpRty+EiwGkx4kCYn5/RzT++g2O31gq46dKtl5xTJ/MLifYb13LlLCjgGkCCvowFhMj09L/n5ZoWpcotdpqbmJSurQGpqG6W7Z0AhCvdltVbJxYtXFOyQBwAQRh95XL58TfILSuXmzdv6Gd/Ds4LzGhvbZHR0XNO3tHRK/8CIdHf3S2/voN7j3NwpyTTl33e/xn3ula0jTOE3V1ZWS3BItKRnZEumKVf/MzKztZxWwxQ8U01NLQpgySmZTsuSMOXb9ct22Q/CFGGKMEUNeLQGXIOpOAH4nDlzQY4dG1dvUF1dkwA6DLBw7OZrb++R2tpmaWpuF3iNAFIXLy2tpMU5GFtz4cIViYtP1eMYk3Xy5BnN/9FH70hhYdkDYaqpqV1OjE/pGB3kWWK2qhcK93j37pNiq6zV+wZk4XsDptAdOTg0qjAFIMPvAKTVN7RoOnirCFN+4ghTGCNV39CkYF1VXScWi00qKuxSXV2n0LwapuiZIiRtF0ghH8IUDalHG9LtFDvz8s7K0xWYCg2LkZqaRhkePi45ucWSlp4t0THJOp5q+XOOWCuqV8ZMAaYaGlq1G62ltUt6egbl/IUr98AU4GZg4Jh0dvVLTk6R1NW3aH7FJRa5du0RKSgofSBMYdD72bMXxFxqk4zMPM3rxIkpvZfbt+9KpilPPVHoKszMzJPUtCz9DI8VPFTwfsHjVlZWKR2dvYSpfffObAQQ5eYVK4QWFpWqJyoyKl6Kikv1WQJSS8zlEh2TKGvBFM6PjUuWsPAY2bf/3rzx/PFPz5R31hu7Xd8TpghThClqwKM1sB5ModsNkHLocJDOzsIYpwpbjRQWlesxjFHC56LicomNTZGExHQ1kBgsHhmZIMb3JSVWhRnkY8z6Qt4Y0wSPVkVFjSQlZUhxiVX3AVchodE6kDk8Ik5S07IlKChSB8IjT8f7Skkx6TnwSmFgOroFLdYqMZnytcsvOiZJ79FcWiEREfH6ezDbDLME9bcUlsnBQwHqIUNaGHhcLzBoY4PbDTjwpW1wSJSCc7rC8/IkBDwzY5wUfiueC46hSzc6OnFlpmRIKM7NEpwbE5u0cnx1+RCmCFOugBlhiobUow2pKyJmGt+u7NaDqdWGbyufMTAZ3qexsUkdDN7Z2adAtpU8ee7a3h5vKhfClG/XL9tlPwhThCnCFDXg0RrYLZjyJgPPe909SCNMEaZcAS7CFA2pRxtSV0TMNL5d2RGmdg8cCGn3lzVhyrfrl+2yH4QpwhRhihrwaA0Qpu438ISe3SsTwhRhyhXgIkzRkHq0IXVFxEzj25UdYWr3wIGQdn9ZE6Z8u37ZLvtBmCJMEaaoAY/WAGHqfgNP6Nm9MiFMEaZcAS7CFA2pRxtSV0TMNL5d2RGmdg8cCGn3lzVhyrfrl+2yH4QpwhRhihrwaA0ApmDQjh4N5z/LYNc1AP1tl8FlPr4LZoQpGlJWFNQANUANUAPUADWwBQ0QprZQeGxl+G4rg8+Wz5YaoAaoAWrAVQ0QpghTbI1QA9QANUANUAPUwBY0QJjaQuG5SqxMx9YNNUANUAPUADXguxogTBGm2BqhBqgBaoAaoAaogS1ogDC1hcJjK8N3Wxl8tny21AA1QA1QA65qgDBFmGJrhBqgBqgBaoAaoAa2oAHC1BYKz1ViZTq2bqgBaoAaoAaoAd/VAGGKMMXWCDVADVAD1AA1QA1sQQOEqS0UHlsZvtvK4LPls6UGqAFqgBpwVQOEKcIUWyPUADVADVAD1AA1sAUNEKa2UHiuEivTsXVDDVAD1AA1QA34rgYIU4QptkaoAWqAGqAGqAFqYAsaIExtofDYyvDdVgafLZ8tNUANUAPUgKsaIEwRptgaoQaoAWqAGqAGqIEtaIAwtYXCc5VYmY6tG2qAGqAGqAFqwHc1QJgiTLE1Qg1QA9QANUANUANb0ABhaguFx1aG77Yy+Gz5bKkBaoAaoAZc1QBhijDF1gg1QA1QA9QANUANbEEDhKktFJ6rxMp0bN1QA9QANUANUAO+qwHCFGGKrRFqgBqgBqgBaoAa2IIGCFNbKDy2Mny3lcFny2dLDVAD1AA14KoGCFOEKbZGqAFqgBqgBqgBamALGiBMbaHwXCVWpmPrhhqgBqgBaoAa8F0NEKYIU2yNUAPUADVADVAD1MAWNECY2kLhsZXhu60MPls+W2qAGqAGqAFXNUCYIkyxNUINUAPUADVADVADW9AAYWoLhecqsTIdWzfUADVADVAD1IDvaoAwRZhia4QaoAaoAWqAGqAGtqABwtQWCo+tDN9tZfDZ8tlSA9QANUANuKoBwhRhiq0RaoAaoAaoAWqAGtiCBghTWyg8V4mV6di6oQaoAWqAGqAGfFcDhCnCFFsj1AA1QA1QA9QANbAFDRCmtlB4bGX4biuDz5bPlhrwPA0EBITLww8flq98ZT//WQY7qoF/+ZeD4u8f6jJgEqYIUy6LhcbF84wLnwmfyV7SAIzbpz71GfnIRz7Cf5bBjmrg4x//uBw6FOCyfSRMEaZcFsteqrT5Wwkp1IDnaYAwRYjcLZAmTBGOCEfUADVADfikBghThCnClPNGzj+xBei8cFg2LBtqgBqgBpY1QJgiTBGmnNeHhCm2on2yFU0D6PylZ9mwbDajAcIUYYow5bzuIEwRpghT1AA1QA08UAPrwVR7e7v88pe/lLCwsC0PTB4ZGZHf/va3Eh0d/cC8goKC5Ac/+IFcuHDhgWl3CwR4na1DJ8dMsUJ6YIW0mRYhz3HeGmDZsGyogd3RwHowFRISIpWVlfIv//Ivgv3AwECJjIzU7Uc/+lE5dOiQREVFSUREhHzpS1+SL3zhC7qPNAcOHNB0R48e1WMpKSlit9v1eHBwsAQEBOi5SAdQcTwX1ykvL5fk5GT51Kc+JUiP6/j7++tnPz8/PYbrhoeHy6c//Wn5xCc+ofeIdLgv5Il0+Iz7+eIXv0gwc/NsRcIUYYowRQ1QA9SAT2pgPZgyPFP5+fny05/+VH7/+9/LP/7xD/nVr34lBQUF8v7778s3vvEN9V5ZLBa5e/eu/O1vf5P//d//ldbW1pXv/vu//1uef/559UxVV1fLj3/8Y90XEXn33XcVrJ588kk9969//atMT0+veKaQzx/+8AcklZ/85CdSUVGhef3xj38UpP2///s/hbTGxkb53e9+J2+88YZeNzc3V773ve/Jt7/9bT2O30Dv0ta9S1spQ8IUK1GfrETZ8t+dlj/LmeXsyRpwFaZ+/vOfy8zMjFitVvnP//xPaWpqUhAC4NTU1IjNZtPjgCUYTXiuvv71r8s777yjn41uPnyPcxYWFsRsNiuInT59Wv785z8rFOFceKLQzXfx4kX52te+JgAtHMd5jz/+uMLUe++9p54rgNn58+f1Xr7//e/L+Pi4/OIXv5ATJ04oSP3oRz/SfOHh2goI8NytgxhhijBFmNoDGnj44UPy6U//M/9ZBm7XwOc+99CGIkVvBdY2AlOjo6OSl5ennqLi4mLJysqSiYkJgZdoaWlJt8PDwxIaGioPPfSQwhRACCCyGqauXbsmnZ2dClPHjx9XEBscHNTxWfHx8Ssw9eabb8qrr76qxzF+6+bNmwpTr7zyinbfAaAAY6+99ppgH92D6E4EkOFeJycn5X/+538U9ghEWweirZShz8PU4cNB8tBDX+Y/y8DjNbBv3+EdA9svf3kfW65uHlOxlYral8795Cc/JX5+ITumdUf42ixMAY7gFUI3GroA0Y129epV7apD1xs8UPBMrQVTSI+uP/y9/PLLOo7qmWee0XPRTQjvkjEAHZ6wX//615oWsITroMvQEaZwL4A7wBbuBx4sgBo8VN/85jf1fFcGvvuShjzxt/g8TO3ff4RGhEbEKzTw0ENf2jEDQ5hyb6vVEyt/d92Tp8DUxz72MR3wbWxhDB330XWGwd+f/OQntf4wvsNx7OM4BoajHHEujmNmIGDn5MmTKwPHHb9HGqQ1zkV3IfaN6+Az8sQx4zukRx5GOiMPbHEetu56lrzuh/UKnpNPLydDmPrwYVP4nl0WhCnPfj58f7bn+XgKTO3E88TsPniV+vr6CDh7rBFPmNpjD3wnKhDmuT1GhjC1PeVIPXp2OfoyTFF7nq29nXw+hCnCFFtQHqIBX4WpkpISl4IZ7mRFx7w9x8gRpjznWfC92L5nQZjahCHdv3+/wJ37la98Rfu1KcjtE+ReLktvgSkECsR07SNHXBuPiFg7GES7l58tf/uHdQRh6sOyoC58pywIUxuEKUSf/e53vyt///vfdVqqMQCRL4XvvBTuepbugKnPfe5zMjAwIF1dXTI7O6vBCAE+CCyIGUIPP/ywDA0NydzcnAIRoi5j2jcCCCJODiI9I8AhzsUUcERiTk9Pl+7ubk2PGD3Hjh2TwsJCzQ/pkBeCFWKALaZ34zOOM/Dg3niHCFN74zm7qx5113X3LExhFkRGRoZkZmZKaWmpGgA8BBxLS0vTgGsHDx7UpQIQ2wPGAEsKYEoq4o6cPXtWvVNYRgDfIx/kiWUJ8Bl5YmYHlirAtFYcQ2yQz3zmM2pAcA0jz5ycHP0+NTVVZ4nExMSs5AEPmLvEwevubqXnDpgCLGH20Q9/+EP51re+pdGd3377bZ0Wjtg28D4hQCBi5PzsZz+TU6dOyZkzZwTBAhMTE8VkMunUccTCQXRmTBXH1G9MH3/rrbekublZp27je6xJdu7cOYUnBEasq6vTqd2YYo7jeIeoud3VnDvKmzDl+8/YHbpy9zX3LExhzSREmcXSAcY/wAjHsGDlv/7rv0pvb69u8T1C/l+5ckUj42IfAd5gDBCLBC11xPwYGxtTg4JYIDBIWBrgqaee0nORJ4yGYXyQHtFvp6amBNF3b9y4ocYK10TsEHSN4B/Q5W6R8Pq7U/m5C6YQFweeIaxThoYCGhSXL19WuEKAQegbwQQRD+fWrVs67RtxctBYQABBgBFi4wCmXnjhBe0C/M1vfqMNEXifcB4ALDs7WxBv54knnpC//OUvUlVVpaD2H//xH3qcsXJ2R2fufp93G6Y+85nPysc+hrAH/GcZ7JwGoOs9GRrBgKnHHntMw/bDoKAVjfWY0KJGhYPotwApRLyFJwotcwRZwzEsFYBzAUlY/RtwBEMBKAJszc/PCwbeYh/dJoAiGCrAE/JBSxxjrl566SX9DOMFA4TAcDBI2AewwbPl7sqP198dI+dOmIIu4T3F+mRoVBgwBY8SdAvIhwcL+oaXCrrHuCmsbwZYwvIZ8MZC8/ge7wO6BA2YeuSRR+TFF1/UBgU8VwhqiCU7WlpadLkOABmAi1rbHa25s5x3E6YCAiJk/4Gj8vA+P/6zDHZUA/v2+8vRo2EuxwqMj0+X8vJql9M7BqPdrv1/2khGzuJMGTCFtZUwpgPGAS1lwBSgCJUNFpeEcYEhQewQjJVC6xowBaOB1jzACOs2AbISEhJ0/AjOg4G5fv26GhWstwQDgrw6Ojr0HHix0C2IZQrQygecwZOF1nlRUZGOOfnTn/7EeCUbHNPmTiOx1Wu7A6awLAbGPsErhW47aBbd0YAcAFJcXJweA+RjbBP0C48UoOr27dsSGxurukXDAp8xFgpaBoyhsYAygcbr6+sVtu7cuaMQBhBDOnQbwtsF71dgYCBhag/onTBFsPNFuN3zMIWBtOhmAyyh8n/66ae18ocR+PznP69GAa1shPrHyuHJycnaugZU7du3TxemRHccVvBGi/z111/XLj506WEsFFrfGI+CPGCcYDAAbBjwi2tgTArOAdThGhiThX10EyJfdLNs1UjzfO9o7bsDpqgN79CGLz0nwhRhijAVJT7nmUKLGoPCfamy4m/xTgNJmPLO58b3bWPPjTBFmCJM+RBMYQo3ui36+/t1zSNWiBurEFle219ehKntL1Pq1PPKlDBFmCJMRUlCQoaUltq9f8wUK1nPq2T3+jMhTFGTe+Ed8BSYyi8oldm5UxIeHrcyMLmgsEzm5k7JwUOBK8f8j4bJ0PCYNDW1b3kwO8bVjI9Pa16uAEV+gXn5HiM+vEdXzjPS4HoJienS0tollfY6CQqOXPldRpq9vj18JEgOHQ4SlJWff6juo0wwceHIkWA5cDBAj/sfDRX8H/EL0bSry22jY6ZMpkLJzTUTpvZCpcffuLvGnTC1u+VNfbunvD0FplJSs6StrVuCgj4EjPqGVnn11dfVYBrG8ohfsFTXNEqJ2Sr7D/hvCUZgcBub2jQvI//1tiv3uEkISk7JVDjMzS2WyclZmZqaUzBY75p77bv6hiapqamXiMg4ncHf3tGpIJWQkCqdnV1iysrTWfjoycL/4ODQmlC6EZgKDo6WqqomiYlJIUyxInZPRezL5U6YoqZ8Wd/Gb/MUmKqw1cpjjz0uySkmmZyalVdffUOeffaF+2AqMChCzp67KCMjx6WpuV3u3n1SnnnmeXnppVeltbVT4D16/PGn5O7dp2Rx8bykZ+TIlaXr8tprb8iNG49KfX2Lfnfn7pNy8eKSXLt2U/Oqrm6QR2/flaeeekbzQj6JSZly/fojei83btySjs5evcfExAzp7h6QV155XV586RVpbumU9PRc/Q6/Afc+v7Ao8LI4wlCFrUYKi8okMipBTpyYVg9balr2PWkc0+/FfUeYQhij4eERyc0tlMTENIWpw0eCJTQsWjo6O6WszKreKYDT6rJyBlMYaF5YaLkHmnJyzVJcXHHPsY1EKdiutNsSGsF4sbmlAfMUDRCmqEVP0eJO3oenwFRdXYvCSVVVvbz55tsyODQqU9Pz98FUcEiUPHLrtszMLEh3z4C888770tHRq4AE4MGxt956R0ElK7tQxsYmFY5Ky2ySacqXsjKbfOMb35KpqXkxZRXI008/p3k1N3foefCOAarOnLkgs7Mn9dzycrtkZuZJbV2z3qP9g3scGhqTiclZee21N6Wysk5ef/0tGZ+YkYWFRXn55VclKjpxxciHhsWqJyo2NlmPHQ0Il+6eQe32Ww0Ce/mzI0x1dXWLudQqAwODkpWdrzCFbj54J1vb2qWoyLxSvqvLDDAVGBghoaGx9/wnJ2dJWXm1hIXFSXR0sphLK3WsFD5vFxRtNh/C1B6IRbOTlbmn5r2TMLVv3xH57Gc/z3+Wgds18PmHviT+/qG7YkjWC9ppwFRbW5e8995XJSe3SNbq5lsNU6+88ppExyTJ/PyiXLv2iCxDyoB6qy5eWlLvE7xXhrEtKbHKu+++L9k5Rdp95AhTyCsxKUMWTi7K1as31KMFT5Ph+TBgqvWDe8zNKxZrRbXm19TUoaBlsVRpN+QLL7y0AlN+/iFy6vQ5gRcqMipRGpvaZWDgmHR09q3cl3F/e33rCFN9fQMSGRUvTc2t0t+PNUu7dcyUKzCFcXZ5+WViq2y457+uvl06u4ak0r58PC09b1e07wpgbQimDhzwl09+8tP8Zxl4vAa+9KWHd+wlg6t6r1ea/P2eMYsMA3sBOa5U9ltN4wpM5eWbtevuzTffUa/Q6jFT68EUPFOtbd3avXfz5i25dPmqNDS0yhtvvC0vv/yaXLx4RWpqmpzC1Ne//k31hL3//tekr29I6uqa5a233pWXX3lNLly8LO0dPQpMgChcCx403Ofly9ekoKDUKUyFhETrQPekpEw5c/bCSlef48B6vg/L78NqmAoNi5GY2CRdHq63t89lmAIABwdHSXh4/D3/qak5YrHUqLcqKDh6V3Tv6nuzIZjC6HyKxjMqUT6H9Z8DZpS4+hJsNB1hav2ypzZ3r3w8BabgsSkqLhfM1ktKzpRyi10wULuoqFwHaWNpkKMBYRIYFCmAGQwGj4tP1XPgqYDXJzunUOIT0gTdcviHxwrvcW5eicBjhG1UVKKYSys0H+gMY6OQF7r50F0Hb1hZWeUHM8ng3TB/cG6xxMal6PVgxyIjE/Qa6D5EF15AYIR+FxYeKxGRCVJYWCbGex4QEC6nTp2V6Zl5sdvraQPXWUonKjpBIiPjdbxZfHyqHDq8PJMzLj5F4uNTtOww8QCAFRIS5bQsnY2ZQggETxgftZbNIEytIwwahd0zCttd1oQp7312260FX87PU2BqvTIGsIyMnJBjx8alpaVToWq99Jv5DjCFbr6o6CSnBnoz+fIc99QjzmBqLYjxlGOEKcKUT1Y+hCn3VII0Prtb7t4AU7uhCXjE4FFCeezG9XiNndU5YYpgwhfZQzTgLphC1wBmrBiV7b79furyPnBwdyt5nTVzJHhl8K1xP862MEJwye/2fTq7Hx53zVgRplwrJ+rJu8qJMOUhhpQvjne9ODvxvNwBUxhc+8ILL0tf3/AKTGF6NeLmYCzHVn9nTGyKFJdY7oE1Z3k2NrbJ22+/KzEfTOV2lg7HMYOqvaNXp6P39A5KRGT8lu91vevxOz9JTTPpbDGUfX5BsUTHLE/DDwmNlsSkdH0G+fnF+h2+T0vPWvO5E6ZY1/ni+7RnYQoVwsLCaRkYPHbPC79w8oz09g5uS8WMwYeYBvvII49JQkLatuTpKEJMqcVsj4GBEcnKKnC5Re+YB/e3VrH5+YVIeEScuupDQ6M1ON7BQ8teHhgZLD2AAaIYvGj8IwjgWuXuDpjCNS3WKklJydJ7zcjME4wXeeqpZ++DqdDQGElNy5L09BxBuri4VNVdcnKmvkMoB5MpX2PpYBwIfjuWzrh587YeQ7mkpWfrPs7FzCIM/EVAwoyMXElLzxG7vU4CAsP1fYGmEacHA4BXlxfGmxQWletg3ZnZBRkePs7ukh1sGMJQdHR2aQweDIqemZnRz1heI9OUKw0NTZKeni3d3T0yMTEpQ0PDUmmvXhkQ7fj8nMFUeHiCREQkbOskjPVm8zneE/e3Vg+y/PzU/mLSgqeMh3LlPrZlzBS6B4qLLZKVXaCVMCp2/AN8EHbfURyoSJa/D9AtPn94DOctG0+kMbod0GUxNjYhL774stTUNulMDeMaOBf5G+mxxWecg/ONz6h0jHNWd2XAcB0/MaXG5sT4tJw5c56t8x00Jo56cNxPT8+Svr5+BYCmphZdjgAteDy3xqYWSUvDkhUdMj09LbOzs7o1l1ru0ZeRnzOYwtIDrrwY66UxZvkY1zK2jp6pxsZ2wVTt997/mk7lXu2ZAsAgXs67735VgxAiAvQ3vvFtjfQMuLJV1iqE3bnzpNx69I5Gln700bs67Rwzm2y2Gnn99Tfl3PlL8txzL+qsKUSFRuBBTCPHewfPFGZHYdmLmzcf1e+gc+N+scX7g2jUgFTMyELcndHRCQkKdj7TxvF87m/ccKLMHWEKQQ0Rh8dstqzAFOorzH7r6enVJTiclbMzmMrKKpbsnOIta93xPSBMbfxZO3tuPL5+WeId2ZMwhQUfUVnPzp0Us7lCY3fAkLzzznv3wVRpqU3jeSBk/7e+9R3p6x/Wqa6I+fHGG28JDAbWbnr77ffku9/9vjzyyG3NE4Hb8D0i66IbBfFLYEQmp+Y0RgiMET7DoGDq7e3bd+U73/mevPPu+2Kx2qWjo0eND+KKAJgcxQwQhBFBy7C/f1iXF8DUXMc03F9f/NtRPo4wBXjq6e3T6LmAFAOmcJ2ExDQ5dmxUAgLCnD6jtWAKIIWgb44GYjP7D4IpAMvS0nWNlwOYWaubDzAFzWP5DaRdWrqhU7wReRnrjcXGpgi66hDpGXF2MHX8woUrcu7cJQX9K1euKWzhfcCU8GOj43qds2cvaIPGsZsP08ObWzrl1q3H9H0ynhUaHLgPLDprNGKw/tj8/Gl6pnawMbEaprq6eyQ7p0A1XV5eoZ4pV2EKDQ0ssZGSkn3Pf1lZtUaKxvHExEyJjEzcsu4JUztfBxrv5l7fEqbmTsqpU2fkySef0TD7WF9ptWcKMIV1luBhmp8/pfCD4GqAL0AS1j16/PGndTkAU1a+GpyenkHNB4CE7guMS0EXIo6j9Q0AAmgh8i3ijnR29Sk4oYV/+vQ5eeTWY5o3wKqqukGCQ6JXjHBcXIrMzZ3WFjwEjFkhiJDLNZd2v+JYDVPwOnV0dInFUinNLW3qmcIzcgWm8Byx3IDjf2xsqjS39Gj3x1Y8VA+CKUwBP3v2ojYwbLZaXaNsLc8UPEsY03T+/GWFJMTLAUy1tnbpOmQALDQ2AFP4DnlifbL8fLOub/bEE09pNyJWsE/PyFWv1YkTU+ptMmAKjYTnn39RBgZHdR0zNE6MihrdjMgfS2RgzbPjxye1oYHuQiMNt9v/HqyGKXil0CC122vk+PHjAq+sqzB16HCwZGUXS1FxxT3/tbVtUlvXpsfMpXZdCLaiok6SkkyyWe0TprZfC3y/1i5TwtTcSTUMgB5UBmt18xmeqbz8Ehk5dkKeeOJpjXKLLg+Mi4K4nn32RYUnjIeBwRkaHluBKQASFqg8e+6S1NZihepGbaljbAqWEIAXAC1rdHUgENv4+Iwe6x8YkVdefV0DwTkKGGNECgrLdBkCLBGAe8JyAc4MpuO53F/7RdhsuTjCVHNzqxQVl2mgt+GRY7pgJrr5kLcrMIUVxCts9ff8V9e0yOjYtFRVN0t1TbOkpeVuqrXuTBswiFjcFZBfVl4piMSMCMyIf1Nb13IPoAB2jKU0AElYSwxeKixjAW/R4pnzGkEaQPXii69owEHE6IE394knntGyQbc3PLbo2sMCrFg6A93hKKP6ekSOfksDET755NP6nj125wkFKuP5ZJrydF00LLOBhsyhQ4EKYsb33G6vvh3Ls629Q0rMFoVpRIaGVxyNvGWYatXngGNYggPjqBzPddzfSDcfPFjQfm6ueVO6J0ztnB4cnyn39/CYKcduPozlwOKVWIwSC1au5ZkCOOH7b3/7uzpWCRFrHWEKA8Hfe+9r2s0H2MIgXeQDSENUXFT86CLB2k1PPvmsepKeefZ5XSEcQJWHwerPPKfdfDBoDY2tumL4WjAFbxYWwZyYfvHVRgAAIABJREFUmFFjhoG+FLN7Ko21YArPorq6TgfibgSmHtTNh8G52hVSVr28NEFQlMsGxhlMracbdFUC/AFRWCIDHtH10u/GdxgnBS9YVXX9jgRS3I3fsNev4QymEhIwGSHzPk1jQdiqqmb12G60i5sw5Z56cS9qfM96pvBCA3IwkBtGLD4+TT09mKmCadboNkhLy9auM7SYMd4J3W04ju4YhPfHbDoDZDSPhDSFG+SJgl2exZWsHi+ME0B6tOQxkwkwh7zwGUsDQHzhEfH6GWNWMDYEabBvjA0xBNrbN6TdhFg+AGHujePc7n7FcfhIkC4xgOcAr6SxfBGWmwgLj9F4TXgumFiANZ/2fzD5YK1ntRZMwXiUW2ruMTBYTLOgoPyeYw8yMpuBKZyDmXbQKGbswWu61n3z2O7rzpvL3BlMrafh5GSTlJbZN6R55EeYojZ3613ZszC1XgEDZDAzqa6+RdCdgC4QdNNh1e/1zuN3fHG3ogFnMLXayISGxoq9qnFD08g3A1Nb+S08l++CMw1sBqbgnbLbGyUkJHZDQEWYog6d6XC7jxOmdnAGzHY/LObn2xWDqzAFuMovKJf09DyXDQthyre14011w2ZgCg0Im61ewsPjXdb8ZjxT6D14UNBYGE2M3YOn2ZvKnfe6s3UAYYowxQrBQzSwEZhKz8jf0KBcwtTOVqQ0VK6Xr6fAFILCVlXV3xO0ua29R4+t9zwxZAPjVRHOZr10/M51Tbi7rEymPMEY0ajoBKmosK9oIiMzV+ITUsVqtUtjY7P+l5VXaFzB1fcMmAoMjNgQ7K/uddjtz9sStHN1QfCz9wjfV5/VRmAKs/o2Mm6KMEV9e8p74ykwlZSUKUXFFh3XiJhmE5OzOiMVgOVYVn7+IdLW3q3xAVtaO3XsIGCqxGzVYSBRUQlqXDFTOyQ0RurqWmRwcFTGjk9qLMDxiRnp6kJg3wgpt9ils7NPJydhDC6ug5A2SIPwJDjf8drc3533tri4TMdPx8WnSF1948ps1MKiUh1DjeeAsEdZWXlOn8/BgwFSXFyhvQbwpO42GG3meoQpD/Gk8EXf3hd9IzCVng6Ysrj8whKmtvdZUfubL09PgSmEvOnvH9EljDDzenmJscU1PVPwOuC+Z2dP6aoZgClrRZVG88fMakxaQriQhMR0DWiLZZUwS/zixSvq8Th58owGcp6entd4hRER8ZoOyyudXjyn52E1DsQY5Lu6eW1t9r10hKm8/CKxVlRqN+5GYGq5my9cTKYiqalpEau1VkPZhITEuFxPbwaItnIOYYow5bR1sNmXyRPOI0ztfiXqCc99r92Dp8EUgsMiBAieQ3fP4H0wBW/R0NCozMwsCII6Izr/WjCFSP+AKQARxl0B1hADEEb22LETYqusUY9UTk6RhIREa3xDeLcQrw1eKwR/BnxhRvle04S7f68BU+jSy8rO15nYpWVWQXR/YxH1B3mmMHENwy8QjBZBZxEjsKNzUHp6R8RW2XBPgNrVAWs38rmwyKpDPBDMdqNjCFeDF2GKMOWTlQ1hijDlbqOyG9f3NJhCdxtgCR4hBE9e3c2HlS8mJmY1DM6lS1dXYKqs3KZepdzcYkHohkcfvXMfTCF483owlZ6Ro1AFCIOHC2usGuF2duNZ8BrLdc5qmEK5oEuvs7PLZZiCrmNiU3SJpJycEmlq7pbW1l4pK6sSk6nwnqWTVi+ltJHPqak5YsoqVGCz25sEn1dDkqufCVOEKcIUu/l8UgN7wbh5CkxhuSOsQoHFadHdNz2zIFh1Al10js8B8f+wjiS66No7eiU+PlW7BhEDMDMzXz1Wo2MT0t7eo7EFEeAWg5mRP8ZIIS+rtVowmBmghjiD/v6h0tzcqYFnEW8Q47XQ1YiYbo7X5v7uNLCSkjN03BtmaMbGJeszQGzA/PxijR+I5wBvY2xsktPnA13DWwQvVKW9UVJTcze9DJKrMIT1K6urmzcNVIQpwpRTQXtz5UPP1O5UnN6sEV+4d0+BKWdliWDOGBCObj38F5dYfLK+cfb7eXxz9dCBA0clOTlL4uLSdhyiHGErKipJ4W0zg94JU4Qpn6zcCFObq8RY+XtXuXk6TFFP3qUnT3leywPQwzbd5eYISBvdt1hqFOI2eh5hijBFmGI3n09qwFMMw07eB2GKsLKT+nJX3u6EKSwEjnFZhCnCEQ2jrt8X5PLL4EmhESIjE3Qh792qxLD+oSuDdP2PhkpwSLRXaAuA4fibMDPImCKPIJFY69EoX/wurNuJf2PdTlTkAYHhegyBA7FWpGN+yAOeT+Sxb7+fIA+cg8/GOqDI72hA2Adp/DXNcvoP9/EZ94q0uJ6RB2Ix4RjWqjSMCtKu9U+YWrtc1iorHvOesjJ0v1Gg2Y70GZkFkptndtl+GNf0GM8UKicMLMRgQ4ree0Tvqc/KW7v5EhLSNcbObpQrKqz2jh597x50PQzsLSmxesW7CYiptFevAI8pK0+XLMFvLCkpk6rqWv0dGBRbXV0rmH2Eadsl5nIFJ5MpV2yV1VJYaJbs7HxdcNtaYV+BMMway8kt1DxCQqOkra1Dp+Ij/+iYRI3sXFRUKnV1DRISGi1R0YliLrUoGKWlZ0l3d6/mhfLH1HFEgUakaEwlB1RVfnBtq7VSB+zitxhgtvo5EaZYV67WhC98djdM5eWVei9MoRJBMLaEhDSvqLC9UbBJyemSnVOg5YsWdLnFJkHBEXLoUKDU1jYIItbid6FV3NrWrkanoaFJA64hfV5+sRofu71Go9pmmnLUAOAceDhQ6aNyx2cYhpra+hWDBkNVX98kVdV1UlJSrl4ArMmVlpYlaOkjoBsMHc6FJwDGp6amXizWSv0+IjJO77Gmpk4wWyQjM0fSM7I1Pc5Z/e8OmEKgQsTFwZTsxTPnP4jUHC6jo+OycPKMnDp1VnLzSjTg4IULV2Th5KJgi+Nnz11UjxSmhd++fVe/Q+DCsrJKyS8olfPnL8nCwqLk55tlanpe5hcW9X1BPB3H315YVC5Xr93QPC9dWtLrIp/hkeNqqDs6+3QgMO6vsKhMnnrqWbl+/RENitja2qX3f/78ZcnLL5Hqmga5cOGyjI9PS2NTu055D4+I0zg/s7MndWCxo8fG8T7cvQ+tYvAztAUwQv0CIAG4WCw2hRTAVIXNLtgGBkUItBUeEatgY3ip8DugfWcwBQ0DrIpLyhSWAFMIVIjz8gtKJDXVpKCGpTXgEUtNMwkgCft4Z/AuIS0akYjFA12npS/PQsP5UVHx+i4BztYqU8LU/e/+WuXEY95VTnsWpmC42tq61WjMzZ2S5pZOrYAqKqoFnyen5rR1hgBqJ8andVospsZ2dw9oLJLl5QHCteKen1/UczDrA4YChuj48UkpKCyVgoJSmZ5ekNm5k1pR8gXZ2AsCgwI4gVDRYrZVVul+REScGgsAzIGDR7ViN1rS6elZClEJiWla2eN7o9wzTbmSmJSun/2Phik8wfAgTWlZhZSX2wQQhPQwNjBUuDaWGIiOTpSqqloFJxi9ouJS9Qzge6QDcMFQwCgC8krMFp0qjd8ACERXCO4fXSzG/Thu3QFTCBZ4+fI1iYpKFEwBBygVFZdrpGeUS0FhmUKOxVIlx49PqTEFuGDKd3BwlFy8uCTZOUVy5co17ZbKNOVr3Bws07G4iJg5wRq8cHHxnMTEJOt7UmGrvuf3m0ttMj4xrYELkc5irdL3CDF9AD4w2nivTp06p9eanplXkAJAI7YP4vNUVdfL1PSctLZ16TVQrpj2jvcQzyQsPFanNi8t3dB9x3L3lP2Y2CQpLinX9cEAKdAV4Bt6wtphObkFClEAfkAUQB/T9KG10tJ7PXB4dq2t7apvaBaeqNy8Im0QoAGBc3AccAQtd3R2SV1do0IbAA7fGZ4lvBuAOTxLABxAD2UGXVdX10lOTsFKAwUNn+SUDNU4vGkAw9XlS5jaWB24uvz42TPLD+8rwmwYXWi7uUU3n9s8UzBsaDUjAi0qExgRRDhFZR4WHqeLWKIVjlb5lSvXtUI/cWJKW+7R0UlqPBAZFYYFcUni4tN0Hy3nxx9/Sit/GIJr1x6R2NgUMZdWCGKRoJLjy+D6y4CKF4YFIAUQQvcHRAuvEACmtNSizwYGt6W1XWHIZrNresANgMqxvNFFATAqK6uQCluVtLV36DOBsQU8QQswOjinrMyqRgUglJtXKHHxydpiN/LDPcF7hftJTslc8aDBmKC7Bd0g0Bk8BtgHROG3wGgaeThu3QVT0D7AEuOLoGdbZa16kXBv6Rm5+m4AphCLB8YR7w2OHzkSrDCVk1ssAB+kR/BB7AOm0KjAMaxZdvXqDW2IoBGSkXnv+laAKcT3wRgheI/S0nP0+SEfNEbg/UUj5pFHbuv7aMAUAOuJJ56W/oFj0tXdr+ugNbd0SEdnr14XMIV3tsJWo4DV0zsot28/vhKEz7HsPWEfWoG31Wy2rGgEUANQArhX19SpBxaeKYBNUXGZxMUlK/zDcwQdGr8D9cxanim8D8gT+cHjmpqWpd188EyhPMstFZo3IMmAfkeYwjGcj+sEBUWo1wzvZEpqph7DuxP9gUcL0IcxVMY9GVvClOv1n1Fm3Hp+me1pmEIMkYyMXK1EENK/vNyuMAXDAo8UQvtbrVVawaOiHxg4pq3s0NAY7cIwlg5ISsqQwKBI7W6wVlTL6dNntSLCuIPnn39JTp0+J/MLp6Wzq39lUClfDtdfDhgAeIwsVpu2lgExWMEbFX5TU4vCD2AKhiAqOl7Hb8Do5+UVaReFY1kDyDAGBKCL51hb16AwVVRklsamFs2zobFZW+CAKwAUgCkhIVWDuQGGjPwcYQr3iABv+A7dIjAwACi03tElg5Y9tsgzITF1JQ8jL2w9BaYQjBDeWXtVvYyNTUhLS5c8CKbQzVdX3yxDQ2PS0zN4D0zFxaeqpwuQhjFMeFaOv3s9mEKQQ3T52e11ClPwgg0OjSqopafnyIkT09LU3KHvJd7H+obW+2Cqu7tfl/9oamrX7khjeQjHe/CUfXh2mlvaFMKX9bU8bgn3V1BoFqzlZnTzoRwBLACcgsISKSwyS0pKpnqdoP/VMAUPFxoI8OghP3ie4ClNTErTbj50VRcUlGijwGarWnlOjjAFg6FpsgukuLhUIQr3CZjDtXFvgEIEP0QjxBHwjDImTLle9xllxq3nlxlhygGmUlJN2jVhyirQ1jm697D4JFrLBkzBw+QIU+jeQNcgxohgHElObpFuUcGhQltcvCBZ2YXq7TJaenwxNvZioBzRZYHuPpQduj6SkzNWDAI8TOiaM7r8UNkjTWhYtI5hgtGB4QCsrNXNh+eCwbxGKxppMjNzV7r50BUCowXvE6DIeH6OMIX8rVb7ihHBdxiXArCK1y6/cj0PBgbAZ+ThuHUHTMGDkZKSpV1hKGdEYIaxA3BgLBPgBeCJtcSiY5LVOCYmoRsnTPbv99coz+gqxHnwIsFLhfKEwXZcYwz7yC+/wCxY5BWeQHiAsYVHxMgbQIS8cS+III0xXVjLDN2NqWnZ+hzx/uFagDR0O2FMVmFhmV4P9x0Zlajli+eONOiOxHXxj/tEOTuWuyftw+OEMV6omFGOgHHj/qAx/F5oC9/jH+UHSAfwIHJzYmKaelfxDJEOgITzUaZ4JuHhy93WRp6AHlwnMGj5OngHwsJjdBB7RkbOyrVDQqJW8sL10LjAWCtcB3nhPnBt3B/uCw0LjEE0ruO4JUxtrP5zLDvue27ZQfd7spsPRqS42CJhYbFa0ZSVVyowYTA5uiI6O/u0gkBlg7FQqABgWGAUYFwsFrtWTjgPLePungHt4oCHCgtcGoNBYSiwBEFv35AaGr4Mm3sZUFHDyKD8MOYJrV+jLFFpw3AYywDAIACM8YzDwmK0S2PZy5SieRgt82V4yNDnGOewuCiMFvJEd5xxHYwxQf4YfGs8Wxg+xy47fI9ZVrhX3BvSodsjv2AZMADkAD9sjXt33LoDphyvv1v78HzhfcE7ge45ANRuXZvXce39g0bRBQgDsdEyg47Xm2hBmHLtGWy03JneveW6Z2GKwnOv8Ly1/AFV6M7YzP2npmbdA1+r89grMLX6d/Pz3noXNwNTISExYrPVS3h4/IYG+AYEIObWhxNQqLW9pbXdfN6EqTWmqO/mA+C1+HIbGiBMUQuGFnx5uxmYCg6OVpiKiEzYUZiCRw7voS+XP3/bztQzhCnCFCsOD9EAYWpnKjkaD88q183AFKaZl5VVS2Ji5rbBFMYKYkKEo+eqrb1HMOlhK5oJCY2R3NzlySjr5YPhBjW1TStDCdZLy+92VsMxMRjSsTzWEz0IRnljXCCGl2AcLmaH4x8zXzHO0EhjbAlTHmJIjQfC7c6+NJ5cvoSpvfvsPVmX231vm4WphMRMsVhrBV1+rsTwiYtLk0xTgY5xXes3ILYawnBgbCW2mMSA8DWrYcrPL0QnQ+TlI7p8oU7YwGQKTJDAuRjzh3MRRgdjZhFk9ty5S5onlvZBMFlMksBkAoAWroWJGhhPi4kVmByAUCMIq5ORmauTCda6Xx7bufoBY10BTRjGgclO2KK8EYIHwWsxsBwTWABVACljYofjMyFMEabuI2xHgXB/517g1WVLmNq9sl5d9vy8e2W/WZha9k5VSUmJTUJDY9cEKhxPSjKJtaJeKmx1kp6Rv2bgUDxvTBRC7DTMtkZonEp7nVxZunYfTCUmZsjNm7elublDw9wgLhvChiBgLeLSYZYv8kL8M4TGGR0b1ziEWVkFMjAwoqFC+vqGpbd3SGeJP/roXamoqNGZpYjrhlmtmDWOuGiYEY7ZstTj7ukRZe0IU4jBhtAg6PIFTBmhVBCHMivr3hh5js+JMEWY4ovrIRogTO1uBepYEXJ/98p+KzAFr1R+PtYqbFaoMpkKJS0tVzJNhVJaViVNzd3S2tYnRcUVejwp2XkoDAOmAFSIQQYNAHhWe6YAU4AcfI/lizATFfvz86fVowQY6+yCN+qirqRR39Cicc0wwxgR+icmZnUZo8uXr0pzc6cMDY9p1yLCSSzDVKyUllXqzNbr12/pCgTU4+7pEWVtwBRmcSOwM2aMY2kkHCdMBUVpywX9oBTm7gqT5b258iZMba7cqDfvKretwJTRvRcRmSgpKdmSk2uWgkKLmEvt0trWLx2dQ1Lf0KHjq3A8K6fYaTefAVPNLZ3S8sFyYsdPTK0LUy2tnYIo+9AcYGrZQ3VFvUxYSxJ5GTCF7iB4vBCCB116CLOD4LMAL5xvwBSC3WK1DYTdOb14njDlhsbtapiClwkequbmVsKU8dIRpryrot3LhpEwRa3uBf1vB0wZ9fvqbUJCpnqlampaFbIQSgHXW6tci4rKpbOzXyEGSxcBjq4sXdcgzI7p4+PTdG1WHAMoAX6wPzExo4FocS6WPMI4qdraZu2yu3btpnqxrBU1unA3VtuorWvWVTYAZDgfniuchzVc4ZHCKhnoQsTYHMfrc3/n6wWMhQLsIlYgFu5GmQcFReoKG4BefE7PyJGMdRaqZzefGyiYL8fOvxzeWMaEKerCG3W70XveSZhyhCuj6w8DvDdyjzCeLa1duiwR1nnEQtobOZ9p9+Z7TJgiTLGi8BANEKb2ZiW814zvbsEUwCowMNKpZ8pZueM9xLqqGFyOf8clfZydw+N8dwlTHmJI+TLyZSRMUQN7oR7YTZhiBHS+U7v1ThGmCFP0THmIBghTrPh3q+J353UIU9S5O/W3U9cmTG3QkPr7h6oLGDEoYmKT11wINCAwQiIi4gkpGyzbnRK5t+RLmFo2MsEhURr/52hA+LrvEAImNjS2SUZG7rrpvOX5e8N95uUXa7dXYaFZcnILZd/+5QW9MYAXY42wEDiCHjY2NkuJ2SJYDHz17yJMEaZWa8IXPhOmNmjws7IKdRZHUnKmLCyc1si2jR/EKDEEgeBriF1ifOZ285UHwvnHxiZrWaLiTkvPksCgcB0HgXggwcFR+h1mbVbY7FJVVSvl5RUrgfoQ1RYB2FDJZ5pyJS4+WSt9PBPAC/LAS4DPiF6cnVOwMsYCK98jP3tVjSQkpGoaTHFOSVkOqofIuKlpJj2O81NSM5evk7ls3AHcuBertVKCgyMlJdW0Ms12LU24A6Zg2CpsNTI9s6Czibq6+qW6ukEQZHBg4JhUVzdqZGbcL9Ih5o7FWiX9A8d0hlNlZa1GbMYSDMjjxIlpTbP69yFI4eDgMcGsprr6FsEU9PGJGcFaa2iUTEzOan6lpRWCe3jxxVdkanpeZ9hgyQ2ch1hAaKjg/OHh44KlPxBoMT4hTYpLLJrmxIkpnZ21+vr8vPl30LHsysoqBLBbVFQqtXUNqudDhwPFYrEJtkiL75KSnQeeJExtz7NwfC7cd3+Z7mmYQuh+xAXBdNbgkGgdbIjYI6i0rdYqOXQoUA4cOCrVNY3S2NSmkWlXw1RCYprk5BRpJYJlA5AfliQwYApxSJqaO3S6LAW/ccGHhkVLucWm5QtDWlVdq7CDda0aGpuloNCsMIQK3lxq0X2TKVfyC4olIjJO6usbNZKtUfYAKgRkw2fM8qmprdclIQBqaEnjc3BIpH5fXIIlBmL1erhWeHisVFZWy8FDARo3pra2Qczmcr1mUHCEWCyVCmi4D1wb0XNjYpMkNDRGf8PRgDCxWJFm2egY92Rs3QFT0D2mYwcGRcjM7EmNiYMp4gAp3Begpb29R/fHxiZ12Yzx8WnV+cFDgYJAhIijg2nh0dFJEhefKpgWDpA0fhe2k5OzGkE6OcWkgQwR5RnvFIIkGunCw+M0iCGW1rh0aUnhFpC0sLCoaWZnTyrIIRp1WVmlPofxiWldrsPIA+9bX9+HeRrHud34u7dWmRkwhXcDjQe8D37+IYSpDTbK1ypbHtsejbqrHPc0TMEAY12lnt5Brdgtlio5f/6SmLIKBC3cqqoGBaue3iE1GGfOXpTc3JJ7PFNopU9NzUlqWrZGycW6SydPnZWRkRNit9fL4OCoZGTkyeLiOV3LyV0P2luvC4MNmEIAvOSUDIUk/BYsv4BotfgOkIJnWWmvESxYiZYxvgNorW4hm7LyJD+/WLtqYdABSeguApyVlll1aYiMjOU4IyXmco05As8JWt5Yr6miwq6GHeADYEIavEQAtNy8ZaiGkUEXCNLi3gBf8E6hy8NaUannrfU83AFTQcFRcvnyNQ0UiCjPABlEbM7NW16o1RGmAFFYg+z48UkpMS8vEDs5NSsdHb1y9epNLcewsFiFKcyGcvyNOAfrkCUkpOt7AnhDHkNDY5JpyteghadPn5Pbtx/XqegGTGGK+hNPPK1eJ0AfGjbYAgJRroApAFd9fat61q5euym4T8drc3/7jJQjTKGhAW9rYZFZ9W00EuiZ2r7ypna9pyz3NExh8Um0xq9ff0RGRycEMGV4lLDGEozKufOX5OrVG3Lq9Fl5+unnNOItgrUZ3XwGTKEyRwRciN9eVafeKbSkYXxQyP39w9LQ0MZKfhMtOAAQuuNKzAjtH6ere7e0tEldfaN0dfdIalqWwlR9Q5PCDbrm0JWAqLbwHDpWSMgL3iGTKU8w/qO5pU0hAB4r5NXQ0KyB2g4fCZLSUouYzRZpa+tQDxUCugG4jPwQdM+AKUAbAArfLUNficIUINCAKbTg0aJPSFzuMjTyMbbugCl0jyJKMzyq0CruBboHrGK/s7NPGwSAwqWlG1JQUCoTkzPqUTriFyI3btxSSLpw4bIaVjRO8L7gtxi/C1tHmEKgQkw3B0yNHZ9UkCopsQrWMrt1646OgQJMAZgAYOjiw/PEP7yJWIIDXbIGTMHDtbR0XbsE4ZUiTO2cAVoNU6jb4J2qr29a8bgSpnau/B3fKe57VjnvWZiKT0iXK1euC1rm7R09cuzYCYWpkycXdfkBVMoYNwIPE7oUDOGu7uYzYAqV/vHjUzpWZ3h4TI6NjusilwAodHlgfFVRsWUlHyM/bh/8QsDgA2gq7dUrXiDDewSPUnm5TQ0putdgYPF5OUZMoo6XghE2ynmtbj4YfoxtAvggHaAIniajmy8kFF6vagUzpDPycoQppCkrs+r1sQwBxlMVFZdJZFS8juuCBw0vG2AsNi5pJQ8jL2zdAVN4D6an53V80uLi+eXFWG21Wn64JwANGhgY09TU1KEeP4DR7NwpPVZeXqkrqIdHxKs3F+8AxlU5/i7sI11cfJqEhMboch2AVXgGAVHwTCF/vGuIEo3njXGIo6Pjen2MQZycmpOxsQl9BnV1LfqOYuV2vH9JSRlSW9ukabBuGiBt9fX5+cHvmStlhEYDGgVopACwcQ68jNnZH441xPjCsPAYp88A7yNCFjgG2NypfYZG2J7n7oo29nqaPQtTaOGisp6bPy3wIAF64JnCeI+5uVPaGsaMPMxQmZyc089YATw52SQdHT06aBbAhXFSaL0DmABkOPfU6XPS0NAqgYEROsgWx/DdWjNb9roAXf39JSXlOvgc6dGdFhoarZU1KmbMJIqJTVTvFb7HOCsADZ4JoAsDyDEAHd1vMAYY1I508KzAs4RB6oZXCcexsCUGosOLZYyfwjUw+B2D2fHSIB3GcGVlL0dHxrHc3EId04WZTrgvgB5a7XZ7tcIVjlkr7E6DALoDpjCAHN5ZzIirqW3UBsCBgx/CJ36n4z++A0wVFi17sRy/M/ZRFmiIwKOEQelorKCsje+5vbdM91p5EKb29vP3Vb3vWZha64E6dvOt9T2P7e1KAC8LVhIHVG1GC5mZuQptyGet890BU7gmvDuYIYdFWAGAa92bcQwD9QFeYeFx66Yz0nO7t9+ZtZ4/YYqaWEsX3n6MMOXQ8k5JzdJuB29/qLx/76ys3AFT1Ip3asWbnxthiprzZv06u3fClANMOSskHufLvxsaIExRZ7uhM3dfw1NgCjOFMQECE4qiY5Zj2TkrG3hvzaUfjpd0ls44DsOz4bhKAAAgAElEQVQaG5eik1uMY5vZYkwvxhk+6NyDBwN0nOPqkCQPOo/f++lEpLWGIWCW95FVIV7WKy/CFGHqgS/qegLid9sHAISp7StL6tJzy9JTYAox0c6du6gD6B+kF8QKxOSIB6UzvsdvxLCRtYy0kcaVbXJypiDczoPSYmWOEvNyQNUHpeX3974bGMdqTKZwLBuMrc3KWh4T63jc2T5hijD1wBfVmXh4/N6XcqvlQZja3vLc6vPg+TvzPDwBpjBzF8GVX3jhZenuHtDJFxcvLmkoHMwWhTdodu6kIIxHT8+gBrG9e/dJWTh5Rq58EIajvNyuM2ERlqOwqPyeehQxtxAPDTELr1y5Jpgpe+HikrS0dGq4j4sXr+jkDITUwfAShODBZI22th6dGHX27EUZHBrVyRsIW4LAuQhWiwC2yAsziW22Wrlw8YpO9AC44TvE18Nkp8Uz5zWQLiZIZZry5LHHHtfJUQgDlJO7HA9vL+s7KTldamrqdWISYg0iVEtyyvIKFg0NTRoKBxH+u7p6dOUMjJOtra2XurpGSVwVbscoR8IUYeqeSsAQBrc7Y0jWK1fC1O6X+XrPg9/tzPPwBJjCs4VnCoFqEZT32vVHpKy8UrvyAFWYjT01Na+zcpEWnqn2jl7ttkP4D8RbQ0gIxFVD0FrHSP5Ij9Afly5dlazsQg3Bg3Af8DDheggHgmWXcC66kQBrCByN89D1iG7HurpmnTUMb1hrW7deo7mlQ+8HsIRllJC/yZSv56E7EHlbLHaFKtxbZiaCRZ/X34Q4iZhNXl/fIi2tnXu+zsfsbgApyhurXsAzhfIJDYvRbj/AE5YKQ4Bn6BXghZng+EecQoATnpfjP2FqVYE4Fg737xULy2Nny4MwtbPlS/16Rvl6GkwBqh599I60tXdr8Nr/396ZPbWV5Pm+/5aZiOn7cjsmbsTMLe/s+76ITUhISAiQ0MIidjBgFmOwMdhgsI1tbOOt7KpyV3V111RvU13V1VXVcydm5mkeZl5mJmaft4l5+934/uSjEkbCgEAI8X1Q6OicPJl5Mr/K/OQv8/wS7kKGh8e3bEsUOc03P78oPl+37nwBFyCrq+vq2DZSX5EwBQsVrsHRMyxdODabm9W5LKxigDOAHM6jc8e+lYYD3TBMjU0JYAphAG7Y4BvxlpSa9JwBU9hXEwAFOKisrFPLFRxQ31xeVT923d0DJx6mAD1wWYMy0uNAl24V1u72KkjhWn2DNQxT8F0I6xX8BtpsTqmuridMQYj8sAySVQOEKWozWbV5kPlKNpjCVlTwhTZ75Zq6B7FYHWGrFfZ6xFQZNtU21kwBpvz+oE7fXRyblPsPHu0JpuDw1OfvkfGJaZmdvapbOT148EjTtja1RIUpbP79/vsfKuzBcobNvQFicA6NvNTWhbYzw1QV9sHEtCCc3GJa0dxoJ0y91ffDjyB8F8K/4MDgkDpXhoWqsdGuU391dRbdPgxghbVTCI/tyQBZcMQc7f9Ay9RbhRytkHiOnVwiNECYos4SobOjTiNZYAr/N7xxh/zguL7BpmucYKlCGWH6D1scYToODpyxGwDOFxZVSHpGvgIN1kRh826Exa4LuLesrEaniwA8WJsFz/+4D2/alZaa1BE0pudwL6bj8NYYdgPAb9yPfS0RP+5Bmrl5pTrNB+/+Rhhcw9Qh9tIELGF6Cs+CtVqwUmFXATwPFsAjHPKGzj4U37vfDkT8qfxBfWOXCtQldq9AHaAMAU6Y/kO54VxhIeq9SC2GcOaMjetj+eIjTKW4aFL5D5Fqz0aYSu0GPNX0ut/nSRaY2m/+o92HDhaOb0dGJnSK0GZzHSiMYF0W1klFS5vnkqPdIEwRpvgHTRIN7AWmamtt0uzw7Hp/M/qfSY4Glx3fBbUEcW++vekRVhJAKPWzt3JLZHkRppKkI01kpTOt5PxD7gWmqqobpcXlOxSYQsNtTGnEqxWYyzHFgH0M442L9yenbvdaL6lomdprGTB8amg5sh4JU4QpdnJJooG9wFRxiUl8/t64YQqwMzh4UdcFGA1DeUWdrN97GLcu8GbSzOV59cWDV8SN+Pl9fDuSiopaXU8CPz1Yc4K6BBxVVtWqhtxun7g9oQ/2scRbbW/XN2Hq+Nb/23XJ39/XJWHqiDpSLGpbXl6T/IJ3bxhbUFixq3DRhJ2TU6yLEWFtiHY92c/BmRoWaRr5zMsvCTfQWBBouPtHxw0fIPANgrdlIGzcg8WXeMOlpsasb2FkZRfoolBcQ6Me+WYGGn78Nu7Nzy/V+3CvsegQr9NioSLux3Hem2P8zs0rFlONOVxX2slU1go6HkyzIWxael74WXBP5GcvMJWdDad9fVJZ2bAjUOXnl0tjo1NKykKLaiPTwzHKDT5z8I3ydHsC0tc3IvcfPN6SN4StrKyXZkebenbGa94oJyyAhcNCLHjFs7W0eDSOoqJKvfbhhz+WgYERycwqFKvVqdew2BbxYTEtnA1imw6UD/zw4DfOQ6/ID+KFXx4sqn077/y9VT+JKI/29pCXbbwJ1dvbL5lZ+bro2ePx6f8S/6HWVo9uBo7F0NHyRJhKfL1FqweeO9h6ONEwpQ12Qbk22hih42OAC/7waBjQiaJRh7v+rKxCyc8v0ykLdHxGWHRECI9OFm8HxOow4VW3sLBC78cbA3CyhvChuMr1jRHkCZWiYYsq9M2PK1cW9BVXdEjIQ15+meYLHRDyho+RB3Q6+W+eCfnHmyBNNpfmD2+IIH3cH5lfQEGy/rFKy6r0FVbkD/XT2dWjztVQH0NDo/qqKq4BTnENIIXRMaAGz9XdHVTAKi8PvWFjbmySyqo6fV7UE16HNUATr7/CnwjewEGcra1usVjtGr6rOygZGfnianWrd1xAHjzitrV5tL5QF15vp6aLb1yvq7dIc7NLGi12wSgdb4o4nK1y6vR2h29Iby8wlZVVJIWFlRLoHJDy8joBXOEcPjk5JVJaWiNOZ4d0dg2Kzd4Wc9oO02/wV4M3iAD3cOo3OTUrz5+/2qYJOBO8deuOtLX7ZH19Q6qq6tU/z+TUFX2jaWx8Sqan59TD8717G9Li8ujr3IHOoGBvs7t376tTQfjawevnDx8+UbgCZAGg1tbWxW5vVf89gLrOzj55/vyltLX5tDxRRvwcbRkYMAUd2+xOaXG1azsJmDLgyels04FNrLoiTB1tHcaqF56Pr15OLEzBERecoMEFP96UqK21yOLiivoLWVm5LT09A9LR0SkffPD6TQfRph0DfHhgJI3XVNH5wGHb4OCoOJ1udZYG3x+rq3e3TJtApHg9Fq7/5+ZCrv7xuq0BU/CAe/36TXXohjc2rNYWefToiTpng2+T168/kfv3H6ljt5cvP5S1tbs6gr98+aosLi3rvchPeXmt5hHPga0Q4NwNI/ubN1d1ZI8tCgBmAwOj4nC265YDRn4Bd8n4ZwIQYu8kAA/W3gBekE9YoRrMTdLR4VerBmCq9Q3YNDRYpdFiE4ulWYEm8rlwTzSYupCWo55tcQ+ADPego8gvKFXwBDiVl5uks7NHr6G88Boz4Ap/orJyk4IT7oP3XIAU8garGiDJGLn7A1366m1knozjvcIUwKmkxCReX690dg5Ic7Nb2toC0tMzLKMXZ8Qf6Bdzo1PqG5olryC6bxQDpppsLYItLlDesDpBK0a+jO9r126I8ZbS0tIthZxnz14q8KN+NjdfKJShPKBX+NKBxrHFBRwRQrvw5QM9u1o7ZObyVd1oFtYs+PmB3x2kBfCC92nA1NTU7LZ8GPnhd3yN/37Kz4Ap/DdgxXW2tKnllzCV+LrYT/3xnsOrpxMLUxiJP3nyXBt/CCzUgTwK++TAyLy3b1hHyygkhMcoGdYhWJOw1xFc/sNrLpyoAaCM/ZkAWZ1dfeFOAPcDdrCvk9fXI9gfCSNvdDShfZM+1e0KLl2a0RE/RujoUJAvQB9gKBDo1bzBcVtBQcgyhfzDEgWLzatXH+nWBcgLOraQt13EH4Ipr7dbPe7CgoV4AYzYGBPHsDj0BAfC+cW5ZPrYm1uk2lQvDqdLgQbQASsUHK5h/6SyMpPC68WxccG+SnD9j+fEVIQBRsbzwPo0NDSiUIR7cQ/KC4AFKxa2D4CjttNn0gUecfv7B2ViYlL9i5SWVUtbe0e4bABUBkxhKhEWKKSDvGJ0DpgCpKEOfb5OtZShEyqvCHktNvJkfO8HpgxLFKxUdXU2haqR0WkZHpkSv79f7M1usdnbpai4KpxvIz18GzCFKbaQ5+R8gePAJ09ebAsPgIJnaFjh7t1/pF6asaUFrJ+wNsAahUEFjnF/s6M9DFPYigOOB/H/QZooc3zgwRlx4P+xuLisaeL18pmZeYWpsbGpbfmIzD+PE/tfjYQpDDRgjerqCup/jpapxNYFtZ9c5X1iYaqwqFJH3+gIIEqs48CGlJj6gQM2gBP8hsCLLK4DpoxtAQBTL19+pCNzY70IAKjDGwIggArgxxA7ChkdyfXFZfV2i04GlhXAFByrAZC6u/sVxvAbcIPROu5/G6bQ8cAKA4sH7kP+sS4I+YGDOSOPeJ47d76HKVjZ0EEhL4gX0zX+QMjKAmsb0jfym2zfefmlusGk39+pjTemywA12HDSYrGrm3/DMoUpOoALptlqaxulybZ1U89YlilYvPRaZa1aqDB1alimAEfYRgDWp1gwFZrCa9PyNTfaFKgAY8gX6geLcgFohwFTxvSe8Y11UvX1zeLp6FHrVE2NNebUM/S+snJH9QQLLSxS6/c2wtteRGoBFk/8L6BbbBKLKXBYZo03/zAwuH17XVZu3VGLEkAfe5DB0R3+M9AZNnOFdbQGluClFR2sYLCAtYM4j/8O4scUIjaSxfqtyDzw+Gg7EIejVbWC/5Vhzcb/sLMzqG0V6seqHsSjDxhwndN8R1uH/A8dTvmfWJjCqHh4ZFyn+TDVBe+xmIKbm7+ujTmmwmAdigZTsHpgUS2AZHpmTqffmppatAMCsGBrAKx5ihQt4kcnhQ4D0xnwjotOA50MtirAqBz3As4sFodO8+F3S4tbpyHRyWGPJQOm0CAB0LSDWl6TqekrgnVBsWAKFgFMHaIT7B8Y0Z3DsXYllN/HOlUTmd9kO+7tHdD1RsgXphaKiyu1fFEXPn+XWnuMaT407oAXgFVHR0AtTFgUi+kmgM7b03zoyDHiNkATbyZhHyYDpnAeo2/c6/UGwvUaaZkCKGE6EptgwrKF6TLAF6YFAXfYhgB5Rxh43I1Wvvu1TBkQFe27qKhKWlv9UlHZEDXNaPnAOfw/ME0HfUMj2JYCFldjmi/WfTx/OA11KpUrYYoaSSU9G89yYmEKBYAOA6NqWA9wfPZs5pbf6KhhVUBYLBo2XPyHfqdrWHSoxoJzTF+EfueqJQsLcPEmEgAJaeB+XDfSw32oAKSNUTyuIT2cA/zgTTz8hvkc+UR4xIHr3+e/SK8hr6dOfZ9HNFgIj7iNZ8BvpIG4EQesN6H8Ju8CdDwnPigDPEvoOCtcBt9fS9epPfzGswFmcIx7sFgdYIUywm+UDa6F7s3S37hmnENdIz2cM8oax9hVHNYmbDGAsLgWeR+OkY4x3YEwmObDB3HCQoNpwcj0jTTxfRgwZQAWpoIj09rNsaFXQzNYvweL0W7uZRh2mLE0QJiiNmJp4zifR3+Qnp4XfhHIaHsT8Y11sTZb257T/sFeMmeARKIrCdOCb8NUovPA9A6+0QoBaXTL0rvKOwSuITiPFvYwYQrrnKKlyXMHrxGW6c5lSpjauXyon+NZPoSpJFtszT/S8fwjHUS9EaZObt0fhH6OSxypBlNYqgGXHsel/JnPw2lnCFOEKTYCSaIBwtThNHLsPJKrXI8LTOEFi4WFmzr9vpOGsI4QbkN2CnOSrgEuHc7QyzhYGuEPdG9xjhxZFlhXirWsABG8aY0lEZHXdzrGkgr4O8O9O4WLdg1LMvDmNpZfoJ6xHjZauMhz0C3WxGKZTOR545gwlSQdqVEh/E6uhj+R9UGYOrl1n0idHXVayQJTWD85O3tV3z6Fs1qseYWLDrxRCn9oV68uyZ//+Zf60hD8sOFlH8NpLTrO7u4B/Y0XifDWKv6/4+NTb95mvbJlPeVRl3ms9LGOEy/wwE8YAANw43K164szTU0OBZWmJmfYkTHcv6Rn5EpDQ5PeAwfFdXUWCQS61RUNXsTBm9EAKqSJ+Ly+QBh6UG54GSfQ2a3rRwcGhmRk5KL65cPb1AhvMoVeloEfM7xJXVISyqPX17kFtrDmF2tYsUYVYOTx+DXfWJOMcy0ut/42N4Zc1mCHCryQhBeE4Lpmevqyuq/BThf1DU3qlzC0vjVdwQ5vzCNevESEvCHveDkJ56KVJ2GKMBVVGNHEwnOH29kTpg63fKnf5CjfZIGpru5+BSVYJjY2Hkt3z4A6m8W6SGgFWyXBXU7kesOqarP6CzTVNOo9ubkl6iNw6cYtfdkIzmkBJXBCe3Fscl9Wk0TpFPmETz4ABKxDcP8ClxewEAEMYIXBm8cIA0BBvgAiOBcM9usLTrivp6dPX6rByzXwoWfEifB4wxpuZhAXyhHw5unwhcsFaWILMMPqg7e0AU1IH29tV1TWqGULL9AAbkI+AEMvIhkwBetXaOeKPHWxYrzVjfQBzG63V/OKfBlbgSEuQBLgD653cA9AEf4CsXMG3roG9BkWK1ja8BY4rGEAR+MFp8i6IkwRpghTSaIBwlRydPaRDSSPD75OkgGmkAe4qXn1wWu1LgGmzOZm3ady7fY9gQNla5NTYQovMTlbPHLn7n15sLEpL158oD4GsWuFdvpOtyws3JCh4XEFKGgGbnXgSiTyzd5k0xKgYXJySrBVFj7w2We1NitYIa/wqRcJU++duqAggXOAGjx7aL1YyFIDEAMYAVoAOACXkZFRjXt45KJeg4WnwRxyE4M03oYpABIgCn4YAUHZOYWaJsAPdRYM9qmTatwbCVMAMLSfeMkHUIc8wtrW2RWU4ZFRwZ6ugCcDjN+GKVerR2Gtvb1DGhvtmlebPeQsGmnB+gYn0YAouMkBVOF85Icw9VaBRBYOj7eKheVxuOVBmDrc8qV+k6N8kwGmoIWOjq43lqmisBsZWKXghgb7Rnq9XQpT2MYKINXa5lNIevL0hZRX1Mn6+gMpLTWpvz9Ypmz2VvU1CEfK2N+yr39EACDJqjtYbXy+rjf7vIZcxMA6A2sT8gyYgkUKVho4JQao9A8MKahEwhSACOEBU9jUPQQbeWrhwrQdrqFc4aMPv7HnKWAL6QPeYAFC2wfrFSAFO02MjY3r1B/CAIIAVfAHiF0l4Hkf23XtBFOANkxT4j4AGODJ0xEQTOkhLQOmYJWDZQowhXwCyvoHBtVah2fBnqoAKAAa8g4AhWUKcSB85CflYWovbhQYNrRRLssh9crBGJFF/vl5vLUxZHkkpjySBaZQ39j2a35+UfdfhVf+qakr+huWKHSYAwMX1Wlyu9uv5+FwGc5sca/H06lOni+OTel+rehMsQk4nD9jS6TjoCdABeAGm8MXFVfoQnEACPIOqML0Ws6bfU9hMYJDZAAIpsMQBr7oAFo4xjcWZ2Mbr9LSaqmpMavvRqMcsPk8oArWK6QHIAI8AVQQH6bRQhaoNIUspIN7kUeEwVosnKurt4qppkHrB9uFAbhgyYKucN2AHtzT0tKu6QGIjGc14sEOGbiO58M+q0gLwIZ84hggjPVbcACNsPiN9LCGzHimyG/CVFbqdZyEIdbp2xogTCUGFCIbVx5HL/NkginWUfQ6iqdcYOmx2Z3hdVHxxBXtXmPKL9q1wzwH3QIUYZ2Klg5hijC1Z6+pb3fU/J388EaYOvhOI1qDynPvLmfC1LvLiDo6fmVEmCJMEaZOgAYIU8evcU7VDpUwRS2morYJUyegI6XlKPktR4ddR4QpdmAH2YEBiLAgGd9vx4tzsaZCEJYwRS2+rZlU+E2YIkzRMnUCNLATTKERwDoEYy0CFnSiccN5dHz4xjkjjNHwncHm4OdCryzjHMLgN8IZYfidmh3nmbMZutAXdW7o5PQbsMrKKtA3waKBFvRAmEpNTZz0/zr+Bym90fFhj/gZP60+x0EDsWAK4DM5eVnW723o20qdnX2y8XBTX5e2N7fJ1auLAg/Cn3zyU7lxY1U2N5/rb5zb3Hwmi4vL6qenoqJOHjx4LMvLt2V+/nrYyd9Jb2BT9fn1VXaPT9/GGhwcFp+vU4K9/VJT26h+gqamZgR+eqKBNWGKMJWK/wvC1AmwShyHzp55PFwojQVT8E788uWH4f2m6hts22Cq0dIst2/fU4d3bndAlpZWdPsMHKNRvHZtSYZHxuXevYfS4vII/PKkYmPJZ/oeAiJhKqDOELPUMSJeR8c2IPDXE6u8CFPfl2OsMuL541dGhCnCFKf5ToAGYsFUcUm1PHr0NOwZGFtoGJaptna/ghJgan19Q8M4nW7du2x1dT3sb2d29prCFJwd9vUNy6NHT3Q9DTuE49ch7LbOImEq5H06U7D3WbLBVGZmocCD+YUL/LAMDl8DGRkFR9Kf1jc0i83Wtue0f0ArxuFaMVi+qVe+sWAK5xcXV2Rq+opgr7Lyilp5+HBTnRdiA1fsNQaY+uyzn8vI6ISClsPp1imcO3fuS3//iIIW9irD3mYIg+k+gNVuO2aGO37QtRNMYSuPnmCfOmI01t9F1nEiLVNsy1KvLWOdbq9TwtQJsIhQ+NuFfxRlEgum0MllZORLVXWDVFTWqfUJU3/VJrOUlpl0fy3AFMCpts6qsIXO8NTpNCkqrtRwCI9Os7KqXn/jfGTnyePjB0u7qTMsttWpjTdODLFpLDxa4xw2D8ZWJDh+Oy7CVHK0CUfRDjHNw6l7whRhas9mSf4Z9/dn3Amm3u7s3v4NmLp5czXqflRvh+Xv1ASng6xXwtT+/sNs+1husTRAmCJMEaYSpIF4YOogO1LGRdgiTBEKYkEBz+9PG4SpBHWkFOj+BJpK5UaYIsQkC8gSptgepVLbmgzPQpgiTNEylSANEKYIU4QpQkwydPzMw8HrkDCVoI6U4j148R63MiVMEaYIU2wHjlu7xfzuTrOEKcIULVMJ0gBhijBFmNpdx8QOnOV03DRAmEpQR3rchMH8HnxjRpgiTBGmDv5/xbaKZZoMGiBMEaZomUqQBuAJmh+WQTJpIBk6IeaBMJQKGiBMJagjTQWx8BnY6FED1AA1QA1QA9s1QJgiTNEyRQ1QA9QANUANUANxaIAwFUfhkc630znLhGVCDVAD1AA1cNI0QJgiTHE0Qg1QA9QANUANUANxaIAwFUfhnTTy5vNytEkNUAPUADVADWzXAGGKMMXRCDVADVAD1AA1QA3EoQHCVByFRzrfTucsE5YJNUANUAPUwEnTAGGKMMXRCDVADVAD1AA1QA3EoQHCVByFd9LIm8/L0SY1QA1QA9QANbBdA4QpwhRHI9QANUANUAPUADUQhwYIU3EUHul8O52zTFgm1AA1QA1QAydNA4QpwhRHI9QANUANUAPUADUQhwYIU3EU3kkjbz4vR5vUADVADVAD1MB2DRCmCFMcjVAD1AA1QA1QA9RAHBogTMVReKTz7XTOMmGZUAPUADVADZw0DRCmCFMcjVAD1AA1QA1QA9RAHBogTMVReCeNvPm8HG1SA9QANUANUAPbNUCYIkxxNEINUAPUADVADVADcWiAMBVH4ZHOt9M5y4RlQg1QA9QANXDSNECYIkxxNEINUAPUADVADVADcWiAMBVH4Z008ubzcrRJDVADidbA2bPp8sMf/i/5oz/6IT8sg4RpAJpLT8/fNWASpghTuxZLohtRpseOmxqgBs6cSZM//MM/lD/4gz/gh2WQMA1Ac4QpAhIBiRqgBqiBlNAAYYoQeRQgTZhiA5oSDSgtErRIUAPUADRAmCJMEaYINgQbaoAaoAaogTg0QJgiTBGm4vgDcVTKUSk1QA1QA9TAXmDqhz/8ofT19Ul5eXnC1tYcRUfPNA8fMDnNR4DjKJgaoAaogZTRwF5g6kc/+pH827/9m1y/fp0wxcXqcWmAMMVGNGUaUVolaJWgBqiBnWAqEAjI06dP5dmzZ+L3+yUSprxer8zOzsp7770nU1NTEgwGNczy8rJsbGzoZ3p6Wp4/fy5Xr16VP/7jP5bFxUVZWFjQ+BDuT/7kT/RNwlu3bmm4+fl5gfWrtbVVwxjp0lJ0+JaiRJcxYYowRZiiBqgBaiBlNLATTNXU1Mjc3Jw8ePBA/u7v/k5MJlPYMnX37l359ttvJTc3V7788kuFIYT7n//5H/nVr34l//7v/y7//M//LJ999pn8x3/8h7S0tMjf/u3fyj/8wz/Ip59+Kv/93/8tgK319XX5x3/8R/n444/lP//zP2Vzc1P++q//Wv7qr/5KlpaWpLq6Oi4LSKIhgentDvwIU2xEU6YRpVWCVglqgBqIBVOwEMHy9MUXX8hXX32lENTQ0LAFpn7/+99Lfn6+fP3112GYAkThHO77/PPPpba2Vv7pn/5JPB6PwtQnn3wi2dnZ8q//+q8KS4j7z/7szyQrK0v+8i//Ul6/fq2Q9Td/8zfy3XffSWNjI2EqBacUCVOEKcIUNUANUAMpo4FYMHX+/Hn5+7//e/nFL34hL1682AZTN2/elP/6r/8KW54wnQfLFNZUZWRkqHXqZz/72TaY+vGPfyyZmZnyL//yLwpNsHABtmCtQnxra2syMzMjAwMDatGCpYrWnt1Ze45TORGm2IimTCNKqwStEtQANRALptAx9/f367QbLFRY6wTr0e3bt8XhcMi5c+fk3r17Ok2HqcDu7m7BOipcx1qosbExGR4eVrDCmqiSkhKNA3HiOqAJli6kAzB78uSJWsL+9E//VLB2Cr8R19mzZwlTtEwJt5MhfBG+qAFqgBpIWg3sBFPHydLBvB4v6xUtU2wUk7ZRpJWBVgZqgBrYqwYIU9o1c04AACAASURBVMcLQlIFGglThCnCFDVADVADKaMBwhRh6igAjTDFRjRlGtG9jmAZnlYPaiD1NECYIkwRpgg2BBtqgBqgBqiBODRAmCJMEabi+ANxhJl6I0zWKeuUGqAG9qoBwhRhijBFmOKIlBqgBqgBaiAODRCmCFOEqTj+QHsdvTA8R7zUADVADaSeBs6dy5If/ej/yP/mh2WQQA1AcxkZBbseCNHPFIFv12JhR5V6HRXrlHWa7BpIS8uT//veBX5YBgnXQGZm4a77R8IUYWrXYkn2Rpf5IxhQA6mnAcIUQfKoYJowRUAiIFED1AA1kBIaIEwRpghTbMxSojHjaD/1RvusU9bpcdEAYYowdVxgqsnWuuc+/wfH5Y/IfLLToAaoAWrg+GpgJ5jKzimS7JziLWtpsrKLJDOrcMu5aJ1xWnqe5BeUyanTae8MG+3+/Z47ey5TkMcLabkJTXe/+T2u9505mynpGfGtt9vLNJ/N1iYNDc2EKTa2x7exZd2x7qiB1NXATjD19On78uLFB2EoQQf6+PFTWVtbD5+LBQPj49Py9dffSG5eyTvDxopjr+ezsgtldvaqXL48L3NzC1JeUZuwtPea1+MevsHcJHNzc3LmbEbUMs7LL5Hyipqo14xn3wtMdXT0SGlpDWGKjXHqNsasW9YtNXB8NbATTDU72sXpdGuH2WRzidsTkPff/2AbTL13Kk0cjnZpa/dJi6tDzl/IEQOmSstMYrO5FKpgMbLbWyUjs0AsVqdYrA5pa/OJtalFP7i/pLRazp7LkmZHm4bBufr6JkEasHQhvKu1Q4+NTtn4Hhwak9ZWr963snJHrl+/KafPRO/sjXv4vb9pTlgta+saBZbAktIqKS6plGpTgxQUlgugu6enXwYGh/VarDKOBlOFhZVSVFS1BZpKSkzi9/dJbm7plvO7aXc4zcf1YHsWzW6ExTDHt9Nj3bHuDkMDO8GUYZkC2MDK9Nvf/k6++ea7bTB1+ky6bG4+l/v3H2mY7p6BMEzh3s8//6W0u/1ib26VX/7yz6XBbJdPPvmphv36d9/Kd9/9P/niiy/l97//f/LkyXMxmczy1Ve/ky+++Eq+/fYv5Ne//kLMjc2yuflMvvnm9/K7b76TZ8/eVygzOupTp9NlcmpW8gvKFdycLW65dm1J0OkbYfi9P3CKVm6GZSont0gmJ6fkypU5WVi4LlNT05KTWyzjE5MKU4VFFTHLPxpMmc0OaWoKrY3Kzi5Wa1R395BUVZn31ScSpghT+xLOYTS2jJOdODWQuhp4F0y9evVari0syccffyrFJVVRp/kAMgMDozI/f11+/otfydKNWzI9PacAFgumfvKTn8nDh5tiqjHL7373rfh83TIyMqHgBUvV119/K0PD42oNw/W+/mH5zW9+Ky5Xh1q/vvrqa7VAoaNH+r19wzIwOKpWEZyrqq6Xu+sP9Fo0GOC5+MAqEqYuTU6JxdqsVqjJqWnJzSuWoeFR8fo6Y4IUyr+mxip19fYtH7enW3z+XsEaKa83KD5fn1RXN+67PyRMEab2LR52fKnb8bFuWbcHrYF3wdTLlx/KxbEptSj1D4zIxx//ZJtlyuPplO+++wsZGh4TQFIkTFmbnPLzn/9SVm7dlsuzV+U3v/lKLVMIt76+IZgGBBhhOu9tmAr2DonD2a5QFujslV/96gu5Mrcg81cX1ZJVVd2gnXVNbaNcvbYoxSXVMjp6SW7eXJOr15akrHznNTsEqv0D1dswhd9FxRUCsAJM9fUPqmUK03+xytlidYnd3r7lE+gckK6uQV1sjum9nJy9T+1F/kcIU4QpwhQ1QA1QA4eugZ1g6u7dB3Lv/iNdx4RpuS+//K28fv2JXFu4saWDrDaZ5Re/+JU8ffa+vHr1kcxeuaZQ89lnn+samuvXl+W3v/1Gfvzjn8iHH34sNbUWefbspdy4cUuKiivlpz/9TKGpt3dIPvjgtcLWZ5/9XHz+oADGEA8sWOPjUzr9ByCbmJgOr4cCTE3PzElXV79cubIgF9Jy5D16NN9SR7GAZr/na2rNMjFxSbKyC9QKhd9Y0waLVHZOoTQ22mRu7qr0Dwzperdo6bxrmi8SivZ7TJhiI3rojeh+xcn7aB2hBlJHAzvBVLQOEOfgdqCnZ0DXKE1Ozuq0W6ywiTgPVw1d3f3i9XYJ3uhLRJpMY/9WLaPsosFUWVmtVFTUH1j/R5giTB2YmNjxpU7Hx7pkXR60BvYDU6dOpUl2dpHk5ZfpJz0jnwBDS9ieNRANpg5a34QpwhRhihqgBqiBQ9fAfmDKsCzwO37rzEkuQ8IUG7hDb+AOms4ZHy0a1AA1EE0DhCkC0VEBHWGKMEWYogaoAWogJTRAmCJMEabYmKVEYxZttMhztCJQA9RAIjRAmCJMEaYIU4QpaoAaoAaogTg0QJgiTBGm4vgDJWLEwzQ4sqYGqAFqILk1QJgiTBGmCFMckVID1AA1QA3EoQHCFGGKMBXHH4ijxeQeLbJ+WD/UADWQCA0QpghThCnCFEek1AA1QA1QA3FogDBFmCJMxfEHSsSIh2lwZE0NUAPUQHJrgDBFmCJMEaY4IqUGqAFqgBqIQwOEKcIUYSqOPxBHi8k9WmT9sH6oAWogERpIJEydPpMhhUUVcup0+o77uOH60PCY2GyuHcMdFQQkMt0LaTly4UJOuBwyswoE5Yg8YFPnM2dDx2fOZkpRUYUUFVdKbl5JOPy581la5kXFFRo+LT1Xzp7L0uso58iNoRFH5G+khfvwwebWSPP8hRxJz8h7c5wtGRH7MmZk5mtY3Pd2XNHKjB7QCXEcCVMD1AA1kBIaeBdMocPF571TafoxfqNzjDwXeYwwRudphMf10lKTrK7e3dJhG+Fw3QgLWLgytyDt7X5NIzKMka4RNvI+45pxDt/GvUZ44/dx+a6urpfm5hBUnr+QLV1dQcE3oGhk5KJUVdfrMwJ4gr19Ym60SVd3r+QXlAlArLOzR5psTmkwN0lxSaVYrM1SXlGj92CD6q7uYBjOGhtt0t8/qLCFsmt3e8XpbJOmJof4/V2arsPZpvEg/Z5gn7hc7VpHgCd/oEtsdqeGzcouEo/HLwCsWGVNmGIjmhKNaCJGvUyD1hVqILk1sBNMdXi75PHjZ3Lj5qpaidrdfj1+9uylNDvaZHx8WjY3n8n1xWXpCQ7KixcfyOraXXn//Q/EYnVIZVW9PHv2vty+fU+WllZkZmZefv3r38ji4vK2Trazq0/jfv78lZgbm8Mwtbi4Ih5Pp1pGVm7dkbr6Jllf35DHj59q3pC/23fuyevXH0tdvVXGxqbk+fOXsnZ7XRBXTm6J+ANBuf/gsd43PjEt585nx+zgY3X8R3UeQOT1dSqwlJZVSWubR/MOiGpstEuH1y9nz2WqRajZEYIuu71Fqk0NCk519ZYtz2qx2qPCFCxObo9PcG9JabWm52p1S05uscJWd0+vlJWbJBDo1vgKCsulsqpOWt7AFAAN96KcAG6VVbUCELS/AcFo5UeYIkwRpqgBaoAaSAkNxIIpWHI2Hm6KxeoMd8a5uSVSW2uRubkFGRublEuTl2VycvZNx9shAB9YlcbGp2R09JLcuHFLJqdmxeFol1evXktbm08ePnyyDaTQ0eYXlGvcN2/ekt6+oR1h6u7dB2JtapH6+iZ59PipAlP/wIgMDFxUmOofGFWrzMrKbWlt88rduxsKdph+2th4LCZTY/iZonXyyXQOFiIAS0lplQCWKiprdWrP5+sUU02DdHb1SEFhmcLU2PiE9PYOiKfDr9NsAC/DCmU8EyxHg4PDarEKBvvVuoU6Q7wAM4BQW3uHWgk9Hp/09Q3I8PCoXq+oqBGXyx0uO0wnGjBVU9soDWabXjPVmMVqbZa8/BLxegPy3qno69IIU2xEU6IRpcUguS0GrB/WTyI0EAumYO148OCxVFTWaQeJaaO1tXUJ9g6ppenSpRmBlaenZ1Cvu1o7ZG7uuh6PXrwkFy9Oyurquly7tqT3dHf3S7OjPSpMlZZWa1jEDdgZGBjdBlMZmQVqWYJlCpau2jqr1NVZBdYqrOdB/END4wpTsHLB+nTz5qp4PAG1YsFKhnMPHjyShga75tMAjGT/xvQcpuMAUFjvhCk9HDda7GqpstlbwpYpWJJwDTBssdilvmF3lqn29g6d0kOcgc5uyc0rFlimAEyYOoSFq6IyNkzBamVYpszmJoUvwBTyEjndGlnWhCnCFGGKGqAGqIGU0EAsmEKnNzQ0ptYlTOG1tHh0yg7A8/Tp+zIxsTNM9fePSlNTi9xavasw5fV1S2mZSZ48eSF9fcO6kNnoWKurG/Q84v7gg9cCK5OxZgppw8IEcHv9+hOd5tsLTDVaHDI4NCZXrizI9PScPk9aet6xgqlQXYxIs6NV8411TAAqnAcgYq0SpvWMaT6si7I2OXRdFdZM4RhTgpiaizbNB2ACTJ06HVpjVlNjFntzi8IU4AyL3IPBPmlosOpUoFFvkZYpY80U1ndhKhDQB0jGGisj/NvfhCk2oinRiCZi1Ms0aF2hBpJbAzvBFDrqquoGqam1SE5Osa6lwTRfWXmNZOcU63qazKxC7SwBKHn5pXqMa1iAjM6zvKJWp++qqhrUWgKgqjaZBQCl3yazQhYsYEbciBNxYYE08hAZDouv8UYgzp8/ny0FhRVq+cAUXnZO0Zs8Feg5wAPWAqFjN54DYd7u1I/Dbzwfnh15xfHpM98v8scibzwnFoXjOuAHYXCM8ygHfPAWHtZgweqIa7BeIRzKx3hDL3R/pv5GnRrp4K09hMVUoPHGH6YHjTRxH+JAOsgPrsGyBasarkX7EKYIU4QpaoAaoAZSQgM7wVS0DvCgzvn8PdLfP6IfZ4tb1/gcVNyMJzq8HES5AEYLC8ujwlFk/IA2TP3FWi+FsIQpNqIp0YjSYpDcFgPWD+snERo4KpiK7Hh5fHjwk8xlS5giTBGmqAFqgBpICQ0Qpk4myCQDZBGm2IimRCOaiFEv06B1hRpIbg0QpghTRwVWhCnCFGGKGqAGqIGU0ABhijBFmGJjlhKNGUfuyT1yZ/2wflJZA4QpwhRhijBFmKIGqAFqgBqIQwOEKcIUYSqOP1Aqj7T4bLQkUAPUADWwOw0QpghThCnCFEek1AA1QA1QA3FogDBFmCJMxfEH4qhtd6M2lhPLiRqgBlJZA4QpwhRhijDFESk1QA1QA9RAHBogTBGmCFNx/IFSeaTFZ6MlgRqgBqiB3WmAMEWYIkwRpjgipQaoAWqAGohDA4cNU4FAr25YfBAdNjbmdbV26EbHBxEf4zhakKTTzjj+uBwt7m60yHJiOVED1EAiNHCYMIVNbjc3n0tRcdU7N8bdDdicOZspN27cEmuT80Di202aRx3GZGoQs7lJnxfP7/H4JD0jT86dz5Kenj4pLqnUawWFZTIyclE6O3ukuycEsGfOZojN5pTOrh4JBLqlvsEq5kablJRW6z1p6Xni9QUEkIrnrKyqk0Bnd3jT6dY2jwSD/dLVHRSns1VOn8nQ+001DdJoscvA4LCmhw2NEUdbe4d0dwfF7fZKTm6xuD0+zWesMiRMEaY4EqYGqAFqICU0sBNMBYNDsri4LLdW78rwyLh2pvbmVllZuS3Ly2tSX98khYUVMjV9RX8vLq3IxKXLsrp6VyYuzciZM+ny/PkruX3nnqytrYvD0S45uSV6DVDk9XZLW7tPbq3ekevXl7dZnC6k5cjFsSlN7/Llq9pB477WNq/GUVpWI1nZRTI2Pi0FheUyNXVFFq7flFu37sjQ0Jjed23hpuTmlUpf/7DMzS1o3sbGpuT0mXRxtrj12W7cWJXyiloFilgd/1Gdz84pEk+HX/OWl18qPl+nHhcWlUtHR0BcrW4FmaLiCml2uPSavdklNbWNUlVVJ23tnjAs4RksVruUV9RouPSMfAUlQBI+7W6vdHT4JTevRN47laZxA4pQVsHefkEagc4eOXU6TWz2FgFUpafnafz5BWXicrXrscPRqnXZ2GiT2rpGTSta+RGm2IimRCOaiFEv06B1hRpIbg3sBFOAjN7eYbUuPHjwWOobbPL48TMpKamWwsJyBSVrU4u8fPmRZGQWyMzleVleuS0X0nJlfX1DTCazXmu0NEtmVqG8fPmhWCwO+fTTzzSOvPwyPZeZWSBd3f1yeXZeO/FoHe/KrTvSaHGoZcrT0SkbDzc1PwWFFXL//iOpqKyTJ09eSE2NRTo6ugT5hQUHYAf4Avx5fd0KVgiHZ0EeYTUDFCIO5Dta2kd5DhYfWHiysgsVhGBdAug4W9oVegBAmVkFCjpDwyMCa1KHN6BTqzg2wMl4hiabUy1XRjjcA5CCZcvhbJXSsmqxWh2aBtL1+bsUsqxNDqmoqNH4ERfidbnc4vV2irWpWWrrLGq1wjVTjVksFrsUFJQpnMFCaaQf+U2YIkwRpqgBaoAaSAkN7ARTsBZZraEptbt3H0iLyyMvXrzSzhvTTK9efaTWJoALOsmLFydlYPCiHq+s3FFIefr0hRSXhKb5nj17X5qb23TqD5BQU2uRzz//pVqHbt++p/cDFIwOF9NRN5fX1ML0k5/8TJpsrm0wVVhUKQ8fbipMAY4Aeu3tfpmdvaZWkqtXF8Xr6xKAocXqVMvYw4dPxNXqlY2Nx/oshUUV8vjxUykpNYXTNvKQDN9V1fU6hWZM8cFy1D8wJF1dQRkcHNYpN1iNYKXCVB2m2VCOzc0uqTbVb3kmWKZgtUpLzxVYkzAlCJhqcbWH4uwOSl/fgGRm5Wt8gCtM32EqDzAFgIosk4zMfJ3qA0xhShHX6uosClR5+SVqSYus08h7CVNsRFOiEaXFILktBqwf1k8iNLAXmKqrb5KNjU2FEnOjXY8bG5vVCoROEjDVPzCqHaoBUx999LF0eLuk2mRWq1ZDgy0MU9k5xRpHZVW94Pj8hZwtHXWgs1eWl2/rGh9MF8IKhmk+LEKHxcntDojN3ipIA5apSJjCtCCALRZMVZsaBYCI9VetrV6dGjx7LmtL+pEd/1EeY63U6OiYWoiQj4YGq1RUhqYlYRHs8PoVdjDNZ1iyAKL5BaW6hgmWP8AT4ok2zYdrADAAMuK3WEKWJsAZpvkATFgLhWk9gBXCnDufrXEC3gB5sI7BIpaTWyQej18tkUVFFdLe7o1ZpoQpwhRhihqgBqiBlNDATjDlcLp1TRQ6z3a3X7B+B1aciYkZXZ9UWmrSNUuYdkMYs9kutXVWPYblB2t8AFKjFy/JzMy8VFTU6dSbz9cTns7DuiesucLHYnVs6XgBWCMjE3rNHwhq2i0tHv0GgOEeAJzf36P5AFwBLsrKa9SKFbLOtClo4T5MCQLYkCd8w2J26dJl/RjWMzxHMn5gnUJ5Im/V1fVh8MQzAqwwTWcsRsf0JsLgWmgtk1tcrR4pKzMJ1lphyhDxAB5huUK9wgJlPDfACJYonDMAF1apsrJqnfbDwnZMN2KqENav8+ez9V6d+mt1h0HPYm3eZhkz0sA3YYqNaEo0ookY9TINWleogeTWwE4wFdnxJeIYnfrCwg2d1sMid48nBGmJSJtp7A4iAW4AtXeVF4DMbncKwCtWWMIUYYowRQ1QA9RASmggmWAqVqfL87sDneNWToQpNqIp0YjSYpDcFgPWD+snERogTKUmqBwHsCJMEaYIU9QANUANpIQGCFOEqaMCL8IUG9GUaEQTMeplGrSuUAPJrQHCFGGKMEWoIdRQA9QANUANxKEBwhRhijAVxx+Io8XkHi2yflg/1AA1kAgNEKYIU4QpwhRHpNQANUANUANxaIAwRZgiTMXxB0rEiIdpcGRNDVAD1EBya4AwRZgiTBGmOCKlBqgBaoAaiEMDhCnCFGEqjj8QR4vJPVpk/bB+qAFqIBEaIEwRpghThCmOSKkBaoAaoAbi0ABhijBFmIrjD5SIEQ/T4MiaGqAGqIHk1sBBw9SZs5lSUlotF9JypLTMFHVftozM/PCmvXvpyE+dThdsrozvvdzHsMkJjHTaSYjjSJgaoAaogZTQwEHDVEFhuWxsbEqD2S6PHj2TiopaGRgYlXPns8MA1N7ul6npK+Hfu4WdtPQ8efjwiWRmFe753t2mkWzhSkqrpLi4Up/3vVNpUldnkfSMPAXKRotdMrPy9VpWdoEEAt3S2dkjDmdrGDjzC0rF5+/Sa/UNVikrN0luXrHegzoxN9oE8eK5s3MKt/yur7dKoLNbP2Vl1RqmqLhSqqrrBBseIy18ECfur6k1azrIIzY6bmy0yanTobijlSthio1oSjSitBgkt8WA9cP6SYQGdoKpyqp66e0blmDvkOQXlEl2TpG0tfv0dyAQlLPnsuT8+Wxpd/ulv39Eamot8jZMZecUi8Xi0M7WZndJX9+wXLmyoDAFK5ar1St9/SNit7dqmMhOF/DU4e3SuO3NbdpBA6YKiyrF2eKWtPRcSU/P03thCWtxeaSzq08/TU0tmpbL1SEX0nLF2uQUr69bn6euvknTqjaZNYw/ENS4ItNOluOCgjJxu32a36zsQunqCupxTm6x9PcPit3eIu+duiBFxRXS7HDpNWdLu5hqzHou2Nuv9WQ8j8Vql/KKGg2XnpEvXd1BOX0mQ4Gqra1Denr6JCOzQH+7Wt2CdM6czZC+/kHJzSsRv79Lf1uszVL6BrAQN/Lm6fBpWm63V++zN7vCoGWkH/lNmCJMEaaoAWqAGkgJDewEU+ggq6obZHh4XMbGpqShwSYfffSxWKwOmZmZVwjq6uqTmzdXpcnmkrt370uTrWWLZaq+wSbLy2tSXlGrViWbvVXDT0/Piau1Q6+ZahplcWlFHM527eSNDhewVVZeI4Cee/ceKqwBpmrrrPL06QspLqmSsrIauX//kRQWVcjLlx+Jp6NTrl5bkvV7G2KxOOXZs/cF8d9/8EgGhy5qmo8fP1M4XLt9T6EMwHj58nzYmmOknwzfAFZPh1/OX8hWy0+TzallBJiBRQjXAJWAqQ6vXwqLyqW1zaNQ63C2SWVV3ZYytTY1i7XJoeEqK+sEsAWYQl3jvpraRv3AWoXfgLLS0ipxe3xSUVEjHo9f40McwWCfBDp7FKqqTQ0aL8oMccA6BasaAC1WORKm2IimRCOaiFEv06B1hRpIbg3sBFN19VZZunFLweXGjVvSYLbJ8sqanDufJVarU26t3pF79x/KR68/lpWV2/Lpp5+Jz98TFaYAXXNzC2rx8Pl61DJ1efaqWovQ2Q4MXpQrc9fCU044B2vTxbEpjfuTn/xMgW0nmLp794Fazzo7+2RiYkYhYXV1XWCdwjXAR0FhhWxuPhObzaXxIp3q6gZ59OiJwIoWq+M/yvMApwZzk8INpu0AT8MjFyUY7JeJS5NSVV2vMNXb2y9ebyAMMIAhwwpl5B8QBADDFGGzo1UGBoe0nGCxGh+fUAtUX9+A1nG72yutrR4ZGR2TvPwShSmXy72ljGCtxFQf8mex2PUaAAzTh7jH5+vcUqdGPvBNmCJMEaaoAWqAGkgJDcSCKVgqYP2pqKwTvz8o168v6zqoly8/FCwgDwaH1AI0NXVFp8qMTvLtaT7DMgXL1dLSipy/kCPj49MCy1T/wKjMz1/XDnjm8lWdzjPiwffY+JRajDBN9+TJizBMwVr2ePOZ5s3a1CIvXrxSy1QkTI2MTOwIU5jCfPhwU3LzSgVTgrCqRa7riszHUR9junN0dCwMJtWmerX+IF+Yhmt3d0hxSaVO88Ga19nVo5YmrHOCtcpYE4Xw0ab5zp7LFI/Hp/CKMPbmFqmorBFjmi8vv1R8voCulQJcRZYHrmGtVkFhmbS1ebTMAVyAPnw6OpB+9AXwhCk2oinRiNJikNwWA9YP6ycRGogFU3hjbnb2mty5+0Cn4kZGJ9Qy9fHHn6pFCuBSXFIt+QXlcvXqolp5Ll++qtNC8/OLOj147doNAbRMXJrRtTSwbmFqbW1tXdcuwRI0e+Wa3ruwcFMXVkd21FjEfu/+I1ldvStLN1Z0eu/q1SVdgB4MDupU3sqtO4J7sZ4H6QP0Wlo6FADxDIC9RotDr2EKLCe3RBau39BOH2ul1m6va36MdVSR6SfTMYAJFh/kqbnZpRY4HGOKDgvOMZ2HBeY4B7DCdCDAymy2SSDQI/5At1RXA8JCa6kQDpAKYAIIwWKFc8b9sFyFFriH1k85nW1SV9coHd6ATofabE61SAGkCgvLFNiwRgog53C06m+TqUHM5tD6NCPuyG/CFGGKMEUNUAPUQEpoIBZMRXZ6xnHkNJ9x7iC/YcWC9erGzVX9rq4OwcNBpsG4oluJdlMugFOAm6mmIQxese7DInYsVgfcxgpDmGIjmhKNaCJGvUyD1hVqILk1sBeYwoLvQGevWkNidZDxnkeHbXzijYv37x+cElF2hCnCFGGKGqAGqIGU0MBeYCoRHSzTSG4AOsj6IUyxEU2JRpQWg+S2GLB+WD+J0ABh6uTAy0GC0EHERZgiTBGmqAFqgBpICQ0QpghTBwFG+4mDMMVGNCUa0USMepkGrSvUQHJrgDBFmNoPCB3EPYQpwhRhihqgBqiBlNAAYYowdRBgtJ84CFNsRFOiEaXFILktBqwf1k8iNECYIkztB4QO4h7CFGGKMEUNUAPUQEpogDBFmDoIMNpPHIQpNqIp0YgmYtTLNGhdoQaSWwOEKcLUfkDoIO4hTBGmCFPUADVADaSEBghThKmDAKP9xEGYYiOaEo0oLQbJbTFg/bB+EqEBwhRhaj8gdBD3EKYIU4QpaoAaoAZSQgOEKcLUQYDRfuIgTLERTYlGNBGjXqZB6wo1kNwa2C9Meb3d0ts3HHMTW3SuFotDZmevyZmzmTuGGx6ZEK+ve8cw++msec/hgiL2UCwqrpBTp9O21d3pM+mSnVO07XxknRCmCFOEKWqAGqAGUkIDO8HU6TMZkptbInn5pWEgyswq0N8DAxcFEKRh8hCmTC6kxc5uhQAABPVJREFU5WrnmZaep2E8noAsLi7L2XNZWzrVjEzEUSbZOcW6qfGlycvS1d0vGZn5Gva9U2mCMIg7PSNfwyEP6RmheHNyi/Ua0svKLtK4MrMKNY0zZzM07dy87/Mc2YHz+OAACzBVVm7SukAdo37S0/O0TvMLyqSjIyBp6SFNRCt3whQb0ZRoRGkxSG6LAeuH9ZMIDewEU8HgoNy5c19u3bojF8cmpbTMJI8fP5W5+evy/PkrhSmAzejFSblxc1UWFm4Ifq+vb8jc3HW5/+CxLN1Y2QJTACS32y+Tk7Py6NFTqa2zCmBqYHBUbt++J61tXgGM3bv3UOrqrbK+/kBWVm7r58mT5zJ/dVFevHglDke7TE1fkY2NTZmZmZenT19o/ox4kJfpmfktEBetQ+e5/cMVLI5eX6fk5pVIMNgvra1u/W1utEmzo1UmJi6J1docsw4IU4QpwhQ1QA1QAymhgVgwBeh5/vyljI1P6XTe5uYzmZ6ek9kr19QSMTJ6SWHqwoUcsdlbpSc4KI8ePZHungG5c+eenL+QLbBM3bhxawtMwepUWVknLa4OWVtblw5v144wtbp6R+obbFJX3yQbD5/olNLwyLjgg/x0dfVp/IA+tzsgDx8+eWOZKpHNJ8+lrLw2ZmdOkNo/SKHsImHK5+/ScoYFscXVrtN/Xm9gx7InTLERTYlGNBGjXqZB6wo1kNwa2AmmAFDDw+PicnWIxerU49HRSwIgMmBqYmJGxsampbd3SBAeMLW0FAKoaDBVbTKr1QkWqDt3H+haKVim+gdGZHVtXdrafDrd9+zZ+2qZglUM1ivAFK6jEx8cuigjoxMKU35/j8IUrFqAKVioikuq1FpCmIoPlt4Fm5EwBQsVwhOmCEgEJGqAGqAGTpwGYsEUOkZYfQAzk1OzakEqK69Ra1XkNN/0zJxOz2GaDyBTUVkrOh03H32ar6q6Xl69+kgXpsPyZVimYNkK9g7J/fuP9Nonn3yqELUXmGow29VChnuuLy7r511AwOv7B66dYCoru1Cn/jjNx0b1xDWqtCAktwWB9cP6OQwN7ARTWGCMNVBYLI6F57BIhRZ8l+qi8PMXcnQ6D9aInNwSXTSON7siF5hjkbm5sVkcTrd+YGXCW164Bx0uFi5jIfm589k6bYSF4/hkZRWGF6BjytFYjA74CaWbE74P57B4HWGQZ6zhQfyYaiQs7R+WdlN2585nqS7wjfDQyNlzobc3L6TlcAH6YfxpGSc7A2qAGqAGkksDO8HUbjrTd4UBLDXZWqSt3aef+vomAs57hws476qTZLnONVO0WtFqRQ1QA9RASmjgsGEqWTpu5iP5AI4wxUY0JRpRWgiSy0LA+mB9HIUGCFPJBxknBfwIU4QpwhQ1QA1QAymhAcIUYeqo4I0wxUY0JRrRoxgFM01aX6iB5NIAYYowRZgi1BBqqAFqgBqgBuLQAGGKMEWYiuMPxNFhco0OWR+sD2qAGjgKDRCmCFOEKcIUR6TUADVADVAD1AA1QA1E1cAPjmKEwjQ5MqYGqAFqgBqgBqiBVNEAYYqUHZWyU0XgfA421tQANUANUAOHrQHCFGGKMEUNUAPUADVADVADcWiAMBVH4R026TJ+jqaoAWqAGqAGqIHk1wBhijDF0Qg1QA1QA9QANUANxKEBwlQchcfRQvKPFlhHrCNqgBqgBqiBw9bA/wdrJdGc9+kMIQAAAABJRU5ErkJggg==;" vertex="1" parent="1">
          <mxGeometry x="1500" y="-340" width="1090.01" height="763.92" as="geometry" />
        </mxCell>
        <mxCell id="8DKzb_6AEsdGShowUm3d-4" value="nombre" style="ellipse;whiteSpace=wrap;html=1;" vertex="1" parent="1">
          <mxGeometry x="80" y="50" width="120" height="80" as="geometry" />
        </mxCell>
        <mxCell id="8DKzb_6AEsdGShowUm3d-5" value="apellido" style="ellipse;whiteSpace=wrap;html=1;" vertex="1" parent="1">
          <mxGeometry x="80" y="140" width="120" height="80" as="geometry" />
        </mxCell>
        <mxCell id="8DKzb_6AEsdGShowUm3d-6" value="correo_electronico" style="ellipse;whiteSpace=wrap;html=1;" vertex="1" parent="1">
          <mxGeometry x="80" y="240" width="120" height="80" as="geometry" />
        </mxCell>
        <mxCell id="8DKzb_6AEsdGShowUm3d-7" value="" style="endArrow=none;html=1;rounded=0;exitX=1;exitY=0.5;exitDx=0;exitDy=0;" edge="1" parent="1" source="8DKzb_6AEsdGShowUm3d-1" target="8DKzb_6AEsdGShowUm3d-2">
          <mxGeometry width="50" height="50" relative="1" as="geometry">
            <mxPoint x="540" y="510" as="sourcePoint" />
            <mxPoint x="590" y="460" as="targetPoint" />
          </mxGeometry>
        </mxCell>
        <mxCell id="8DKzb_6AEsdGShowUm3d-8" value="" style="endArrow=none;html=1;rounded=0;exitX=1.027;exitY=0.629;exitDx=0;exitDy=0;exitPerimeter=0;" edge="1" parent="1" source="8DKzb_6AEsdGShowUm3d-4" target="8DKzb_6AEsdGShowUm3d-2">
          <mxGeometry width="50" height="50" relative="1" as="geometry">
            <mxPoint x="250" y="110" as="sourcePoint" />
            <mxPoint x="356" y="240" as="targetPoint" />
          </mxGeometry>
        </mxCell>
        <mxCell id="8DKzb_6AEsdGShowUm3d-9" value="" style="endArrow=none;html=1;rounded=0;exitX=1;exitY=0.5;exitDx=0;exitDy=0;" edge="1" parent="1" source="8DKzb_6AEsdGShowUm3d-5" target="8DKzb_6AEsdGShowUm3d-2">
          <mxGeometry width="50" height="50" relative="1" as="geometry">
            <mxPoint x="253" y="220" as="sourcePoint" />
            <mxPoint x="320" y="246" as="targetPoint" />
          </mxGeometry>
        </mxCell>
        <mxCell id="8DKzb_6AEsdGShowUm3d-10" value="" style="endArrow=none;html=1;rounded=0;exitX=1;exitY=0.5;exitDx=0;exitDy=0;" edge="1" parent="1" source="8DKzb_6AEsdGShowUm3d-6" target="8DKzb_6AEsdGShowUm3d-2">
          <mxGeometry width="50" height="50" relative="1" as="geometry">
            <mxPoint x="250" y="300" as="sourcePoint" />
            <mxPoint x="320" y="284" as="targetPoint" />
          </mxGeometry>
        </mxCell>
        <mxCell id="8DKzb_6AEsdGShowUm3d-11" value="materias" style="rounded=0;whiteSpace=wrap;html=1;" vertex="1" parent="1">
          <mxGeometry x="540" y="410" width="120" height="60" as="geometry" />
        </mxCell>
        <mxCell id="8DKzb_6AEsdGShowUm3d-13" value="&lt;u&gt;id_materia&lt;/u&gt;" style="ellipse;whiteSpace=wrap;html=1;" vertex="1" parent="1">
          <mxGeometry x="310" y="570" width="120" height="80" as="geometry" />
        </mxCell>
        <mxCell id="8DKzb_6AEsdGShowUm3d-14" value="nombre_materia" style="ellipse;whiteSpace=wrap;html=1;" vertex="1" parent="1">
          <mxGeometry x="430" y="570" width="120" height="80" as="geometry" />
        </mxCell>
        <mxCell id="8DKzb_6AEsdGShowUm3d-15" value="grupo_materia" style="ellipse;whiteSpace=wrap;html=1;" vertex="1" parent="1">
          <mxGeometry x="550" y="570" width="120" height="80" as="geometry" />
        </mxCell>
        <mxCell id="8DKzb_6AEsdGShowUm3d-16" value="id_profesor" style="ellipse;whiteSpace=wrap;html=1;" vertex="1" parent="1">
          <mxGeometry x="670" y="570" width="120" height="80" as="geometry" />
        </mxCell>
        <mxCell id="8DKzb_6AEsdGShowUm3d-17" value="cupos" style="ellipse;whiteSpace=wrap;html=1;" vertex="1" parent="1">
          <mxGeometry x="790" y="570" width="120" height="80" as="geometry" />
        </mxCell>
        <mxCell id="8DKzb_6AEsdGShowUm3d-18" value="" style="endArrow=none;html=1;rounded=0;" edge="1" parent="1" source="8DKzb_6AEsdGShowUm3d-13" target="8DKzb_6AEsdGShowUm3d-11">
          <mxGeometry width="50" height="50" relative="1" as="geometry">
            <mxPoint x="150" y="600" as="sourcePoint" />
            <mxPoint x="200" y="550" as="targetPoint" />
          </mxGeometry>
        </mxCell>
        <mxCell id="8DKzb_6AEsdGShowUm3d-19" value="" style="endArrow=none;html=1;rounded=0;" edge="1" parent="1" source="8DKzb_6AEsdGShowUm3d-14" target="8DKzb_6AEsdGShowUm3d-11">
          <mxGeometry width="50" height="50" relative="1" as="geometry">
            <mxPoint x="160" y="610" as="sourcePoint" />
            <mxPoint x="560" y="497" as="targetPoint" />
          </mxGeometry>
        </mxCell>
        <mxCell id="8DKzb_6AEsdGShowUm3d-20" value="" style="endArrow=none;html=1;rounded=0;" edge="1" parent="1" source="8DKzb_6AEsdGShowUm3d-15" target="8DKzb_6AEsdGShowUm3d-11">
          <mxGeometry width="50" height="50" relative="1" as="geometry">
            <mxPoint x="170" y="620" as="sourcePoint" />
            <mxPoint x="560" y="499" as="targetPoint" />
          </mxGeometry>
        </mxCell>
        <mxCell id="8DKzb_6AEsdGShowUm3d-21" value="" style="endArrow=none;html=1;rounded=0;" edge="1" parent="1" source="8DKzb_6AEsdGShowUm3d-16" target="8DKzb_6AEsdGShowUm3d-11">
          <mxGeometry width="50" height="50" relative="1" as="geometry">
            <mxPoint x="180" y="630" as="sourcePoint" />
            <mxPoint x="560" y="500" as="targetPoint" />
          </mxGeometry>
        </mxCell>
        <mxCell id="8DKzb_6AEsdGShowUm3d-22" value="" style="endArrow=none;html=1;rounded=0;" edge="1" parent="1" source="8DKzb_6AEsdGShowUm3d-17" target="8DKzb_6AEsdGShowUm3d-11">
          <mxGeometry width="50" height="50" relative="1" as="geometry">
            <mxPoint x="190" y="640" as="sourcePoint" />
            <mxPoint x="560" y="502" as="targetPoint" />
          </mxGeometry>
        </mxCell>
        <mxCell id="8DKzb_6AEsdGShowUm3d-23" value="inscripciones" style="rounded=0;whiteSpace=wrap;html=1;" vertex="1" parent="1">
          <mxGeometry x="920" y="290" width="120" height="60" as="geometry" />
        </mxCell>
        <mxCell id="8DKzb_6AEsdGShowUm3d-24" value="&lt;u&gt;id_inscripcion&lt;/u&gt;" style="ellipse;whiteSpace=wrap;html=1;" vertex="1" parent="1">
          <mxGeometry x="1130" y="100" width="120" height="80" as="geometry" />
        </mxCell>
        <mxCell id="8DKzb_6AEsdGShowUm3d-26" value="id_alumno" style="ellipse;whiteSpace=wrap;html=1;" vertex="1" parent="1">
          <mxGeometry x="1130" y="200" width="120" height="80" as="geometry" />
        </mxCell>
        <mxCell id="8DKzb_6AEsdGShowUm3d-27" value="id_materia" style="ellipse;whiteSpace=wrap;html=1;" vertex="1" parent="1">
          <mxGeometry x="1130" y="290" width="120" height="80" as="geometry" />
        </mxCell>
        <mxCell id="8DKzb_6AEsdGShowUm3d-28" value="fecha_inscripcion" style="ellipse;whiteSpace=wrap;html=1;" vertex="1" parent="1">
          <mxGeometry x="1130" y="390" width="120" height="80" as="geometry" />
        </mxCell>
        <mxCell id="8DKzb_6AEsdGShowUm3d-29" value="estado" style="ellipse;whiteSpace=wrap;html=1;" vertex="1" parent="1">
          <mxGeometry x="1130" y="480" width="120" height="80" as="geometry" />
        </mxCell>
        <mxCell id="8DKzb_6AEsdGShowUm3d-30" value="" style="endArrow=none;html=1;rounded=0;" edge="1" parent="1" source="8DKzb_6AEsdGShowUm3d-24" target="8DKzb_6AEsdGShowUm3d-23">
          <mxGeometry width="50" height="50" relative="1" as="geometry">
            <mxPoint x="1070" y="510" as="sourcePoint" />
            <mxPoint x="930" y="390" as="targetPoint" />
          </mxGeometry>
        </mxCell>
        <mxCell id="8DKzb_6AEsdGShowUm3d-31" value="" style="endArrow=none;html=1;rounded=0;" edge="1" parent="1" source="8DKzb_6AEsdGShowUm3d-26" target="8DKzb_6AEsdGShowUm3d-23">
          <mxGeometry width="50" height="50" relative="1" as="geometry">
            <mxPoint x="1158" y="163" as="sourcePoint" />
            <mxPoint x="1020" y="300" as="targetPoint" />
          </mxGeometry>
        </mxCell>
        <mxCell id="8DKzb_6AEsdGShowUm3d-32" value="" style="endArrow=none;html=1;rounded=0;" edge="1" parent="1" source="8DKzb_6AEsdGShowUm3d-27" target="8DKzb_6AEsdGShowUm3d-23">
          <mxGeometry width="50" height="50" relative="1" as="geometry">
            <mxPoint x="1139" y="270" as="sourcePoint" />
            <mxPoint x="1050" y="306" as="targetPoint" />
          </mxGeometry>
        </mxCell>
        <mxCell id="8DKzb_6AEsdGShowUm3d-33" value="" style="endArrow=none;html=1;rounded=0;" edge="1" parent="1" source="8DKzb_6AEsdGShowUm3d-28" target="8DKzb_6AEsdGShowUm3d-23">
          <mxGeometry width="50" height="50" relative="1" as="geometry">
            <mxPoint x="1141" y="352" as="sourcePoint" />
            <mxPoint x="1050" y="339" as="targetPoint" />
          </mxGeometry>
        </mxCell>
        <mxCell id="8DKzb_6AEsdGShowUm3d-34" value="" style="endArrow=none;html=1;rounded=0;" edge="1" parent="1" source="8DKzb_6AEsdGShowUm3d-29" target="8DKzb_6AEsdGShowUm3d-23">
          <mxGeometry width="50" height="50" relative="1" as="geometry">
            <mxPoint x="1156" y="433" as="sourcePoint" />
            <mxPoint x="1038" y="360" as="targetPoint" />
          </mxGeometry>
        </mxCell>
        <mxCell id="8DKzb_6AEsdGShowUm3d-36" value="alumnos" style="rounded=0;whiteSpace=wrap;html=1;" vertex="1" parent="1">
          <mxGeometry x="960" y="750" width="120" height="60" as="geometry" />
        </mxCell>
        <mxCell id="8DKzb_6AEsdGShowUm3d-37" value="&lt;u&gt;id_alumno&lt;/u&gt;" style="ellipse;whiteSpace=wrap;html=1;" vertex="1" parent="1">
          <mxGeometry x="670" y="900" width="120" height="80" as="geometry" />
        </mxCell>
        <mxCell id="8DKzb_6AEsdGShowUm3d-38" value="nombre_alumno" style="ellipse;whiteSpace=wrap;html=1;" vertex="1" parent="1">
          <mxGeometry x="950" y="900" width="120" height="80" as="geometry" />
        </mxCell>
        <mxCell id="8DKzb_6AEsdGShowUm3d-39" value="carnet_alumno" style="ellipse;whiteSpace=wrap;html=1;" vertex="1" parent="1">
          <mxGeometry x="810" y="900" width="120" height="80" as="geometry" />
        </mxCell>
        <mxCell id="8DKzb_6AEsdGShowUm3d-40" value="apellido_alumno" style="ellipse;whiteSpace=wrap;html=1;" vertex="1" parent="1">
          <mxGeometry x="1090" y="900" width="120" height="80" as="geometry" />
        </mxCell>
        <mxCell id="8DKzb_6AEsdGShowUm3d-41" value="edad_alumno" style="ellipse;whiteSpace=wrap;html=1;" vertex="1" parent="1">
          <mxGeometry x="1220" y="900" width="120" height="80" as="geometry" />
        </mxCell>
        <mxCell id="8DKzb_6AEsdGShowUm3d-42" value="" style="endArrow=none;html=1;rounded=0;" edge="1" parent="1" source="8DKzb_6AEsdGShowUm3d-37" target="8DKzb_6AEsdGShowUm3d-36">
          <mxGeometry width="50" height="50" relative="1" as="geometry">
            <mxPoint x="874" y="880" as="sourcePoint" />
            <mxPoint x="730" y="743" as="targetPoint" />
          </mxGeometry>
        </mxCell>
        <mxCell id="8DKzb_6AEsdGShowUm3d-43" value="" style="endArrow=none;html=1;rounded=0;" edge="1" parent="1" source="8DKzb_6AEsdGShowUm3d-38" target="8DKzb_6AEsdGShowUm3d-36">
          <mxGeometry width="50" height="50" relative="1" as="geometry">
            <mxPoint x="843" y="912" as="sourcePoint" />
            <mxPoint x="984" y="820" as="targetPoint" />
          </mxGeometry>
        </mxCell>
        <mxCell id="8DKzb_6AEsdGShowUm3d-44" value="" style="endArrow=none;html=1;rounded=0;" edge="1" parent="1" source="8DKzb_6AEsdGShowUm3d-39" target="8DKzb_6AEsdGShowUm3d-36">
          <mxGeometry width="50" height="50" relative="1" as="geometry">
            <mxPoint x="969" y="912" as="sourcePoint" />
            <mxPoint x="1015" y="820" as="targetPoint" />
          </mxGeometry>
        </mxCell>
        <mxCell id="8DKzb_6AEsdGShowUm3d-45" value="" style="endArrow=none;html=1;rounded=0;" edge="1" parent="1" source="8DKzb_6AEsdGShowUm3d-40" target="8DKzb_6AEsdGShowUm3d-36">
          <mxGeometry width="50" height="50" relative="1" as="geometry">
            <mxPoint x="1096" y="893" as="sourcePoint" />
            <mxPoint x="1049" y="820" as="targetPoint" />
          </mxGeometry>
        </mxCell>
        <mxCell id="8DKzb_6AEsdGShowUm3d-46" value="" style="endArrow=none;html=1;rounded=0;" edge="1" parent="1" source="8DKzb_6AEsdGShowUm3d-41" target="8DKzb_6AEsdGShowUm3d-36">
          <mxGeometry width="50" height="50" relative="1" as="geometry">
            <mxPoint x="1207" y="903" as="sourcePoint" />
            <mxPoint x="1077" y="820" as="targetPoint" />
          </mxGeometry>
        </mxCell>
        <mxCell id="8DKzb_6AEsdGShowUm3d-47" value="calificaciones" style="rounded=0;whiteSpace=wrap;html=1;" vertex="1" parent="1">
          <mxGeometry x="920" y="-100" width="120" height="60" as="geometry" />
        </mxCell>
        <mxCell id="8DKzb_6AEsdGShowUm3d-48" value="&lt;u&gt;id_calificacion&lt;/u&gt;" style="ellipse;whiteSpace=wrap;html=1;" vertex="1" parent="1">
          <mxGeometry x="720" y="-320" width="120" height="80" as="geometry" />
        </mxCell>
        <mxCell id="8DKzb_6AEsdGShowUm3d-49" value="id_inscripcion" style="ellipse;whiteSpace=wrap;html=1;" vertex="1" parent="1">
          <mxGeometry x="860" y="-320" width="120" height="80" as="geometry" />
        </mxCell>
        <mxCell id="8DKzb_6AEsdGShowUm3d-50" value="calificacion_final" style="ellipse;whiteSpace=wrap;html=1;" vertex="1" parent="1">
          <mxGeometry x="1010" y="-320" width="120" height="80" as="geometry" />
        </mxCell>
        <mxCell id="8DKzb_6AEsdGShowUm3d-51" value="fecha_calificacion" style="ellipse;whiteSpace=wrap;html=1;" vertex="1" parent="1">
          <mxGeometry x="1160" y="-320" width="120" height="80" as="geometry" />
        </mxCell>
        <mxCell id="8DKzb_6AEsdGShowUm3d-53" value="" style="endArrow=none;html=1;rounded=0;" edge="1" parent="1" source="8DKzb_6AEsdGShowUm3d-47" target="8DKzb_6AEsdGShowUm3d-48">
          <mxGeometry width="50" height="50" relative="1" as="geometry">
            <mxPoint x="1150" as="sourcePoint" />
            <mxPoint x="1200" y="-50" as="targetPoint" />
          </mxGeometry>
        </mxCell>
        <mxCell id="8DKzb_6AEsdGShowUm3d-54" value="" style="endArrow=none;html=1;rounded=0;" edge="1" parent="1" source="8DKzb_6AEsdGShowUm3d-47" target="8DKzb_6AEsdGShowUm3d-49">
          <mxGeometry width="50" height="50" relative="1" as="geometry">
            <mxPoint x="981" y="-110" as="sourcePoint" />
            <mxPoint x="903" y="-233" as="targetPoint" />
          </mxGeometry>
        </mxCell>
        <mxCell id="8DKzb_6AEsdGShowUm3d-55" value="" style="endArrow=none;html=1;rounded=0;" edge="1" parent="1" source="8DKzb_6AEsdGShowUm3d-47" target="8DKzb_6AEsdGShowUm3d-50">
          <mxGeometry width="50" height="50" relative="1" as="geometry">
            <mxPoint x="1005" y="-110" as="sourcePoint" />
            <mxPoint x="1024" y="-230" as="targetPoint" />
          </mxGeometry>
        </mxCell>
        <mxCell id="8DKzb_6AEsdGShowUm3d-56" value="" style="endArrow=none;html=1;rounded=0;" edge="1" parent="1" source="8DKzb_6AEsdGShowUm3d-47" target="8DKzb_6AEsdGShowUm3d-51">
          <mxGeometry width="50" height="50" relative="1" as="geometry">
            <mxPoint x="1027" y="-110" as="sourcePoint" />
            <mxPoint x="1139" y="-236" as="targetPoint" />
          </mxGeometry>
        </mxCell>
        <mxCell id="8DKzb_6AEsdGShowUm3d-57" value="tienen" style="rhombus;whiteSpace=wrap;html=1;" vertex="1" parent="1">
          <mxGeometry x="910" y="70" width="110" height="90" as="geometry" />
        </mxCell>
        <mxCell id="8DKzb_6AEsdGShowUm3d-58" value="" style="endArrow=none;html=1;rounded=0;entryX=0.5;entryY=1;entryDx=0;entryDy=0;" edge="1" parent="1" source="8DKzb_6AEsdGShowUm3d-23" target="8DKzb_6AEsdGShowUm3d-57">
          <mxGeometry width="50" height="50" relative="1" as="geometry">
            <mxPoint x="930" y="349" as="sourcePoint" />
            <mxPoint x="670" y="431" as="targetPoint" />
          </mxGeometry>
        </mxCell>
        <mxCell id="8DKzb_6AEsdGShowUm3d-59" value="" style="endArrow=none;html=1;rounded=0;entryX=0.5;entryY=0;entryDx=0;entryDy=0;" edge="1" parent="1" source="8DKzb_6AEsdGShowUm3d-47" target="8DKzb_6AEsdGShowUm3d-57">
          <mxGeometry width="50" height="50" relative="1" as="geometry">
            <mxPoint x="987" y="300" as="sourcePoint" />
            <mxPoint x="975" y="160" as="targetPoint" />
          </mxGeometry>
        </mxCell>
        <mxCell id="8DKzb_6AEsdGShowUm3d-60" value="tienen" style="rhombus;whiteSpace=wrap;html=1;" vertex="1" parent="1">
          <mxGeometry x="760" y="370" width="110" height="90" as="geometry" />
        </mxCell>
        <mxCell id="8DKzb_6AEsdGShowUm3d-61" value="" style="endArrow=none;html=1;rounded=0;entryX=1;entryY=0.5;entryDx=0;entryDy=0;" edge="1" parent="1" source="8DKzb_6AEsdGShowUm3d-23" target="8DKzb_6AEsdGShowUm3d-60">
          <mxGeometry width="50" height="50" relative="1" as="geometry">
            <mxPoint x="987" y="300" as="sourcePoint" />
            <mxPoint x="860" y="280" as="targetPoint" />
          </mxGeometry>
        </mxCell>
        <mxCell id="8DKzb_6AEsdGShowUm3d-62" value="" style="endArrow=none;html=1;rounded=0;exitX=0;exitY=0.5;exitDx=0;exitDy=0;" edge="1" parent="1" source="8DKzb_6AEsdGShowUm3d-60" target="8DKzb_6AEsdGShowUm3d-11">
          <mxGeometry width="50" height="50" relative="1" as="geometry">
            <mxPoint x="955" y="360" as="sourcePoint" />
            <mxPoint x="880" y="425" as="targetPoint" />
          </mxGeometry>
        </mxCell>
        <mxCell id="8DKzb_6AEsdGShowUm3d-63" value="" style="endArrow=none;html=1;rounded=0;entryX=0.5;entryY=1;entryDx=0;entryDy=0;" edge="1" parent="1" source="8DKzb_6AEsdGShowUm3d-36" target="8DKzb_6AEsdGShowUm3d-64">
          <mxGeometry width="50" height="50" relative="1" as="geometry">
            <mxPoint x="1445" y="430" as="sourcePoint" />
            <mxPoint x="1370" y="495" as="targetPoint" />
          </mxGeometry>
        </mxCell>
        <mxCell id="8DKzb_6AEsdGShowUm3d-64" value="poseen" style="rhombus;whiteSpace=wrap;html=1;" vertex="1" parent="1">
          <mxGeometry x="965" y="520" width="110" height="90" as="geometry" />
        </mxCell>
        <mxCell id="8DKzb_6AEsdGShowUm3d-65" value="" style="endArrow=none;html=1;rounded=0;exitX=0.5;exitY=0;exitDx=0;exitDy=0;" edge="1" parent="1" source="8DKzb_6AEsdGShowUm3d-64" target="8DKzb_6AEsdGShowUm3d-23">
          <mxGeometry width="50" height="50" relative="1" as="geometry">
            <mxPoint x="1030" y="760" as="sourcePoint" />
            <mxPoint x="1030" y="620" as="targetPoint" />
          </mxGeometry>
        </mxCell>
        <mxCell id="8DKzb_6AEsdGShowUm3d-66" value="tienen" style="rhombus;whiteSpace=wrap;html=1;" vertex="1" parent="1">
          <mxGeometry x="360" y="275" width="110" height="90" as="geometry" />
        </mxCell>
        <mxCell id="8DKzb_6AEsdGShowUm3d-67" value="" style="endArrow=none;html=1;rounded=0;entryX=0.5;entryY=0;entryDx=0;entryDy=0;" edge="1" parent="1" source="8DKzb_6AEsdGShowUm3d-2" target="8DKzb_6AEsdGShowUm3d-66">
          <mxGeometry width="50" height="50" relative="1" as="geometry">
            <mxPoint x="987" y="300" as="sourcePoint" />
            <mxPoint x="975" y="170" as="targetPoint" />
          </mxGeometry>
        </mxCell>
        <mxCell id="8DKzb_6AEsdGShowUm3d-69" value="" style="endArrow=none;html=1;rounded=0;entryX=0.5;entryY=1;entryDx=0;entryDy=0;" edge="1" parent="1" source="8DKzb_6AEsdGShowUm3d-11" target="8DKzb_6AEsdGShowUm3d-66">
          <mxGeometry width="50" height="50" relative="1" as="geometry">
            <mxPoint x="987" y="300" as="sourcePoint" />
            <mxPoint x="975" y="170" as="targetPoint" />
          </mxGeometry>
        </mxCell>
        <mxCell id="8DKzb_6AEsdGShowUm3d-70" value="1" style="text;html=1;align=center;verticalAlign=middle;resizable=0;points=[];autosize=1;strokeColor=none;fillColor=none;" vertex="1" parent="1">
          <mxGeometry x="405" y="208" width="30" height="30" as="geometry" />
        </mxCell>
        <mxCell id="8DKzb_6AEsdGShowUm3d-71" value="n" style="text;html=1;align=center;verticalAlign=middle;resizable=0;points=[];autosize=1;strokeColor=none;fillColor=none;" vertex="1" parent="1">
          <mxGeometry x="515" y="378" width="30" height="30" as="geometry" />
        </mxCell>
        <mxCell id="8DKzb_6AEsdGShowUm3d-72" value="1" style="text;html=1;align=center;verticalAlign=middle;resizable=0;points=[];autosize=1;strokeColor=none;fillColor=none;" vertex="1" parent="1">
          <mxGeometry x="495" y="408" width="30" height="30" as="geometry" />
        </mxCell>
        <mxCell id="8DKzb_6AEsdGShowUm3d-73" value="n" style="text;html=1;align=center;verticalAlign=middle;resizable=0;points=[];autosize=1;strokeColor=none;fillColor=none;" vertex="1" parent="1">
          <mxGeometry x="375" y="208" width="30" height="30" as="geometry" />
        </mxCell>
        <mxCell id="8DKzb_6AEsdGShowUm3d-74" value="1" style="text;html=1;align=center;verticalAlign=middle;resizable=0;points=[];autosize=1;strokeColor=none;fillColor=none;" vertex="1" parent="1">
          <mxGeometry x="665" y="398" width="30" height="30" as="geometry" />
        </mxCell>
        <mxCell id="8DKzb_6AEsdGShowUm3d-75" value="n" style="text;html=1;align=center;verticalAlign=middle;resizable=0;points=[];autosize=1;strokeColor=none;fillColor=none;" vertex="1" parent="1">
          <mxGeometry x="890" y="350" width="30" height="30" as="geometry" />
        </mxCell>
        <mxCell id="8DKzb_6AEsdGShowUm3d-76" value="1" style="text;html=1;align=center;verticalAlign=middle;resizable=0;points=[];autosize=1;strokeColor=none;fillColor=none;" vertex="1" parent="1">
          <mxGeometry x="915" y="378" width="30" height="30" as="geometry" />
        </mxCell>
        <mxCell id="8DKzb_6AEsdGShowUm3d-77" value="n" style="text;html=1;align=center;verticalAlign=middle;resizable=0;points=[];autosize=1;strokeColor=none;fillColor=none;" vertex="1" parent="1">
          <mxGeometry x="665" y="428" width="30" height="30" as="geometry" />
        </mxCell>
        <mxCell id="8DKzb_6AEsdGShowUm3d-78" value="1" style="text;html=1;align=center;verticalAlign=middle;resizable=0;points=[];autosize=1;strokeColor=none;fillColor=none;" vertex="1" parent="1">
          <mxGeometry x="975" y="248" width="30" height="30" as="geometry" />
        </mxCell>
        <mxCell id="8DKzb_6AEsdGShowUm3d-79" value="n" style="text;html=1;align=center;verticalAlign=middle;resizable=0;points=[];autosize=1;strokeColor=none;fillColor=none;" vertex="1" parent="1">
          <mxGeometry x="985" y="-32" width="30" height="30" as="geometry" />
        </mxCell>
        <mxCell id="8DKzb_6AEsdGShowUm3d-80" value="1" style="text;html=1;align=center;verticalAlign=middle;resizable=0;points=[];autosize=1;strokeColor=none;fillColor=none;" vertex="1" parent="1">
          <mxGeometry x="945" y="-32" width="30" height="30" as="geometry" />
        </mxCell>
        <mxCell id="8DKzb_6AEsdGShowUm3d-81" value="n" style="text;html=1;align=center;verticalAlign=middle;resizable=0;points=[];autosize=1;strokeColor=none;fillColor=none;" vertex="1" parent="1">
          <mxGeometry x="945" y="248" width="30" height="30" as="geometry" />
        </mxCell>
        <mxCell id="8DKzb_6AEsdGShowUm3d-82" value="n" style="text;html=1;align=center;verticalAlign=middle;resizable=0;points=[];autosize=1;strokeColor=none;fillColor=none;" vertex="1" parent="1">
          <mxGeometry x="985" y="358" width="30" height="30" as="geometry" />
        </mxCell>
        <mxCell id="8DKzb_6AEsdGShowUm3d-84" value="n" style="text;html=1;align=center;verticalAlign=middle;resizable=0;points=[];autosize=1;strokeColor=none;fillColor=none;" vertex="1" parent="1">
          <mxGeometry x="985" y="710" width="30" height="30" as="geometry" />
        </mxCell>
        <mxCell id="8DKzb_6AEsdGShowUm3d-85" value="1" style="text;html=1;align=center;verticalAlign=middle;resizable=0;points=[];autosize=1;strokeColor=none;fillColor=none;" vertex="1" parent="1">
          <mxGeometry x="955" y="360" width="30" height="30" as="geometry" />
        </mxCell>
        <mxCell id="8DKzb_6AEsdGShowUm3d-86" value="1" style="text;html=1;align=center;verticalAlign=middle;resizable=0;points=[];autosize=1;strokeColor=none;fillColor=none;" vertex="1" parent="1">
          <mxGeometry x="1030" y="710" width="30" height="30" as="geometry" />
        </mxCell>
        <mxCell id="h6udd_h5KtsEGIipjdYG-1" value="" style="shape=image;verticalLabelPosition=bottom;labelBackgroundColor=default;verticalAlign=top;aspect=fixed;imageAspect=0;image=data:image/png,iVBORw0KGgoAAAANSUhEUgAAA78AAAHdCAYAAADVQ87iAAAgAElEQVR4Aey9O7LzSrK2tx2FZGzOpY1l7Wkcg+6xvr/79LlZjNAo1BINjYNOD+IPHkuW4jgaQs8AiqzCCySSWQBIgouX9eyIb+NSVVmZWQ+AelFc5G///u//3v3bv/1b+fev//qv3V//+tfuX/7lX7p/+qd/6v7zP/+Tf+QABmAABmAABmAABmBgcwZsrvnnP/+5+8tf/lLmnzYP1ZzU5qf27z/+4z+Gf8xLmZfDAAxkDOg+ofuG7iNe29q95tevX91vVsh/ZIAMkAEyQAbIABkgA2SADJABMkAGPjkDiN9PHl1iIwNkgAyQATJABsgAGSADZIAMkIGSAcQvIJABMkAGyAAZIANkgAyQATJABsjAx2cA8fvxQ0yAZIAMkAEyQAbIABkgA2SADJABMoD4hQEyQAbIABkgA2SADJABMkAGyAAZ+PgMIH4/fogJkAyQATJABsgAGSADZIAMkAEyQAYQvzBABsgAGSADZIAMkAEyQAbIABkgAx+fAcTvxw8xAZIBMkAGyAAZIANkgAyQATJABsjAb/bjv0v//R//1//d3fNvyT7lZIAMkAEyQAbIABkgA2SADJABMkAGHpmB1eL3//l//79u6d+f//f/s9TxWxPN/EcGyAAZIANkgAyQATJABsgAGSADj8nAb7/91q3595jeb7dqPp/P56YBK7M6W/23Wvz+z/N/dbf8a4rfv//qfvvjb91/u0j+/uu37o+/+TNdZ+d++/V3V8t2/979sgG+OF+r/fff/uh+++2Prprq6w5A6Lyzk5bFLn9VoILPodbsocUyddl88/5YaL9qXP/9t+6PWDZrXYWJTRWxJQNkgAyQATJABsgAGSADZODjMrBGIK6p892JMXH7v/yv/1sqgOfKbvVztfi1ZN3yryl+i85zYtDEXhSW5dyv7tcfQSAW8ftH98fFeUuDxK7aTMVgEcZDP3NlPqXV5lS4+vKV+xK2ql4E7lTwm3/xBYCqr9tOY1rXhlpkgAyQATJABsgAGSADZIAMvGsG1gjbNXWeEX8mcrNzW/j2VPHbOcF7uSradRKC2o4BV4H361ciFIvA/OVWVKMY9Md+36zHY/XYOq/ylVsXr7WwuH797W/dH4Oq/u/ub6mgX2m/VNvI12u6pC4ZIANkgAyQATJABsgAGSADT8vAGmG7ps6zAvBi1+9v7c/V4lcOWPL8Pzvvj7U/t/JrbYqw/eOP5CPMTggG0TiKVBN6v7rxQ9Fq4wWg37ce/bHfj2V2bP9ZnTHWYVW2X7VVnIN+7e2bMP9t4pvZkn9+3+wrhrgfVq//1n/0+rfpanF5idD7+Mff/uaEf0lw94fzX35OXzaEPFhspaL5O8autiUt/I8MkAEyQAbIABkgA2SADJCBl8iAaZKl/9bUWbLxyHKJ3tbHoLfo+yrxax1K7Gk/blWu7ZL4nYpRF9JE8HrRaHVGsTYRcUObsdzXtZYmtse/Nfb1YpnzxfVXz1q78JHt4e9za9kgkr0Z83z4u9+/d7/6j1///Vcvcicfi/a+VZvD3zhbvYlgHn0p8QVfBtFaBHvS199/lY+Qy+fyQsL+YHriTwiEQzJABsgAGSADZIAMkAEy8IEZkI5Z2r5S6Obr0n9r6izZeGT5S4vfCIMSEc8vid8iBn9dfvnVIMB6w0XUDSrOCcNB8AZhGQTg6JdWWc1wLyqHlVFfpohUT6uwWk2d1p2I2qFvb6Pfl6DUthfkJjynMbsYU/Hd++Pirz24dkXsNvx07Yr4/rv+5tq9aCjtwypzEhKnyAAZIANkgAyQATJABsgAGXheBtYI2zV1nhWBhK9t/f7W/my28qtkjiKzflx2VvyaACyrn/XjtYO2vRCl+uithJwTePoo8SDeLEW+3O/H9M2V+bqh3pyonPTtbfT7vej8u/29rz6vbed+/S38va/v0++bHXfc2xu/IzuUDSvEtf9RpEvkagXajn91f7+w16+I+5XuJCxOkQEyQAbIABkgA2SADJABMvCcDEiLzfW+ps5c+0eVZWI3O7dF/1eJX5+wKHJVpq05Z/tt8Svx1YdhoktCbRDFPkQvkJ3AsypWf/J3sL7c73t7peH072Nj8XAcbdjx+FHj+je3mTAfDLidGsf4U0xWVO2NH2XWOa02Z/37stGXskI+rDzP+Tn+vbX/uPOvX7/Sb5uerkq7cNglA2SADJABMkAGyAAZIANk4KkZ8Bqs5ciaOq22jzo/J3Lnym7152rxa0m75l9L/NoK5PA3rL33OmdbCTIf2PjR5ygG+1XLobIv9/tDBfV4o/jVR5+VCwlRMzvXX+22xDH83FI9p9h7x4KdaDMc9+LfxmX+C6+8n4rBnSsvINyxszsV5qOX7JEBMkAGyAAZIANkgAyQATLw3Ays1WfP9fKyd/PbRG7rPyuzOlv99zTxu1UA2CEDZIAMkAEyQAbIABkgA2SADJABMrCUgdXi11Zwb/235ATlZIAMkAEyQAbIABkgA2SADJABMkAGHpmBVeL3kQ5gmwyQATJABsgAGSADZIAMkAEyQAbIwKMzgPh9dIaxTwbIABkgA2SADJABMkAGyAAZIANPzwDi9+lDgANkgAyQATJABsgAGSADZIAMkAEy8OgMIH4fnWHskwEyQAbIABkgA2SADJABMkAGyMDTM4D4ffoQ4AAZIANkgAyQATJABsgAGSADZIAMPDoDv/31r399dB/YJwNkgAyQATJABsgAGSADZIAMkAEy8NQM/PbnP//lqQ7QORkgA2SADJABMkAGyAAZIANkgAyQgUdn4Lf/8T/+/Og+sE8GyAAZIANkgAyQATJABsgAGSADZOCpGUD8PjX9dE4GyAAZIANkgAyQATJABsgAGSAD35GBIn5///33jn/kAAZgAAZgAAZgAAZgAAZgAAZg4BUZMHH8j3/8465/iF+EPy8+YAAGYAAGYAAGYAAGYAAGYOClGUD8AuhLA/qKb4zwiTeZMAADMAADMAADMAADMPB+DCB+Eb+IXxiAARiAARiAARiAARiAARj4eAYQv0D+8ZDzVu793soxZowZDMAADMAADMAADMDA1gwgfhG/iF8YgAEYgAEYgAEYgAEYgAEY+HgGEL9A/vGQb/3GCHu8hYQBGIABGIABGIABGICB92NgSfz+8z//8+I3QfNtzwhoBDQMwAAMwAAMwAAMwAAMwAAMvDQDc+LXhK/+zf0cEuIXyF8act7Kvd9bOcaMMYMBGIABGIABGIABGNiagZb4lej125YARvwifhG/MAADMAADMAADMAADMAADMPDSDGTiNwreeBxFMOIXyF8a8q3fGGGPt5AwAAMwAAMwAAMwAAMw8H4MzIlfL3IlgP057SN+Eb+IXxiAARiAARiAARiAARiAARh4aQZa4lfC1m9NAPtj7SN+gfylIeet3Pu9lWPMGDMYgAEYgAEYgAEYgIGtGcjEr0Tt2i3iF/GL+IUBGIABGIABGIABGIABGICBl2YA8QugLw3o1m97sMcbRBiAARiAARiAARiAARj4mQwgfhG/iF8YgAEYgAEYgAEYgAEYgAEY+HgGEL9A/vGQ82bvZ77ZY9wZdxiAARiAARiAARiAAc/AJuL3L3/5FwQUIhoGYAAGYAAGYAAGYAAGYAAGYOBlGTDx+1//9V83/7MvxfoN8csbFf9GhX14gAEYgAEYgAEYgAEYgAEYeDUGPk787nZf3eF07s6nQ/e1273sW4dbQfj0+G7Ni2+3+zp0p/O5O/f/Toevt+GA8b3/IfHK47/l+O72x4+9z/nrmf37rwlySA5hAAZgAAZgoDKwqfgdJnZ3CI/98dzNiZWl8sEHxO/bCD5/MS6Nr6+b7e92++54PnfH/Xu++HgWv1+HU3c+n7rD15i3Iq7iOb1YCNeX8u6vXW9ziMvdG87nY7fvX1AtlWdjnZ2TH989/i1uSw6O++FaHOIM+ctiWTqH+GUis8QI5TACAzAAAzAAA1MGNhO/mtT5ye8tyW5NImVrqVz12E4H+l3yce/41lW/UVS9S9yv4KflXp+YaIlIE3Onw747nIJQNlF8OnWnXtTV+4Ed13q6P3hRWvrrBfBS+dr8PGv8o8iVv63zKr9ni/h9z3vcPWNOW8YcBmAABmAABu5jYEPxu27FrU54+4+kutWPMkmcrAr1dfpVk6VyA2FSx622WNk4ua5+1o/Ehgm8PjId/PAT9iXgWvEt9V8n7cGfsso2npuLT/Hbywdfz7+MkA/6OHC28nbc5/kpE+3joX6kvKysqt7on/lwa/ze59G/c3cO47iU/znxMxf/mvzN9S3bnpUoTlTHx+frT3IQ4lbb1viYb6rj7du+72M+hjqmxkwZx6YPu8LYhK0ifg/d4Vh5sHE4OpEs37wvnvml8jm/fdmzxr+MXciX+WXnlad7x9fsTa4vu0+5e6hyOI7/+BKo5Z/Zk3+X7dez48eA/fseyuSP/MEADMAADMDA4xjYTPzaIGli5ie4fvDihDoey4YmY76t9v1kTefiNpvojRO7UazFet4f1Z/zJfbr21uZP5Y9/9FS37/KfX+l3E1u1Z9vp3O2LefdhDgTFy376r/pn/19YS+kSlzl47D176s13j7ea+NXHGbD+6jzS9sh9vDiQgJf8XnbMb+DDa1ehpcPcz7IvnJhdaP4LfYTgRTtZvVkvzU+ZsPnX/V9vLGf7Lj4XHI4Xieq54VljK2UWd72xzJ+X4djd/ga+ZA/k/y4/C6Vy4fWdhi7Z42/XR/92JovynvG8xbja3nwY6D8qV8rL/2I5cbfB5t/GpPMr1a+Of+4hzK5JbcwAAMwAAMw8DgGNhW/NlDj5Hm6alc/RjmdUPvJtAY5myyqzLZL5VYnm8RpcqiJntXLJo++PLPjffH7S/Et9T/4rclqvwrt/VF/Lb/K+b691fU+ZbmelCf9TfLjJs/qXzHZhNvbkp++T9X18Xj7arNmfFU32/o+fXl2Pvo8lz9vK9tfE1+x7/7ONbNj55RfX75kPyvP7Hib2b7sSMj5Ot5ezN04lvvueDp2x6N94dy8+LWx1sql+vV8+HLvx9x+Ns5WPzsfYyjxNa6fuT6L/eH6+Cqr3/r4t8XgY7K6Po+ym8U/5nSXX19Dn7vF+Er8fWzWf71mx/EZ/FrBp3xm+7gHM7kltzAAAzAAAzDwGAY2F78aqDqxdJPbssozfgPv+NG8qSBeEj9L5db/LZNLa1cm2/3qjSajfiVFsWXbOrluxyd7fiLsJ7dms+asflQxm6yr3yw+K2udL7bdRFl2vE9+fyh3bbyv6kdtykR6YXxVdy5+63fN+Mq/bNvKm/df7aJPikvl12yjLWub9Vn60OpkYxU482ON/Xv4Vazev8lYOSGrun6sSqx9PDrvfdb+eN3Hl2NViLXK1efS9mnjr2vFroPjvtv3H/+2XPg8mv+3jG8Wl+fL7ytHyrn1P95bTJz7lxPT+68f/+wFiGyzfcwDmbySVxiAARiAARh4LAMPE782cHXCVidXcZWlNbCaON9abu1umVxaO+v71sn3Unx+IqrYsgmrJsteTKi+tll8VtY6b2Xp5Ll8M7LGZ7oKVNpoQr/bTYSc+lFMrZVf+VtsJeKpFf/aFw7evvazOEv/RZyPfwNZfbK/cR0n/4pLtq7ZKhde6GTxyabqZwIj80P15+zfw2/JR/8Co4glG3u3CljzGq4PE/H6pILVT8T8wHMy/spF6Xuh3Ned23/a+Iuv/bGIXRv77IvBzPdbxjeLq9hR/tW/+3k3f08axG/5W2z7m27j3vifXhPKrXjLxlR12D724Ux+yS8MwAAMwAAMbM/AQ8Wvn5zZ4JXJeTJB9gMb2/gy218qH+qEfjSZa4mHYXLoJo+x76XjufiW+pdtiV6tHOm835YchPisvHXeytS/F5bFX02eE/HhxZvfVz/R5hbxrxlfn4u4n4mENfFbHcUVba499vEPYrHPb2aj1V92Xrl+FL+y78XOhA/3IkSx1Bjry4PMZ6tnNurLkcuXK7JjW/Xv4/Pla/efNf7KxenUf3Kjf7Gkb7v2/me5yuL315zKdf2WMv/yob9+VW79TcavlJ+64/E0ivPjcfh2bu+f9nM/9UV3uWhWW7bbP6zJKTmFARiAARiAgfsZ2Ez8DpN9faTTTcw0UJrAza2uXtQJIq9VfnFefvTtVe4n135yaT6WyZ7aaRv6VyzZVn1k8alsrn+zqXpaUVM/w3n5pa3zL5usqn21rYlrv4LnhJnst/zzuVI/aqMJt443iT+Jz8fS2m+Jn6X4rVxxtWwvnZ9eA8dub6tx4eXCJDdJ/iflloNv4rcIpbAKWF8IVR8kYn0ONN42/q3cqZ3qer4yW61yX3du/1njP+TqYrynn6y4Z3wnfFk/4YXE4IOuHceX5cyP8VA38DXxL7Q3G0O7wMrcmFB2/4OaHJJDGIABGIABGNiGgc3E77sPSJ1Yjh+BtXg00bt3Qv7uucH/bS62R+YRfl9/jB45/thm/GEABmAABmAABmBgmQHE7+81SfVjhEH8lr+jm54DqmWoyNH35wh+vz/ncE7OYQAGYAAGYAAGYOC9GED89uLXwC0f3dRHBssW4csF/T4XNPy+z1hxXTFWMAADMAADMAADMPD9DCB+nfgFwO8HkJyTcxiAARiAARiAARiAARiAge9gAPGL+O2+AzT64IYGAzAAAzAAAzAAAzAAAzDwTAYQv4hfxC8MwAAMwAAMwAAMwAAMwAAMfDwDJn7/8Y9/3PXvt7/85V9eMlH+53n0hkE/uRJ/Skjlz95Ofs7k/LP+5lg/i/PsMaB/3kjCAAzAAAzAAAzAAAzAwOcxsKn4vfzCnXOn34BdC8+WAugZ4vce/+PP1dTjY7ff7crLhaX8DsJ++NKusa3yX3/r8/J3flVu20GAJ7/z6ettvV/6/eY+t44Be593k2RMGVMYgAEYgAEYgAEY+AwGthe/x/1dq8D3iMcIZSZ+Y52tj2/1X8I1/qawCV69QCjit5FftT+78ip0RwFcjntxmdW3XOj88Xjsvnt1fOh7X8X+1mODvc+4aTGOjCMMwAAMwAAMwAAMwMAtDHyr+JW4OQ8rk+dOYi9b1Sz1ejGntqpvwWbitgq+fmXT+nEriZM+nEj0iZu2H4Xj2P++Ow7+jx9Lntgeys+dF6PWz8S+863Ekvjkz8+K3/2xO59Hf0t+dtVXy9mu7I/+lvLkd4xLH+aX2XP++RzN7Rd/XfwS7mqjPLZsZ2M6+jr9JEHN5TTmSX5dPmoeD93hVNk47jWONSfyazxv9cZ8LZUrPrbciGEABmAABmAABmAABmDgNRn4VvE7J94EiImXKJisbBQf46pgFEpF+DgBGcvVR8sPO+/FdbHXC0D17wVRZqflv/Ud/fPH6ruKVIn3Y7c3gdr7kPU3iSkRq+qj5MKLwSJ8JQRrTv3Hrlu5U3/ZtvYxCsa0zu6rCtDEV6ufiXTZmfjXEO7N8SsvB+rLlpKTImyrL/XlQO/XObyQuRj/vFw+sn3NGx3jwrjAAAzAAAzAAAzAAAxsL37dqp+t3HoxUsSbE2AZgCZMbhG/mWhqCbg5Eel98u0lfn08vlzt2v7bSuNUGFYxZyuXJrxqmdoPZVH8NvLbiqkIveN+XCUfRK/1N4o/8199234Wm2JsbX37Vp0151uxWNtSdjp2x1POibfvY/D7sq8xNd60Pxlft1q+VO77ZZ8bKwzAAAzAAAzAAAzAAAy8HgObiN8//elP4xcyuZXXbMCL8JCAS+q2BFQqPtxHcwex2H85lPXtBY/3ReLHnyv1B2GoldfxY9NL/ctW0//MdsmDROhUBA++R/Gb5Mz6rqLw0H25+O28/Cn2hv76ld5+FbasfLpcllyEY8XX2mb5adVdOp+Npdqon+xj07WdGzuLVyu3Lh6Nv2whfl/vxqTxZsvYwAAMwAAMwAAMwAAMbMXAt4tfOS7hkf1N7E0rv0VcTv/+syUIJX7ki23lj+97EKA7+5vZ6SppaeMElWxJbOpY22xlelpmvtvqcI2h9K0V217wZn4PNsyXsKquj1AXcduL78nKZjk3rjj7v8X2+76N+otb5cfnL9a55riVR+XAyj07Wf+T8XNjJRu+jfZ9rF6EL5VfExt1uYHDAAzAAAzAAAzAAAzAwPcz8DTxa4MtEeIHvpxr/D2oFzzDKp9W9npxKvE1rHQmtrJ+vVA0f3Q8rByuFL9r/fcxV2E1Fb8Sf2ZPgizzW3YGf93KcMmXiz89dvVlq8TvxKI/P7df/AsCPNaXiFReY7mOvXCdnNPLAfdlXlau+JUrHasfb095lC/GjPbV3mxOeEvG35fLR7bffxMj5+QcBmAABmAABmAABmBgDQPbi199pLnfDmK0Fw9+RVHCxDsqETLUc+JsELzF9vTLoMzGpNxEnxNwF3blp7dfVk/1sdlTd9iPXzal9l4ceUGlGFQv9T/Lga3ulvPTFdjT4VC/VdqJ1you5V/dKr8l/l4QDn27trV8/FKnUsfFLv+1zWJT2dw2+uj9s3ZDfoJv0abqKd/Fn/A35PGcjmv8YfwcC3Pid8id8eHyI39a5dF/jrkBwwAMwAAMwAAMwAAMwMBrMbCp+GVwbx9cE2RRKN6aT4m7W9u/SrtbBfgt/kvcSmxHG0vlsT7Ht18L5I7cwQAMwAAMwAAMwAAMPIIBxO/vrwFWXbWuq7820EVsHfbli8SuHXgJtWGVcmGV9Vr7n1hfOUP8vsb18ImMERNswQAMwAAMwAAMwMBzGUD8voj4tQth+rHd6c9EcaE89kJB/D42v/BLfmEABmAABmAABmAABp7NAOL3hcTvs2Ggf25IMAADMAADMAADMAADMAADn8oA4hfxe9NHqz/1giAubvYwAAMwAAMwAAMwAAMw8JkMIH4Rv4hfGIABGIABGIABGIABGIABGPh4BhC/DvLJz/S4n7nhzc9nvvlhXBlXGIABGIABGIABGIABGPg5DGwufk1A2jfmLn2B0CtD9ik/FfTKOca3n3OTYawZaxiAARiAARiAARiAgVdgYHPxuz/Wbymu4nf86Z5XCHatD4hfLs61rFAPVmAABmAABmAABmAABmDgPRjYTPzGn+kZfmP2fO5Oh6/Fz4+X9sdDdzidO2t73O+749n2q4COv4NrgMVzWm32fcffbTVx7svPyW/gIn7fA15uMowTDMAADMAADMAADMAADMDAWgY2E7/WoV/trcL02O13u0XhW9ruj73o3XVVoJro/Spi2H+M2gvpKFLjcUxCsev+lrcIbsTvqvGJueSYmwwMwAAMwAAMwAAMwAAMwMA7MbCx+LXV2ip4i/hNhGUrOV6ISsRqJVeC19dRmV/ZLe36/mM/u535Nv0Ytrfn66t/f459LmwYgAEYgAEYgAEYgAEYgAEYeF8GNhO/Fx8nLh9Zto8Yr1v99UJU4lMCdxC/TsC2xHUVwP1Hm/0q79ehOwVffJ8eYvXvz7H/vpAzdowdDMAADMAADMAADMAADMDAZuLXYPKC9FoB6YWo2kbxa32YyDYxbHUkijOQ1fbcC+DsY9iln2R1Wv1ndjnHRQMDMAADMAADMAADMAADMAAD78fAtuLX/m63F5NL4jTCslb8VhF76k6n5RVlL2IlhiWYS3+2Oo345W9+3W89Ry45fr+bGmPGmMEADMAADMAADMAADGQMbC9++5VWrdBmnWbnVovfXf0SLK3oypbE7dw3OVfh3H8k2kSvE+tpexPH7qPT6ostFxMMwAAMwAAMwAAMwAAMwAAMvBcDm4rf7xh8iVT/RVe39usF9602aPdewDNejBcMwAAMwAAMwAAMwAAM/EwG3k78tv5O9xaAEb8/E/pbWKENrMAADMAADMAADMAADMDAezPwNuK3iN7yDdLLf+u7FkrE73vDu3acqcc4wwAMwAAMwAAMwAAMwAAMvI34BVZghQEYgAEYgAEYgAEYgAEYgAEYuJUBxC/f9Mu3PcMADMAADMAADMAADMAADMDAxzOA+AXyj4f81jdDtOOtIgzAAAzAAAzAAAzAAAx8DgOI3zcVv+Vnm5LfKH7li7N+U/epO3ztENwbcPeIv1nXt6lnv399LVu3+jf5SbLzudNvc1/b/yfW33J8Hp2fbPxf3f8l/6ZsXt7L5tqP31vxnJ/Qm+tffm/xKwr3cCU/7r3/POr5uJV/9+Top7TN7h/PjL2O/eU1/0yf6PtzxBhj+b1juan4nTxcy5dTjRPX4aHRny+/x+vE21K5gXFZZ/zyq8uyc3fLA3S0M9r2UNrvFw+/Jez893WGCVIon8uPb7+0v9vtu+P53MWJis7LvygaYvn5fHkjX4rv3vLyQDvnuV2Ke015K/dr2r5bnUdMDgb+A7u35OYW/8RoZPuW/j+1TbkGk98f3+L+YrbjfePWPGbjvyVfmV9b+N/Kb723jPfMenx5L2u1l79lnJLxU/mjt1n/GpdHX3drxmcpf0v5eeQ9RHm6ZW6x5Dfl08lvdv+4NUfDvMBdd5UTdz3vvrrDyc3vknlK8Sk5f6tftJuOOfkgH9/FwPbi191cfBB6aGhipeNzX1/HS+Wqb7bLQ7yfpC+197609uuN7dQdDsfunNzgykM59Of9Mbvy43g8Xohv81fxtXxYc741gbDzmrxcTNT6G7vv3+fP+l2K795yxZZNvlR277bmeN8dTuND7V6br9p+y8nBI2K8xb+WoHiEf+9qs1yHyX12i+vKbPt7xD05umX87+nP2m7hf5bf4b6+n35qpd5vviafZMna+7i2GCdv79r9rP9WfNfaXqq/ZnyW8rdFH0s2KH/+JHzL+4fmQyc3L/DiV/z7+Vy5TpKXwNn1Ay/P54UxYAyuYeBp4tec9DcX3Xz8xGtSvr8UpGpjgk/7rfZLSant61v8ctMN4tffKGVLN1T/Md7BZ/M33DitzPsnO9ds14qDmI/sbbi3tRTfveU+xsyWyuV3zJ3K57Zqazy0cl3Hdny7G8djqbxMzPTphVjvhk0AACAASURBVDC+6l8r77bVywjze6l8LjaVTfo3P4IPk3JXpr6P+/qpgerj9AVBYVexJeLKfGjZX+uf6rW2nslYRzGM+Z2uumnMfRxxfKNNHcv2ZLzCNaw6Y//T8TVbc/m5xz/5ObctcTfGzdrN+e9z5uPTZFBt5/JzEX/gc9JHw89J/tw9eOw/53diWwzbNvQzse+uj7m8ltwZC8HW3Pk5e61xUoxj/qd8D/25+CLfk/hc/rw/Wf/q+7j3q1/T+4PqtPy7LB+vj7Xj4/28Zb91/5Bvc/yqzhjf6L/5MokhsKC2c/dX1fH2bd/71IpZbefsW9u58ZcN37/ve648Y0b9icHL9lN+zYbV9XlUW8U99f/y+Tb0ccW1a7YHLvbHYQ7m5yH5nK9eCz5HxVb55N302pD/bBFgMPAeDDxN/NYbz7jKoJuaboaxfOnmu9T+GiDTG2EQ3/VmWkWUbo71XL0pFhvhBq2b/zW+xLqtPMR6yp98s/L60On96z86PeR7Ib6Ykxj/Unn0zx5y6tuXaRyjqPN1WvvDA26367L8Vx/bD62l8vJgdpOeeLw0Nkvlrbh0PvYXY4zl/njIq/uoe8uf1nlvz3xaOo7+KY5sW/p0k/pxgta/kFrxyYXBRn/d+esx69OfU3789RL9b+VFdpbycY9/6mNuu+TfUrnZthjmrsu5/MT4Y/7ke8sPO+/tF3say+EjieP1m9lp+a/YvICN/sq/bCvfdF+tfB67/dehO4X7fNben8v8Fn8+96Wes13y6a5fb9P25aPO+/zpnOr5PNg59e/FmPdT5XP++fq+P78/Nz6+3q37LR/kv+cr8tlqG33J6sm+/1OiWM/zpvo+n7Eff6z6F+Pj+LD+fHxx/KM/3r7tz5XHXKmt9WF9yj8fT7EX/CvXTX8u3p99fsx+1qf6uXZ+MM4N7OWZnim2X+8nrdjNJx+Tjzs7r3K27yGAGKefO07bi98wgdXNeLhpuXKVGYBL5fHGKGh1c1pqr/prtnWSMX1rOdyIbbJTYrCb5vTNoHwp8YRVIztXbrAu/qtv4IkAaMVT8uUePKpXY5uK9om/jfiW4l8qV//axgejzt+z9Q+wOkkdJ8pm149P1s9ceWZvfKDWj0LW8Z1y4/tZKvd1437av2MsLS9jqQf9lFWzP4zZ7vKjnJeT43GiIN98/Gn/zj+1Wdp6m75udj72GZmK5d5e3Nf9Y3JPCv7PjV/WV/T5Hv+iv9lx9W/8VIOfKFv9Of9lr3UNLOUnjT/kT30UP9xLJJ2PW8/nUv9q2/Z/nl+1z7a173ovkf1hbLcSv+5alQ8xp+pb5Utbnz9fN8v/Un6HeN29Ivp3D1/ev1v3FUMmSlR26/Xtfbopf/2z2/ef2fH9+P3U/4UVyDj+S+MzV17Gv59PWD3LsfdpNR9uTuL58fuKO/qv87dsvX+j/+M9wa6t+MyzflrXXMmVi+UWn2jzc4UXY//8sd9e/DYmNbpR6sEUbzZL5eVmk9jWzWmp/TWwlZtu+MhYPWcTy1FQqU97oMUbdTzO+i85uOIG6vvL7OlcyZXzU+dLf5O3nuMNf1V8g+ivYsn7s9RePmi7Jj+qu2brfVF9sWHHWbnqrSofXgpMxYXnwezU3Pd1El6Xyr1Pft8/vHXe57CWR99GXrP4fXvZtG12rS3azybvDfHj+4r7WZxWJ/M1xpT5He23jqOtVp+t8VvKj9m7x7+W3/78Gvst/2XHXzM6Z9ul/GTjlo2Z2Wr5meawvz8u9S9fm/6vvH5lx29r3/YSyV4g1fv/EJvZveIe3op/sDcRl+MLqyx+76Ptz+XP183yn9n3Pvl92cra3MqXbN6zzfyRvawsi2nJf7N3S/6sXXn+9s8E+aP5kPxsbVXfi+coGNeM/1J8rfLaV38NHI/d8XjovrLrocFvK2+K95r7h9pcs/X2Syzlmh3FbzamZr95P7nh2XaNv9R9vjhiDD57DJ4mfnWj1s1cN3c9DC7Kk5tNvSHnH7uJ7a8BuTwUo/jtJ0/y1+zVPsYVgfKRHr+y2+/7Nt6PrB9fHvdjjmK5HdeH1yjQVcf7mp3L8uXb3FuuPrVtPWxUfu1W/l2MQZg8i69ofym3caIR28dj2cveJlvdpfILe4m4LDkc4hsf5LGt78+zmE3+rG42Nkvx1/xPV729f5lP2bnMTvE/iT/6lPmd9ZGd03isyU/xp1/J0fhGX7I+7vEvsxfPXWNf8cp/2WpO9pKVK89PNm6t8c/8lD/++pzYX+h/2f/560Pts20dW2PbbFTGi2/HfX0pk7zkyuzoXBr/At9ZfmTPtlm5z5+vm/a/kN9sfOeYlz9r+fL+3bqvPj1DsqWyW69v2bHtLfmzdkX8+vnBFdyk/jtmVO5jb42/+aL6cXwUZywfroGvQ3c8fHX7o80x3PXgfBltTK+5LG9D3aR9qX/liyXZi9vIr41F/fvp8DJrIt7N//xvsudiiX1z/NkiivF9z/F9mvg1YMrDYJi817fc/uY9La83onb5fPtrAC0PjSB+o7/DceMBNvfgsbbx4bLWv7mbbvX7UvjW/i7zF+P0+c7iu7fcx2i2/FiqbMjLlQ+9LN/1gTfmo+QuGVf1vVRe4m+Mt2z47dxYWb2lcm9LeVHO6thNvxBkzj+1XzP5a/m1xv6cfz6e1n6cpKie/Jd9O1/8cZy0/JaNpa2Pr/oxzW9sH/vz7WNdO471szr3nLvWfla/nHM59f74+GJ+4vhkfMpW1m+dXI8TTR3rT0Nkf4nftf7LlzXb2vdU/FoujEXrz/u0xl4e//Lzq7Rr3L+UL/miY+XP+zXXv9pbfX9PVf7nrj/fh+1n/ZRzDb5i+1uOsz5lZ45f1fHblq3svPLTzp89f6cvB31fS/uZ/Uk8/Xd4qP+58VdfWRwqs60vr/2fuuOx8m5snI7H4VMP8m+OD2/P92P7sX3r/qF6GdfRpj+Oz5VybCvY/SfklK85/709Xf/+HPvvKYIYt585btuLX/9m8zwKHN20/M1FEyi7YS+VG6C6QQ2re+4huqb9EuTlYRL89z95pD6G/meEkJ84VN/r5GZo63Kz5JcvjzdxlV3kZohjfOAq36MPozBMfQzxLcW/VD71ddr3WNbnyY2tyua22cNI/njmygN4yM3Ip2zPlcvemD/3sXGtBDrb/gGdtr0yxsn4WdvwaYi0j34MVabJkcXrGVX5JDaLxTGQ1vHl5e19/9HrxD/leG7b4rv420/wBh9D/uYmV3N9qmySX5uoWjx9H2nsof+0jsvPvf7Jz9Y2smt5Evupb8F/s3tRz/k/l5/Sdmb8L+zqOvH2jWedt0np/jL/LX6Vk4t+vP3sGnXlshG31Wa9X+kZcTocyqqQv8ZjO3984ZfidP1f3MOT8YljrPG1vgbBUGzn+RvzO/3TDPk3l985/9R+Yj/x/6Kei9/n69b92fuH5/PK6/vC7zB+Kp/LXxy7kquV8cv+JL+h7dXj78Ynte/KbTwq+/0nH3Qvdj7M8WHtl+5/k/uL9R2eb2Zj8DP4tsRL5GKw4/48bMl/9VHr5fMX1WH7MwUV4/4+476p+GXgv2fgM6H3Trlfegi+Uyz4+j3Mk2fy/EwG7J7lheYzfaHv+WvhFZ+PVXxNBZPElhfMrbGVWFtTt2WD8/PcrM0P85dt8rg239Qj349gAPH7+/uBdc1D8xHQ3GOzvp0eV6PvsUXb92OXMWPM3pGBKF6KGDnsu3eM5dN9fsXnY33uBfFbVqKn51pjg/h9jfsm85fXGIfWdcJ5xmctA4jfNxS/NrhlMnblR3/WQvGoevUBvu5h/ygfsMvNEQZg4BYGph8rHf8++RZbtHksg6/4fCwrhvq4tD6a/jX9mbkWF4jfx/LSyrs/z/zl+WPgx4N9xuMeBhC/byp+7xl02nLTgAEYgAEYgAEYgAEYgAEY+GkMIH4Rv3x0DwZgAAZgAAZgAAZgAAZgAAY+ngHEL5B/POQ/7Y0W8fIWFwZgAAZgAAZgAAZgAAYuGUD8In4RvzAAAzAAAzAAAzAAAzAAAzDw8QwgfoH84yHnrdflWy9yQk5gAAZgAAZgAAZgAAZ+GgOIX8Qv4hcGYAAGYAAGYAAGYAAGYAAGPp4BxC+QfzzkP+2NFvHyFhcGYAAGYAAGYAAGYAAGLhlA/CJ+Eb8wAAMwAAMwAAMwAAMwAAMw8PEMIH6B/OMh563X5VsvckJOYAAGYAAGYAAGYAAGfhoDiF/EL+IXBmAABmAABmAABmAABmAABj6eAcQvkH885D/tjRbx8hYXBmAABmAABmAABmAABi4ZQPwifhG/MAADMAADMAADMAADMAADMPDxDCB+gfzjIeet1+VbL3JCTmAABmAABmAABmAABn4aA4hfxC/iFwZgAAZgAAZgAAZgAAZgAAY+ngHEL5B/POQ/7Y0W8fIWFwZgAAZgAAZgAAZgAAYuGUD8In4RvzAAAzAAAzAAAzAAAzAAAzDw8QwgfoH84yHnrdflWy9yQk5gAAZgAAZgAAZgAAZ+GgOIX8Qv4hcGYAAGYAAGYAAGYAAGYAAGPp4BxC+QfzzkP+2NFvHyFhcGYAAGYAAGYAAGYAAGLhn4aPG72x+78+nQfe12g8Db7b66w+l8cf5V4Nh9HbrT+dydy79Td/gafX8VHx/lx/547k6Hr2GsHtUPdi9vBOSEnMAADMAADMAADMAADHw6A5uK36/DqRdtEm/Xi5ktBdAzxO89/lfhOwreenzs9r14X8rvIOwH8Ty2FcjmXxXW7RcAgwAPLw5k41Hb0u839/moWLDLwwMGYAAGYAAGYAAGYAAGXouB7cXvcX/Xyt094jHClYnfWGfr41v9l3A97qcrvSZ4tRpaxG8jv2p/duVV6I4CuBz34jKrb7nQ+ePxctV861xFe0PfIQexHsevdRNhPBgPGIABGIABGIABGICBd2DgW8WvxM2w8ng+dxJ72apmqdeLObVVfUtuJm6r4MtXNyd9OJHoB2rafhSOY//77jisrI6rtBPbQ/m582LU+pnYd6ucJZbEJ39+VvzaR7zPo78lP7vqq+VsV/ZHf0t5+Yj19Fzpw/xKPjLu89TaL/66+CXcVV95jB9HH8ob/Wo12turuZzGPMmvy0fN46F+5L1wp3Gs8cuv417njaExN0vl8p8tN34YgAEYgAEYgAEYgAEYeE0GvlX8zok3AWLixQscnR/Fx7gyWgSNE5BF+DgBGctlq+WHnffiutiLK6VOEGV2Wv5b39E/f6y+q0iVeD92exOovQ9Zf5OYXC50Xn1UUToKRYlJe8GgmOu5Xgw2RKjsZtvaxygY0zoLf3OdiXTZmfjXEO6KxdqU2DV+5eVAjbWcL+NY//67vhzo/xbc5aPkW+3ld6NcPrJ9zRsd48K4wAAMwAAMwAAMwAAMbC9+3aqfF1YGWxETbjUuA9CEyS3iNxNN14rf6I9vv0Z8W/u2/7aiOBWGVcyZIDXhVcvUfiiL4reR35YwLkLvuB9XyYto1KrmKP6i7z72mJfWsXxvla8934rF2ldBeuyOp5wT34ePwe/LvsbUeNO+F8+eqaVy3y/73FhhAAZgAAZgAAZgAAZg4PUY2F78upXXbMCL8JCAS+q2BFQqPtzq5CAW/Tc7u3Lvi8SPP2f71YZWXfttWPmbiKPEftP/QXQG+8MK5FQED2Itit8kZ+Z7FYXTb7a28/Kn2Ct5HwW4z+nQX5+/eBxzFY+9rVh27XE2lrKhfrKPTc+Onxsrjb9sIX5f78ak8WbL2MAADMAADMAADMAADGzFwLeLXzku4ZH9TexNK79FXI4f67V+WoJQ4ke+2Fb++L69AFT5zeI3+Ztb9V9XGM13Wx2uMZS+tWLbC97M78GGibuwql7t1o/6ShhO/C85G1ec/d9i+33fRv3FrfLj8xfrXHMs0R7bKAdW7tnJ+p+M3y3i1zEl+z4XcyI9+s0xN20YgAEYgAEYgAEYgAEYeC4DTxO/NvASMh6Cci7521Wr4wWPxJxWACVOJL6K8LGVzsRW1q8XitaXjtVe9ifixwkqxbDWf9WvfdnHj6fiV+LP7KnPzG/ZGfx1K8MlXy7+9NjVl63iUxKbL8/2i39BgMd6yqPyGst17IXr5JxeDrgv87Jyxa9c6Vj9eHvKo3wxZrSv9mZzwlv/N7+tcvnI9rk3NPJP/mEABmAABmAABmAABloMbC9+9ZHmfjuIUfeFQcOqohNmclAiZKjjxNkgeIvt6ZdBWftJudl2Au7Crvz09q2+ztvHkffjl02pvRc/XlCt8j/Lga3uhr/5NR9Oh0P9VmmXoyoupx+bVn5L/L0gHGJwbWv5+KVOpY6LXf5rm8Wmsrlt9NH7Z+2UR4nSli3VU76LP+7LpoqtfrxinRp/GD/Hwpz4HXJnHLj8yJ9WeSsOznPzhQEYgAEYgAEYgAEYgIHXYGBT8cug3j6oJsiiULw1nxJ3t7Z/lXa3CvBb/Je4lZCONpbKY32Ob78WyB25gwEYgAEYgAEYgAEYeAQDiN/fXwOsumodvozqsO9uGXQJtWGVMqwA32Lz09soZ4jf17gePp034oMzGIABGIABGIABGPh+BhC/LyJ+DX59tFeitSXEuFC2v1AQv9vnFE7JKQzAAAzAAAzAAAzAwCsxgPh9IfH7SmDgCzcqGIABGIABGIABGIABGICBT2IA8Yv4vemj1Z90ERALN3UYgAEYgAEYgAEYgAEY+HwGEL+IX8QvDMAADMAADMAADMAADMAADHw8A4hfB/nkZ3rcz9zwFujz3wIxxowxDMAADMAADMAADMAADHw2A5uLXxOQ9kVNS18g9MpgfcpPBd2S4/3RfmP46+Pf+tySG9p89s2Q8WV8YQAGYAAGYAAGYOCzGdhc/Jp4GsXv+NM97wQS4hfx+0684utn36QZX8YXBmAABmAABmAABrZhYDPxG3+mRz/XY9s1K4ml/fHQHU7nztoc9/vueLb9KqDj7+AaAPGcVpt93/Hngkyc+/Jz8hu4jxC/8s37U2JO+m/BbX5ZLot/JTfT3KqPMb5jt9/thlXcuXJvc2x/7s58/HvIX2tcOL/NzYg8kkcYgAEYgAEYgAEYgIFHMrCZ+DUnq7jyYnUqvuYCkXg2cVgFqtn5KmJ4XEmeir0oUuNx7K/YdWKuJT6X7ES7a44lPO8Vv0WY9oLZi3/Z9y8aShyqu6u5bJUrBsuRr6PzbLkRwQAMwAAMwAAMwAAMwAAMvDMDG4tfW62tgrcIsytWNb0QlfiMgs7XUZkXk6Vd338clN3OfJt+DNvb8/XVvz93737mb6v/Vl9ezFodH1MVwtOXDdeUq0/ELzc0scAWFmAABmAABmAABmAABj6Jgc3Eb12tDR8pLh/NnQqyVvK8EJT4lGDUSuSFmEvEdRXAvR9+lffr0J2CMPZ9er/Uvz+3Zr8KUJ+DMXbF4sV6q/9WX3N+ZbZ8n0vl6hPxyw1OLLCFBRiAARiAARiAARiAgU9iYDPxa0nxq71zQi1LoBdnaivxJvFr7STOrI4/H22qrf5mNVsZLf20BLQTztH2Lcfy52HiNxP3brU7i9+/TFBMyq+O2XLDgwEYgAEYgAEYgAEYgAEY+AQGthW/+2OnL5BaEqcxeWvFbxVxp+50GldVoy0dS0TbscSnBHPpz1amv0n8mg9ldbwX1TWOvH/5H7c+nlgW4xv66+NbKpe91gsBlbPlxgcDMAADMAADMAADMAADMPCODGwvfntxd+0K4mrx239xk1Z0lXSJu8k3FQdhOwhOiV4n1tP2Vm/DFeBJ//YRbFutDT4qnmw7J36tfl3JdR+7DraXyquN+sVYQx43jD+LiXPcOGEABmAABmAABmAABmAABr6DgU3F73c4LJHqPz58a79ecN9qg3ZcqDAAAzAAAzAAAzAAAzAAAzDw+gy8nfjd8mO5iN/XB5SbCGMEAzAAAzAAAzAAAzAAAzCwBQNvI36L6L3i26PXJAfxy0W0hhPqwAkMwAAMwAAMwAAMwAAMvD8DbyN+ge39YWMMGUMYgAEYgAEYgAEYgAEYgIFnMYD4/R34ngUf/cIeDMAADMAADMAADMAADMDAdzGA+EX8dt8FG/1wY4MBGIABGIABGIABGIABGHgWAy8lfse/6932J4aeldzv7HfLb8H+Tr9jX4oj+/3lWPcTj396/O80pq/+nQGP8O9WPtVui2/pf1VGrv15v1eNA7+YkMIADMAADHwyA5uJ39aDf+m3abPk3tIms/OMc608bOVLy/6jJ5f6jeDT4WtYKa4vK07d4Ws3nLs3TsVxrfid/oZy/1vH7jeKB7vlS9P68vA7yPf6vkX7wc+Gb63x36Lv77BRBJkbA8/Td/S/ZR+PEJev7t+tfKrdJ4vfcg9qXLdbjiu2mJTCAAzAAAzAwO0MbCZ+W4K1dX5u0G5pM2fvO8seLU5a9h89uawTu1N36id3tT873lb83jpWVfweu/2uCnHlQyJax5p86/jsBPKtfX9nu9b4f6cPt/aVvSz5Ohw3fXlyq2+3tPuJ4ncpTy0+db3p+luy847lPyHGdxwXfL59gkjuyB0MwMAnMvAt4tev7tjk6KyVn8Zb8jnxO7dypMnHYP/sxND+2J2Ph+5wqv0f9/vuWPyYirc1/mUg1Im9i00xOnE1519m059bsi/bx/3XEOP5PI3N7N0an1Y1Dsdq046Ph313COJ3Yt/l3/q2GIwFH4tnw59vidKW/Sh+rb96rvd3V/PiJ9+lPzc+Pt9xv3C3wI/GIOVv6F/cGSvT8ZmLf1Imtmzr/J/rf03+Y8xbHuuTAz7/0f6c/0v5XypXX01+VoyP2Zi2P3d6uWJll/6fu7l45ZPfTuy7+6Nsj/etS36W/PP9xP3WtWD+6BqdMOi4M1uTsoTP0f/5+1P0Kx7Ljs97rNM6HtoO/o3PB2tjMczdn1p2/fnCoRu3SVnP2Hh/0LNou0/O+P7YZ9IKAzAAAzAAA5cMbCZ+6+RzXz7+qkmEJdxPnsrEzk2a4rEGqEykXD2dL30EwTCU9RMLTdTsfLGjlUoTv+c6GS39FjtTQRT9icfqa25rbbwPqquJly/z/qne0nbJvmI0OzGPMZ54PNe3xO/X/thPEG3Fbpo/689P9ot9NxEs/tjEU2PydehOyXhGv+XXnP1U/DomlH/5F4/VR2tb2WvzI3ut8VW5F7xzcXpR631aGv9W/2Zjbf59f1vtZ+PjbSs/Lf8X87/i+p7lZxAm4wuJOD7xeik+Rb6T+5aPc24/2vfHys8cP76+9RP9m+u7Vdds6ppR+5gXnbet1fdjqLLR/9HenB21i9vBjst7rJMdq533rfTv7JTjFfenzL7O1Zc8I0M6b1s/Ppk/vi77l5MVckJOYAAGYAAGtmBgW/FbJhJfna0O6uOxmjxlk4LWhLg1KWpNrCwRmS3fp5/cyb6fgPi6SmxmU2WtbcvHzFbWZ8uuzjft95N3P1H1MWd9ZT6pn7gdbe274+nYHY+H7ivp07cb29SVjTjZzHyy9hofbyvb9/azWKbj61ec+hX6K4SK70v+TewXIT9dSfLxqW5rfHx8su/Pab85/gv9W/u1+VdfW25L/sInAbz9fPxslbxfuTdx2wsV5Uc5NUGzND6+L+37NrLVGh8/lll7O1f8molR7bJtat+N6Rb+Zf3qXMm/y2/JaeP6Vv7V1m+bfCa2fP69jUfsL/FlfW51fWT5ycYvq/eI2LHJZBEGYAAGYAAGRga2F782YTvuu33/8VibDNmEsk4+etExfOws/+heNinIJg9+ILOJlG/jy2Vf5WWiVyaa6/zz/cb95uTPTd7VRv37CbfKWtum/YXJ5TX5z/ou+evFonyI/qd9xJWVFYJT4xP9mLNfy6L4rIK3NZEv/Tj/Yn/+eJGfhfGNuTLb3qbvqxW/1VHuff2WrdjnnN1ob+vjEuuMMMxy4f335YpD5WvF7yw/q66fwFcy5sU33d9WsK48p74VO73438g/9Re3VXxbfPby0r/culzFVP6jDTtu8rngf2Zry3OeH9kVP7r/zsWlNmu22b3I2llu9IkO9W3srrFJnXHSQi7IBQzAAAzAwD0MbCd+tUqxP1axWz4eO/5NaLay0XI8m4QsTRayCYfv009+ZN/b9HVbfq0535z8KT/9FzKZrVv6bNpfmFze0pePt+QvmcybP+XlRt+/n8z5nJst5d3bzfazen6s1MbbT8e/5HxGPCRjIttx6/uSf96ntP+dW7lcGB/fn+z7c9pvjn8SSxzzObuy/6ht9WX8yGvsZzF/Tmgqjkn+l8oX+JQtCSHzz4955l/xo/HyRPYkdmK88TiO1WX59E8M7vXv0r6xeuz25W/5v/qXl/05d8+ydsp/tGHHTT6v4D+ze++5bPxizufiurb/LA92bvL3vsn99Np+qM8EEAZgAAZgAAauY2Bj8Wsfd66rI5pY+G8DLg//FQ/81iSknG+sHmmy6cVX6a+fnPqJrOzHNmv9m4Os2E4mxLEvs+H9m7Ppy5bstybvQ38r8u/7075ypmNtLYay8laE3ihuJHb0UVWr37IhW9pm9WRP8elY9uPkdijv41X+1X7wJxkr+eG3S/zIfpO/Kyb/WfzypZQlPi/1P8S7MP5D3hrXmfy4ZVt4D3/jrW97XvJ/Mf+L4teEXJtP9e/58H2qXONbytzfh2b5mBvHrP7c/Uf9b+mf96HaP3XHY/27fYvvdDwOf77i687FtcRny39vf25feThfyafaafysj3j/nYtrzqeszLNj5fW6mn5yIG3X30evjS+zxbnrJkPki3zBAAzAwM9gYDvxq4e2xGY/2fdf0KIJSPb2Oy2zyWWYrJcJij5WeJ5+uco4ce/fsDuR4CcjmuSoT02IdJz5t/aCuLDh/J/z71776nducqk6t8SnnEU/JX7t/CAI9HHN/WEyeW7ZKG0HXtqrI3P2q/idtp3kIrPv+IhxxeN1/FSBNeTX2VfuJz45wabyoa0Yd/ykeXLlS3zNNMJngwAAIABJREFU5V/xjjaWJ+pqc822+KDYNrx+V42P5Xvo+9QdHJ/Kf2t8Su7L6rq7tyyNnxv/NTmSD6OP4/1PZbf6t6b/+nLCv7y87H/im+XS8VdyFK+zvnyN/2t8tDrVz/FFxtp2I9tuDN2q9prrY31flyv1kf2Sy4v86R7ymOtvrf/U+xkTQMaZcYYBGPiJDGwmfn9i8oiZmwYMwAAMfC8DVUS+vjj0L2Tqy7np309LjPsXGrD0vSyRb/INAzAAAz+PAcTv7z9v0LnQGXMYgIF3Y2D8dMfrC9+Y2/qplSB+3XcSxPocc33CAAzAAAzAwGMYQPwifvm2URiAARiAgQczcPmx56kYZpLzmEkOeSWvMAADMAADngHE74MnPD7Z7HPxwQAMwAAMwAAMwAAMwAAMwMBzGED8In5Z8YEBGIABGIABGIABGIABGICBj2cA8QvkHw85b9ae82aNvJN3GIABGIABGIABGICBV2IA8bux+NVPeuj3Z19psH+CL8/O/zX9+2+DXTs219hfa5N6PJRgAAZgAAZgAAZgAAZ+AgObid/D6fI3Hy2B5TcZr/y9y0ckXj8rod/0tT7qF5Bs+6Ujt4qT8ZtM3W/Vut+AHOwOv1N67n6iwPa/K5xxMuTpScxd0/8rit/B//PlN+rq91X1W6/+WsrGgnM8RGEABmAABmAABmAABl6Jgc3Eb/o7hi/0Uw7Fv9OpO/WiqE7y7Xhb8Xvr4Nb8jYJjECETf8+dfhNyKHcC+da+36ndkvh9p1huEb+PjG/4OZbDsTsn4tf3rZdJ4tGXsc9DDgZgAAZgAAZgAAZg4BUZ2Ez8WnBlJTWINb86NAi2YfXyUuz5yXQUB2bf7PmfjPD25xJcxe+hOxyr2LXj42HfHYL4na5ujf4pvrn+vV/nhiht2Y/i1/qr53p/d1+dra77/JT+Gv20clEFzri67PO3bnz23XEYv/HFgdoe93m5/JnEn6zOtvyb5Hbof/ppg0mdJC/yUSuXXuCpbMl/xZFtl/q3NpP4LY4kB5ltO7dkXzGM8U15adm187Vt5b2OwZT9rK3F4vnJ6nCOBx8MwAAMwAAMwAAMwMCrMLCp+PWrQXECrYm5nyyXyXwQy17cFRtOHAyTf7W5YmVZ4vdrf+wF9LE7fE0Fpdn3/RehckP/xc9EfM3ZT8VvL3gtZ8qf/IvHa4CqYzIKVt9G9pbG53we2/s41b5Vbn2VfLq8xOM5/+TrGsHl/VI7+XdrfLKzZpv1b+3SeB1fa2xbnZb91vm1dlUvXrs677cZr76cfR5yMAADMAADMAADMAADr8bApuLXgisT8NOxO4ZVymyyXMVye2UzFb9OLPj2S4kdbe27o/l3PHRfyWqqtzO22ZVvRK6xWbt63Op/rQjx9vP8VHHuxa9f1WutLvsY/P6ccMz7t1XcdeMjcSlxbv1O4tuNtuRT7HPOP7VZUyfLf+yr+Od8WvJf/a/Zpv27vmTD50fn1mwz+9aunF/4uPIa+8Wvhp0i4PuVd/8iYY1d6vAAhAEYgAEYgAEYgAEYeCYDm4tfrf7Gj3NmE30vOPy+EhLbtCb9qj+3Lbb6VUcJqNhnFUjjR4KL0HRie23/rXpz9nNxdil+vbgs/Tj/ZuO/UuibLZ8fv69+/PgslpdV+pDbIqLa4lr9+K3Gzp+L+1n+va+q7332+0P5/njVx5LVLu2/xD/9KHHmk2zMbTP7ql/K9LFwt8qu8jXb4ldD/Pr2RQjf2Ie3wz4PQRiAARiAARiAARiAge9gYHPxa05nAiUXd+Nq4BrxMTfpX0pWmdAnE3Xz1QSl+verWVGcrO0/q7dkP82P+1i32nvxm7Vp5UHtfXy+bmbLr2yr/aR/Jw6Xy8ex9v1qX+1b/qlexpbKtE3zn4lPtxqr/lvxyfaa7dr+S72VLy98v5l9X277iufaTweUtjauK8RvvD6iDxzzEIMBGIABGIABGIABGHglBr5P/Lq/X1UCysqRm/yX416gVjE2/UKgNZN+2Y7bVluJKa1YS/zo2K9gt2ys6Uv2Wvaj+FR9iReJGbW3Pos/Ln/Rj3hc6jdEjex78enHR+W+fy9+lsrNFz++0Tc7nvNP9dfEXOqEFx3y79b41P+a7Zr+S+6u/MIr9Z3ZV5nfrq3n29h+9W26Sn1Rp7+exWcs55gHHQzAAAzAAAzAAAzAwKsx8G3i1wIfBJ0+lhmE2yB4S/mx29tqnatz62Te+m61lfgt/pUVL30099Qd9uv7l7ia/E2uxeFE2CB4SnxT+9PYqw8ToSmxodzZ1uVmLVglD86GF4Nz46P4Jj5dsfJbx79+jHuSI5efYZwa/qU29LIky4/ZcfbviW8pv8rPJLbYf1l97vmysXP5u9d+2v+VfJSXEy73NZb+G6CT/Hp2lvynnIcfDMAADMAADMAADMDAsxl4iPh9dlD0z4UFAzAAAzAAAzAAAzAAAzAAAzDgGUD8/g4QHgj24QEGYAAGYAAGYAAGYAAGYOATGUD8In7Lzzh9ItzExE0bBmAABmAABmAABmAABmBADCB+Eb+IXxiAARiAARiAARiAARiAARj4eAYQv0D+8ZDrTQ9b3vrBAAzAAAzAAAzAAAzAwM9lAPGL+EX8wgAMwAAMwAAMwAAMwAAMwMDHM4D4fTPIh5+0ufJnbHjD9RlvuH76+G8Z/9LvVL/TNaO8+J8iy/xXvVt+Ji2z98xzfvzkx7Pja/Wv80vjozhu3aqfTxjfW3NAu8941jGOjCMMwMCjGNhU/A4PXvdbofwW6LbwDjl+UfE7+Heuvw8bwZ38luyNMQy/iXxl+/g7v5HNWH4+n7rD127VGzC19TbrbyqvtxFzlR0P+b02dv8bw7o+J7+BnPwG85V9ZP5ufe7W+DM/vHiS3UeLk8yPLc6t9V/1PkEc+fFTDu+Nz//uu2xes231r/P38rXkn/r5hPG9Ju/U3XaeQT7JJwzAwCczsJn41UPXT/4/OXHEdnljKJNRE4yHY3dOxG8Rvr2gEi9nJ8DW5FTtjsdjd+0Ez/rX5LMK6FGYyq7nt4jXlQKw2DudutMkPjse+1gT36Pq1HjHFxKKVznU8ZCfXS+GrxyfR/n/CLtePMX4H9HfI22+u/+35MaP3y3tszZL4jJrs+bcVuPzKP/WxECdy2ceOSEnMAADMPB+DGwofvfd8TyKixYMRQBp5SkICxMbJj7qitm5O5/P5dhsRbHSOner/Za/Ov8d/WuCZHHrn8SI+eHzkonGy/aXYue4r+NU7V8Ks8FGGBvlobWt7Wp/VQSPfVubujI67S/Lacu+zg+CdH+9+JWN6k8VdxK7Wrn1+Y6C0beP+6Xu6dAdjjVGOz4e9t0hiN8Jn+EFwRz/1t/S+Fudlv0slnqu97cXuz7+0t9K8VvG/HjoDqfK7sjZdMxb/im+1vWvcl0XGf9z8VvZZfl5eIEi7o97vwI+9V02WlvZGHy8cnwv2yuXy58+UNs5/+f4GdvP3x9uHT/PmvKXnVNZazvtfxw/qz8Xn5UrxnF8xufVpK27/3rOrM6tfKrv1viM5eNYe3G/1r8htuS6VR9DHcenysbr1ti7jv/WmHH+/SaGjBljBgMw8MkMbCZ+LUmamPgJtE9eKXcP5Xg8POC1elY+qjmdnEusmN1S34m0aC8ez9n3fmb7mhw8sv/in8tP5scQd6i35J/K/YQm62+o5/La8qN1PhW/Jlb9ZMt9DLfFS7TvJ8t+YhjrrTnOxG7lQ7xVEeDHe85u8c1ytj/2E+Rjd/iqQkrxmX3tm63Cp8tz7X+c0Pt4fd/ZuFn5nP1qK76QGF8AaNzlXzz2/Wf7dcyrmChxlYnz68RvPsf7gWdI8ZowGHIQmM3i1jm197yUcbpifL1/mT31lW1Vf43/GT9j+1HwxHpzfJlPpb4Jxz5mz6/sX+Qn3Mey2HTO58fO+fFTHdtGv1XWOq9y21of3kdfNhffRb0Ql+JvjY/KxZ7Zy+Kb808+ZHHKvo+t1NNY6ZMeTvBmdtQHWybGMAADMAAD78rApuLXkqBJcHm77CYA7ZW/cULuH8bF1s4ESJiMhYe1Jgtb2F8aRO+fJhNb9l/sO4HY8ieblOTiZsxf9HcYKzc5b/V37fnKwDiuk74G0WvjOhVHS/34iV82MVxq78vLRDqJ3fOrsfXtWvujP/vueDp2x+Oh+0pWU337sU1d7fF8Wb2MaTufjb+3q31vP+fjUvyW61YrX+76lc3W1vcl/8Scn3D79r6NnX9o/OFeYv35/uWrH/NW/n0M2s/zO15/S/Fl/SuP6mNum7Vv+Z/ZTdsvfLrC528pPiv39bP+5uOb5jLa822z+Ky8nF+4v/p7jLc5tHf3jLvz65jM8uHzJV/m/FOdLP4lPtf2rz7YMumFARiAARh4VwY2F79KRJ0YxFWA8eO84yQ7iNuZCXe1WUVVfJjX4/vsy/fW9jv6rxO0Po5GLtLJTTJR9RMav6/4ssmVyu7ZFrthklnPTT9Kl/nU6jf6Go9b7bLzNccjd6pTBHHv98CvG4NLxkaBX/zp62qCGuO7bD9eH+ZDNq7yzW9b9ebs17LRX7Mn/0ycat+Lv9KPm+x7H+K+Hw/5J5sSv3P+mT21i7bjcavenP00fnfNyFcff2XgkpPojx37+FUebbb8Vv3CX8+Q2ip3qtPaqv4a/zM/0vYuP9bvXH6tPLPr/fX5LLZWsjX2HfgN/qmvOT9K2czLHV27suW3c3aX6qX5/U7xm+TK++T3FUvGtMrYMumFARiAARh4VwYeJn4tIXWyVCePfuLTStaayYVNTmyC58VG6ctNJO6x32qr89/VvyYj/m/O5EOWp3Ry73Iie5PJcTIhUh/3bMvYRPHbr/hO+ncfa1/qrwgDTVrD1ttcslMnv5eCxrMqG9k5lcVt5FHlAy/9KrAXM3FymY2r7PhtVk/j27Kf8uHyr/Y+l1kb74ff97HIP9k0n/y+2vk2dk7tVN7aZvWW7GexFDu9AFP7Sfzu+mn5ovOZ/XjPy/xWe9teMO5evPh62f41/md+pO3d/UHlLb7Mp8xu9NViNBtW19uK9eJxlt/SXyKg1/iheOL9Vf7F/u14jd1WPfXX4istd/mXP3P+qU7mZ5Y/z+fa/tUHWya9MAADMAAD78rAQ8VvnJyUyd3MhC57aMfESmTs+y8W8uVb2Pf2sv3v7L+Vj+y8Ji9+QlnyMTe5TyZXsqO/28tysHSu5CiIX2vj/RmOAw91QmYrxNNVnthnFE4qn2tf/boUvtZW7Xz+WnGoL7/NxsTKLWazKfua/OrY57llw/dj+1k92WvZj5Nf1dfkX+Ou9kM/ibiI/tixHw/5J5svEX94+VDHdlx5l68+/ux+MuQt8Kn2np/Iu/KS5q8I7Xnms3Y6p/6X/Lf6mR9Zez+milv2dXwtv5VD+xb062KVf8pvHD/loRWfL9d+lodyrsF8Vl+2/DarJ/+VP6sf+fLHNU8jn7I/59+kzsV9dfwTB9XzfGb++fFXG7ZMdmEABmAABt6dgc3E7/Cw9qtyYRKhB+z4kedzp8m3JTKbNMQEDzaCbas3lHkf3CRgjf3YXzwe+ti4/8Gu9931kZZbXRffMCGVjaS9n3xlk5uhH9c25qB1XCZT6nvYjpPcwbbKnO+yOcYwtlOZ32a+W3mr/Xg+fjR+7OeS4Vwoez+032LLcnIxYS/xn7rD/jD8NJLZadmocdXJ6+TaMTsuh4MgSOxfxjZ+sVPT/hUM+PFQHBrvV4i/xDj8vXkvKtzLH/k6ya/LrbWvebK/Pc1fzlwwFvKnvMhW3JbyYtsxmvgQ21W/Ej5c2zQ+x4/K5+4Pc3yZD0vxTfx0vmXxZOcmDFtul8YviW8yvmF8Jv5pHJyfc/EpfxP7S/0726Vvz6e9XLHj4ONFP72Ni/OJ/3N8qv3c+GdjwjkmwTAAAzAAA+/GwGbi990Cx18uVhiAgVdhoAq76csWiRUvSF7F31v9yETWrbZox/ULAzAAAzAAAzBwLQOI335F59rEUZ+LDQZgYCsG6qpqEL/ub7K36ufZdsrqaVjNfLZP9M91DAMwAAMwAAM/hwHEL+K3fJyTi/7nXPSM9WuO9eXHnqdi+J3HbYxt/DODd44H31/zGmJcGBcYgAEYgIElBhC/iF/ELwzAAAzAAAzAAAzAAAzAAAx8PAOIXyD/eMiX3gBRzltCGIABGIABGIABGIABGPh8BhC/iF/ELwzAAAzAAAzAAAzAAAzAAAx8PAOIXyD/eMh5i/f5b/EYY8YYBmAABmAABmAABmBgiQHEL+IX8QsDMAADMAADMAADMAADMAADH88A4hfIPx7ypTdAlPOWEAZgAAZgAAZgAAZgAAY+nwHEL+IX8QsDMAADMAADMAADMAADMAADH88A4hfIPx5y3uJ9/ls8xpgxhgEYgAEYgAEYgAEYWGIA8Yv4RfzCAAzAAAzAAAzAAAzAAAzAwMczgPgF8o+HfOkNEOW8JYQBGIABGIABGIABGICBz2cA8Yv4RfzCAAzAAAzAAAzAAAzAAAzAwMczgPgF8o+HnLd4n/8WjzFmjGEABmAABmAABmAABpYYQPwifhG/MAADMAADMAADMAADMAADMPDxDCB+gfzjIV96A0Q5bwlhAAZgAAZgAAZgAAZg4PMZQPwifhG/MAADMAADMAADMAADMAADMPDxDCB+gfzjIect3ue/xWOMGWMYgAEYgAEYgAEYgIElBhC/iF/ELwzAAAzAAAzAAAzAAAzAAAx8PAOIXyD/eMiX3gBRzltCGIABGIABGIABGIABGPh8BhC/iF/ELwzAAAzAAAzAAAzAAAzAAAx8PAM/Tvzudl/d4XTuzqdD97XbrR5gtTvu17e55+3R7uvQnW7y8dQdvr7Hx3vio+3rvVn7Opy68/lc/x33q6+NdxpLXcfXXv/vFOM7+/qq4yO/vuv+v2YMd/vj1c+xNXazOq8Yf+Yn517vucKYMCYwAAOvxsDm4rc8kDWBPp+70+HrpSbReohfO/lVu6XJz/54f8y73b47ns/dUl8ZTDX/x25/hbCXHfUrAZSNncWn8iyH95bLl1u2W/ivcT6fL3MY7Z/P275oGPtWji99uCUv17YpIvibxa9y65mrYvxBOb72xZK9jHL3tXINuBxdjt31L9hsnF79/nktS7H+0v1xyOOV4xP7ufW4vHS0cQ79y69b7sm3+rLU7hHitzU+rxj/Un4oZ8INAzAAAzCQMbCp+M0mq1+H40esRK59+LcmD1nyW+futXGreLF+Nbmrk8Cp8LByTQqVj7MTAPeWt/Kx9vy9/lfhceoOh2MXxa/ivRBnYZK81tdYT/Z9Pss4bmQ/9jd3fCs/czaXyuonHU7Dpx1qPux4yuCSnUeV1+thfBkxjFc/Pjoerh99wsRdH0u+ffL9U7HbNeqvIZ1/la2Nwemw7w6Buzi+r+Av4pdJ3StwiA9wCAMw8G4MbCZ+tXKjyV+WCE0ghpVDt7qmsuO+rnrWOuPENxNj8VyduHx1dRJZV8/8RMuf9yJDvsqH0b9qw2JS2XHff2y6rAKN/k1s+xWiKya/5kecZMs3bdesDNWxGH1T22u2ilf5y2z6/N9bfo1va+pe77+NaxU3Ncej0LH+Mr6XxmqNn6qT91lZ0zW1xLfZKi8gBv6mMZQ47KOSQ3kuRArLDW4n9jcU5iWXp0N3OFZu7fiYiJBJ/+7+YbEt5Wdyja6Jz9nPxrqe6/3txa7GSv5k9xkri/8yvi7r+HuP3Zum4zsXv66H1v3V+lKdkY/19uVra3wmuXf8+fxM6iTjM+efyubik4+t7WhjN7CkumOZH4Pr77Gt/Iz28+ef/Ji2H19Gqnxuqz6y8Z3kPhkftW09/9TvxL9wf5jj09qrj9G/8WWs7LO9vHeQE3ICAzAAA9cxsJ34LR8LnE6W/GDowSYxZWXlgRtWTuzBpwlkVn7R3k2Shge4bBafLicopZ5rJz/Lg7s/H/3V8YV/wY7Z8D7K9tptyzdrXwXSZTyZ7Xv9iJPxKM7qxN+9HCiiahz/a8uzGO45d63/vq8Yq8oqXxI7dZJ6z1jLrm1b4+7HsfY/Tni9+JINXTt2XHh2E9C1/Mz54sVKsR/49zFds19iMV/3x3L91E+MXIr/ufiW8iN/WvHZ+Zb9muuRb7Ole4IxoH21j8fqu7XN7Pu6sud5K3G48Z2LX+0v7l+6V/bi/Vb75utc/hSL51nn4rbEEbiS/y3/VO7/FCGzE/vyx34MyrXicjvaH59PrfuEt+n35/Iz2h/v79H/eL1FH31fcV/2W/lT/db4qP0FP26con/xuMRjwlrMhedzjFc+sb1uUke+yBcMwAAMzDOwnfgN4icm3k8sVFYFisTEdKJrdXx5OXZf8KGHsSabVl4enpMJiwmUcTKhfrOHbNNe/3DPyrPJR2vyoL7nturDT1B8/Wtsx1x4O2v2y8TF51K5H/720fI6jtmQixvL1/h0TZ1r/fe25ya1tWwU/b7dPfvFXzeRlC0/5nFM4/WhNtoOY9L//be3pTrZNr8+Lq+l7JrO7K05N/q6746nY3c82hfSjXxlNsY29Qve1uYni2/Jfharv161b+Jg+JeMZ9aPnatcTcW1r5v3Px2Tufjln79fen7ute991X4cHzu/hsFsfJb8S+PTPWvl9x/4fn1uzO/Ufvluhsvni+Jf2vr8pPad/9Gf4pMrX+yr3JenfGU2W+Nzk3+hzzk+zf9SHj7NsBQX5fMTPPJDfmAABmDgkoHvE7/Jg9o/UP2+Bio+nP1xmQw5cWZt/ORFNrJtq549+LWyJX8kRHU8mTwmMbUmD5kf8VzWh+rMlamO3/qJlT+/Zr9OQqaTujo5t4n9eN77dG/5Gr/W1rnFf2+7xjKdKFp54aOfnFUWR158+1v255gUg6066q8KBCe+/CrLgpCUDdtm/aS2i9AbefA2rt0vOe/Foq4hz5fZS31w94DM78yPVr05+7VsyoT8s/HRvr8/lH6cf5kvOtdiblIebMU+W3GZjVi3nhvFc+n/DvvF3vDiyzEYbGpsFVe2zeJY8i+NL7k/Z/0V35Prw/ua2r9S/M7ylfTvY075uya+pG4Wk4/Z5yqre+mfG/fhJdB4f8jG1fdh+6WO2l7x8ija4fhyskdOyAkMwAAMVAa2E78L31CcPrzd5CF9uIY3xzZoejjbQ1KiQIO55uFqdVv1zPawamMPYPfwTf1LJhTyTz5ds1UfMS6zMVeW9dGKMavrz5V2TuCqTBM3P7mv5+rk5t5y9XPv9lb/fb9lUhdWIHysqpudU9m1Wz+RVFsJbOV8bkwzPrzNrFz9xG3Wj3/xFOtvcVx8ddebbNr1ZPFn/vv4rH7mt+z4bVZvyX4d6yB+y/2p5z8TL8n9y/vh9+NY+zLbT/t390+rk8UlO4pPLEWbW9n39644PtbnmvtjFseSf2l8yf1Z+Yjbaj/c/+0Z0Iv31H7If7Tpj9W+lR+VT8bH+Z/FX/IUXi74Pv1+1j67plvjs+jfilxk4+p99Pvqzz+DfTn7TOJhAAZgAAZuZWAz8WsO2IPTrwzaOX3bsx5m/uFf6s9MLkp5mBDXh7h9C+x0Ilr7Ok0Eaysp2UO4TgQubcqG/G9NTlTvmgmJ2vht5pvKS1kQZSqL29YkJtbzx2Wymghf1fHjZefi+NxbbjYlAuKX+ciHue29/st2tTNlQX55fufqXet/Zj/mc44NtRefOtbk3WJby0+rnzjeypffDv2u5FRt5/q0nMvuYnzhfiH7fpv1tWQ/igfV1+Q8uz+UflaKE/Ov5Ddcf2vvn9Y+i0txZ/758VS553tr/gYfF3KSxbHkn8rFh/VVrs+Fvob8OKE5nFt4ueHzpzatrXiRfzrW9bnkv8o1PvXeM4rzVr86H9vb+Ti+dq7FrNrLf6sb87uUj2xc5V+2zeoPebvy/pLZ5xwTZxiAARj4mQxsKn4NovLA0seWwu/8jg+u/g27m5jo4dpaeRWgQ71kkps9LC/aOd9KX85O9N2Xq9+5h7/1pXpDHM6+fJnbxkl2rBt91GTI16t5Hj9u5sta+xdjM+RpFIFLsd1bLt/KJCqIAJW1tlv4X/uNqz8u/jIZ9uV5jm/x3+K6iMFdH1Y+x3dpbxP4YdxO3WF/GH46SHlr8XMxdrLj+E3ruHL1cUv8rdjMlhgfJvzFt8v4WjZKbvqV2TE//Tg6/+fs1+vSj/34xUdN+2H8lJ+5bWt8ah/2MWXnQ7B/dfwu9nvtl/Yr+LtgqPfh4rzidD7OXR9qv3R/buXec6Y6smn8aX/Cj/NNbea2s3xlnxwIgnzCoI19KJ/r28rm8qe2F3GG8ZnL70VbG0OXo6v5DHxPYxjvy/Kd7c+cxDLujDsMwMC1DGwufq91QPX14PQPV5X57dp6vs2a/TqxmIoZTRaWfFpj/5o62UTsmvZzk4xr7DyrbhUA7zu5eXf/7x33nx7/vfl7RPtH3Tcf4Ss2mcjAAAzAAAzAAAw8ioG3E79lYp28Eb43QfWtfBC/7mNv99q/pv09orvG8Z7CcVzZwP9reHmVuu8+fq+Sx0f4gfhlEvEIrrAJVzAAAzAAA+/GwNuI37qaZB/5e5wwGvvQRwunYvg7B7cIiStFfp3gPs/n78wPfXGzhYH1DCB+1+cKrsgVDMAADMAADHwuAy8jfoHscyFjbBlbGIABGIABGIABGIABGICBZzOA+P0dCJ8NIf3DIAzAAAzAAAzAAAzAAAzAwKMZQPwifrtHQ4Z9bmQwAAMwAAMwAAMwAAMwAAPPZgDxi/hF/MIADMAADMAADMAADMAADMDAxzOA+AXyj4f82W+Y6J+3nDAAAzAAAzAAAzAAAzDwfAYQv4hfxC8MwAAMwAAMwAAMwAAMwAAMfDwDiF8g/3jIecv2/LdsjAFjAAMwAAMwAAMwAAMw8GwGEL+IX8QvDMAADMAADMAADMAADMAADHw8A4hfIP94yJ/9hon+ecsJAzAAAzAAAzAAAzAAA896p0psAAAgAElEQVRnAPGL+EX8wgAMwAAMwAAMwAAMwAAMwMDHM4D4BfKPh5y3bM9/y8YYMAYwAAMwAAMwAAMwAAPPZgDxi/hF/MIADMAADMAADMAADMAADMDAxzOA+AXyj4f82W+Y6J+3nDAAAzAAAzAAAzAAAzDwfAYQv4hfxC8MwAAMwAAMwAAMwAAMwAAMfDwDiF8g/3jIecv2/LdsjAFjAAMwAAMwAAMwAAMw8GwGEL+IX8QvDMAADMAADMAADMAADMAADHw8A4hfIP94yJ/9hon+ecsJAzAAAzAAAzAAAzAAA89nAPGL+EX8wgAMwAAMwAAMwAAMwAAMwMDHM4D4BfKPh5y3bM9/y8YYMAYwAAMwAAMwAAMwAAPPZuDHid/d7qs7nM7d+XTovna7Qfjp/HE/nrt2cL4Op+58Ptd/x/1g+1o7c/XlZ/R/rs13ls35tz+eu9PhK82L2i3lX/XuiX/3dehOGqdz26ct8ya/l+Kb6/M7+Jrr/x3KlOeMjzn+1sY2Z3+tjWfVe2d+lPd7rp9n5f2d+lWes+vnneLAVybXMAADMAADLQY2E79RUAwi8HzqDl+3C8qW4/ect0nwOYhTPfS3mFyVSWawf4+/sW3mf6zzzOOWf4WR8NJBfl6T/5Z92Zrb7nb77ng+d1uM81w/seya+GLbePxovmJ/dvzu1/cQQ4O/LObWuXv4s7atF0Ct/rY+/wx+1sbQys+W189aX96xXit/a2NRnp8lfu/1fynOe+3f237Jv3vLX92/e+OjPWIGBmBgCwY2E7/emVe/AZt/iN/HXUBZfo0PTawy4TlX5tmy/Zb9WC87riLu2O3dqn9Wb+tz18S31Pezxcs7Xt+W063G4B7+XiF3z+Znju9WfrYau7m+P6Gslb93ie3R/t9r/972jx6HV/fv0fFj/3HzOnJLbj+JgW8Tv1V0TFeB/blxclNX5urK8bS+Jd5u7sOq8garOBrMsf/+Y9HlY7G39Z9NLkf78/Gp3iPevA+2h4/8TkWg+W2rUsX/vs7Wq1S7/fHiI+c2BvLtuJ/Pv8br1u2c+JUPA1/n7fIj20vxreH7Hr5uzZtvl02w/LWsuv7cGP88/2vil/1bti3+ZKuUD9fHdqu0/poa+Zq+hFOOxvIpf/JxbrvG/4wf2VzK/6R8w+tjKT/KzRbXj2LNtq38jf2Pn2KKLFkMc/fPpXLzZ5Jf93wb+8+vn6X8ZbHGcxMb4ZNLS/2vL8/zN+nbXX/xJXX02R/Lh/H6GT/hs9b+JP+O75va+/Gz597xUP/kqnzySOM4nWNM+vft+z/XOu7VzuZBY9u1/vl8sY+YgQEY+KkMfJ/47W/eXkyVG3b/kPUPLq0MlnL3ACgPBvdQjsf3DGKz/5n+Wv37uORT076Lz+oO9cJ52bl1K7sX+Xf9DA/Q/pwXL7f2G9vVjx2PD22Vyz+buEzG3+VfdW/ZDrH5iVXZrwJD/T8qP7I/F1/kKR4r7nv4ko17tuaXz5PZUnz+vPdT5RfxO/5ivPH4Hp/VtsVficEmqG5CqTZbbrPclb5b90eXnyU/qnC7vLZiOz8uvizmOx5bO12b1q6UO/+KXbum7rh/LOXngh93f4j+xmMfa7Y/lz/x6+PPxK/514p/KT/RX3+s/j2f2ThaG38NZnEuncvsLvU/lof7t1gYxFsufuXTPf5nfsuutnP2rb0f35J/x7fZmGtf6jd4rGzV3JR65T5TX/Sqz9n2ff6+Y/yVK7YIIxiAgU9l4NvEryXQTxb0sNSNPx6X+uXvM+tkLpu0zq3iXTtgaf9ulfKa/rOHcGrfxXetv9fWz3IVYyp+u4d9LL+2z1b91flx+W/ZuvZ8lgezkZ2P8d+Tn3T8XXyxr5ZPdn51/h7EV2sC+MrXt+cky5+Vt+Lybe/db/Wxhr+lvlu2Y7ss/mv4kz0/3nbunutDNlsxbHn9qK+4bfVt9Zb6tzpL8c+VL+V/Tf/mw1wMMd7Wcc7HVKhZWz/+qX/u/pOWu/uffLnH/+K3W62VTb+9xr6PTzZa7RfHz8Wq/Con9rJisf03vDxQjGwRPDAAA5/OwPeKX/8wtG/cnQit5OEa61+s2k0/+nPPYOlBJDFutvzDr05O3UeuB18uV1r0cPP+pPZdfL7uI/Z9LLIffcr8Vt0tt/lEPxl/N2HYqv+sb7P96PzEXMc+34mvNRPAEs8LXd+en4yBbHx8m632m7lLWL/Gp2vqZtf5Gv7SOm6MM7vX5q2Zn4XJf+pbuUdf3p8zn5byl5XHe8ZS/HPlS/6v6d/iauUvi7l1LvNzqf+03D3f0vKE+Xv9L77r2exWYRXrnP10DBzfc/lN2zr+PCvKr3JSxG/4BYLyCQLffoH/NfGpDluEDQzAwE9n4FvFryVbDx97APiPZ+lBMBGf5YGgj6Xa37qsm8jcMqhp/+7hnL2ZbfWjh5svT+27+HzdR+zXh/P0bwhjTJnfj/DFbIoD2U/z4/KvevduszyYzez8lvlZii/2NRdnNk6p/QfxFcfO+6qyV7u+vY+2Lz91Xvnz9ySVbbmN/cr2Gv5UN9te43/Oz/z9NbPvJ/TmU2Y383XuXDM/C5P/a66frP8sPl9P5ZPnU7g/LcU/V77k/5r+zd9W/nwsS/uZn0v9p+Xu/pOWh/xt5b/ZUX/xb4Zb+VF9f/1Hvuf8Wxw/F6vy6/tcbL/Av8a0FZ/K2SJ6YAAGYOB3077dP/7xj7v+/fanP/1p8tutczfgOsk7dadTFGKXK39mxz+84vGWA6gH0dzkZm3/erh5/zL7mT3VOy98fMvbXrMvu/7hXvp3b7Yzv9fYvqVOnFjIv7n839JPbJOJDKuj/h+VH9mfiy/jIfpvx9k4ZfYze3WSZZ9gmF5/WT+tc2bX58nXe9Xr2/to+5E/O1fyekdeYh/ZcenDXXOqo/HzeY3Xp+q2tmv9z/gxmxkv6kvciF8d6+9brV7Lrmys2S7lR/2brTiGc/6v7ntm/L39yvn4971mfyn+pXJvP/orPubiH3xI+Ir25o4zP5f6z8pjPP44y99W/iu2LI5yLsmPeFZ+dez5XvLPxycftPWsyi/lTNf8bPuV4rcV3+BHWY2/7/4vW2wRUTAAA+/KwPeL3/4m7kWtJU8PgvHjPlPhu7bOrQOh/vXwK/25t7VL/av9xH/72FL/0au0PPlYlvVTHoLui59ujSm2Gx7o+lhYmATooRzbPeJY+VC+47H16ScMW/nQEr+lv2Fi0H+8fcP8rIlPdSYMzfFzA18jAw8Svy96fUd+lGvxp/JyDej6OLdFvupfu1W/wxi7e8A4Njl/a/pq+X/Rr2Kc9F9fQA6+Ob6s73I9qp19Cmc//dOVLe4fF34G/v14xfvDRdvg/z35K/GXlcx+bEwk27G7RyzFv1Q+57/K5uIvPur60zi58Z2LX/YnY+/yp/JW/yqftA99D4K3+HaZv839d2Oj2C/8dD4u8b3k34Vtnz83lxAHqi/xq+Mshypr5X9NfNV/fVv07fd/9cUW4QMDMPCuDDxE/M4lI7uJW/3W+Tlb71R2TXzl4TizAvFOcc/5Gievc3Upm7/JXsPXI3PZ8qN1/pG+LNmGv3mmlvJHOfkTA694fcs3tnAKAzAAAzDgGfh28VuE3cwbWf9m0zv67vtrJgfjm3Heyr77eH+3/2v4+g6ffur1/R25pQ8e3q/KwKvcf141P/jFtQsDMAADr8PAt4nfuprZ/luTT394fnp8XNTPvaifzddPv77h/7n8k//n5v/Z9x/G/7njT/7JPwzAwDsx8G3i952Sgq9cxDAAAzAAAzAAAzAAAzAAAzDwWQwgfn//rAHlAmU8YQAGYAAGYAAGYAAGYAAGYOCSAcQv4nfyM1VcJJcXCTkhJzAAAzAAAzAAAzAAAzDw/gwgfhG/iF8YgAEYgAEYgAEYgAEYgAEY+HgGEL9A/vGQ85bu/d/SMYaMIQzAAAzAAAzAAAzAwL0MIH4Rv4hfGIABGIABGIABGIABGIABGPh4BhC/QP7xkN/7hoj2vGWEARiAARiAARiAARiAgfdnAPGL+EX8wgAMwAAMwAAMwAAMwAAMwMDHM4D4BfKPh5y3dO//lo4xZAxhAAZgAAZgAAZgAAbuZQDxi/hF/MIADMAADMAADMAADMAADMDAxzOA+AXyj4f83jdEtOctIwzAAAzAAAzAAAzAAAy8PwOIX8Qv4hcGYAAGYAAGYAAGYAAGYAAGPp4BxC+QfzzkvKV7/7d0jCFjCAMwAAMwAAMwAAMwcC8DiF/EL+IXBmAABmAABmAABmAABmAABj6eAcQvkH885Pe+IaI9bxlhAAZgAAZgAAZgAAZg4P0ZQPwifhG/MAADMAADMAADMAADMAADMPDxDCB+gfzjIect3fu/pWMMGUMYgAEYgAEYgAEYgIF7GUD8In4RvzAAAzAAAzAAAzAAAzAAAzDw8QwgfoH84yG/9w0R7XnLCAMwAAMwAAMwAAMwAAPvz8Dbid/d7qs7nM7d+XTovna7lxNuX4dTdz6f678ZH3dfh+40U/6Mi6vm9tQdvvK8Drnv4zsdvl4u/8/I2yf1OYzxBmzu9seXvU6fNWZL+S33Bd0/zpfX4lz7yb3nuP/2a3Ouf/l93Of3lu8aD/lx6/PjmvbP4H+Nf1PGzp2/j69pv3asrolf/T6aD/Vz6/j72K+Jz7dj/3kT5y3Hn3F83jiSe3J/LwObid/dbt8dz9MHaZ0MXU7g7nH61ptXfOAXgeomiIPdYeJ5m8AuMTu7WazK1aMf9FnfS+fKA/187PYLLxb2x+lYL9ldW177718eBJ7W2rin3qPiusen725rOTgvMLzGJyaH+QOqld96jxrvl/X48lpstdeYrLkHqe4jtln/ur8++p635vpdyt9cThTHGvH0CP6X4lvyb+nZs9R+Ljex7Jr41e+j+TAf7xl/H+M18fl2P3Vf7GlxwL90UU7K2GgOFl7Armlvdoa5Xmg/6WOD55vssc2fc+SFvLwyA9uJ37KSeRpWM+vDzI7HydwzExEnknrYahKjYz18dXytCMgmfjHupQlMrP/dx7fGcO9koPQbVru+DsfmSvQj8vLqY/OImKNNJoePfWhl+dX9RvcfjYldE3GSmLVXfduuuX59/a33s/5b8W3d95rrdyl/W/l07/0w82NNfFk7nYvPQZ1/xPaa+L+LD4tzq/G/Jr5H5PfdbFredX+rHE7nhmVcesEqHvz8a6m95UPtjsf2p462Gv93yz/+Pva5Tn7fK78bi99DdzjWG5rd3I6HfXcI4rfcePRmL6wwaqJXJk99HT/x8+f9TdFD17KfPfT9DXi4abqP5WWTON9Xtr/UJvPD7Iz91xX0+nZ0+nBQHb05Pbv8qey4b7e3fib5abwZrW9Yp33HWM2OHxuVV/uXq1Uqb231VlcPx6ye5db69BxEH5bim5S7/HmbY34vV0An7Rv5y3wfx2f82GecPKmO7z/mY67/NfnJfLvm3Fz/ZmdSbtdwmMz4eGL8c36UusdD/ZOHs02ixPmU02n/I4fK7djOPl0wbXvp/9jeymTDj4/t+5gm/V/Dh31EPFmNqHFf9xHmwnJmS38y0rj/lhjNj6H88hqfxOeuHz92Wf/K3XHf/9lK6WOaf9UZ+1/Ov3K/9vr1fl67P+kjya/Zm+Zn5F99TcodH4q9xeekbzc+nplJnYZ/reeP+bemfcv/ND7z08WoOtl2jD/nwz+r1T47p7Jbt7fGN/rfvr/P+fTp97cYu/Kl53c255gb39he9gvDxtyNf3Iju2u5Vb9s30v4MF6M1+bi1246VaDYil19kPkJivYNvvKgcQ/H4eHbn2vd/Eq95OFu51v2q618MmX+6qan9vF47cXS8k3tW+Xqz0/IfV2V62Fh9kq5cjVMbMcJpW8/5NvlreTfHctH1fV9+bKl8tJvIiyiDX+cjY8vt/1qd5xQRT5iPPHY2mt8zV7kT+dacUd78Tj66481fr7/KP7iePn28s1PdmP/S/mJ9q49jv0tHfv41sQ/50+x1QvN0m/ha/39Rf23ri/re4kPH6/seVZ8udmLx3PxqW+9BKoC8Njtb/hugIyjzN9Sz91/a47H+0f0Vz7qfInPtdf5uf79ywJfb41/vr76ilvzyY9JLN/iuOVHHG/Pv/Uby/2x4p/jUzaW4sv8K+e8aB72p89E6yNrr77n7j8+Hqsf47dzrX9j/OPLpMpj9U/lPvaWn60+ls5H/5eOfXzyb+7+Ptd/jbXGXvr9sPtbjF33OeXLj7XVrc/2+udPquNtxPZjm3r/8mPj2y3taxwRv+1rdSmHlJO7d2BgO/E7vGnbd8fTsTse7QupppPTmJB4gyoPMzeZyt4Gmo21Dz1vPxNXutHZA1X746rD5apf9D87nvNNffgHuGyozN/ol/231a/+Zp/ketK+/E32dGKb5UT+xLHQeW3tAZ3FofLSd1gVU1m2rfUvJ2K+bvTJ8+H31WYuPqvj86M2rbhusS+bpa+F8bE6Jb7Gatqa/ufy4325ZX+p/7R8uCfshuurxfeST36sSpzH/WCzxaFvs3R9Zf0vtZcf1jaN34RrYzx9f9W3em2Kv4HdrcRv4kv0WX173+b2fX58PZ8XnV/K/xCv+66B6F+xu5DPa2OQf9ds8/jGe7Fs+fzEWKyOj3kpP7K5Jr7MP7X3fepc3Gbtl/2fjz/2EY/T+MMza5rP+blFtL90fG98qf/u/rfYv6ur/Mvmu9/fstiNYy8wh7Et9yl9Kqc9xrG99eGvjcGeu59kfnAOoQYDP5OBbcVvv4qom5Bu3prw1gfv+GVGRWg6saub/hKMrXpz9rOHvvyzh4v25av5UPpx/i35NbRprKZmfchmVuZv4H4/a7PYfniohPw3Vmiz/tSvbTXG/pzfH8ZiZf5KfwsT29a4W79Df8OKhuIcBX9aJ/jXiittW/oa7fv44/7S+Kh+iVExOI7W9D+XH9m/dbvUfy2fvrzwDK2Nv+Wft6U4ZVOTw9THfnxV11/f3qb1O9feyo0NrXzJ3mzfK/motix3NtmrPA2+bSV+3eRaOVYMlhO/r/K4XcqP6mt8dGzbzP4Q426XvojK2rSuD/XVun5VvsU2jS97ueBynubO8ZHF6vMjv9fEl/mn9tWP6XWqMm2z9ov+L8Qv261tGn8Uv+64+BPu3S3ba87fG1/qvxv/JR/8WCv/sjl7j3mD+1uMvcQX5h0lfnc9WBvF7+/Zdr7Z3vHg8xn75/hnih3GnXH3DDxE/PoO7GHtJ1e6kVudeIPSTd+3z/azerpRtuxnD/16rp9sZitzyQM988efy3xTeeZjLPM3ep+f1H8/Gcj8dw/f7M22+s62c3FY/blJWGkbHm5ZH/5c9W/8yJsv0/6cT0vxZbn3+VUfrbiW7Kt9a6v+W+Mb26n+KLYuV1Zim7n8xLrXHi/Fn/FZ/Llicjbnkx8rxakc2TXv92XHt1F5K/8qb90/zKax0fpkyFJ+5FO2rW1NkNgYV2FSfLfVbbuG3UuQrH08p/z489n4eJ+z+Cft+/vLXH5UP+1/6f6U3Gu9f7KtrfyNuWldv2q3xTaNL/G/1Bv4n79+FU+LT/m9Jr7MP7XPOFCZtln7ubGwdpldH79st7Zp/O75pnaK32x7FlV+6/be+FL/3fN3yS9/r1L+ZfPd728+9hJbMjeo/Eyf//Xc9OVyq/3FvVkvkK/49Jn3k32EEgx8NgObiV/dsCMweljVh8t4c9Ox/+hLy0a0mdWTPU0edCz78eE8lPcTSz1o1N76LP24t4nRj+w4883Xa5Vn/fsHosr9A7/c8IfJ1eVHhHx786HUXzmR1rh53/1+q7z0sbCC6+34/do2PuzGb3tu5U42SvtGfBpvja+OxYdszI35nH21n9v69nrYx/59+xivb+/raT/W1/mttnP9Rz4LezYBcdePb78mfu+3Z1lx+j41nq3xVV2Vm21vc7n9KEy9X37fx+fPL+1X36bi12zZtW6xep+XbFm58uPrKv7W/WNo17h2l/Lj+5rr38cyzX+9f8355/sY/A3Xe+nbMRfbbHE8F5/8X+I/+qHxaeVH9dfEl/mn9vE5qPN+22o/x7f8n4vf9xH31d7Hn/VX/bdfkZhfvY721xxn/amd/JuLz7fn/nY5ca7XxPT5rvzatuTPXbs+n1a+1N7b8vcWf35pX+Psv0x0qQ3ll2NNTsjJqzPwbeLXEjFMCPTxlv1h+GkkK289dEvbfuVgsvJidtzkZ87+8DBqvBEcb3pudcfdiNcO5FwMJY5khcDH5x/+8QauCeiQA+ef/J9vXyeYQ/uQP8VY+2k/pKyePZg0ERjaXfGmW23ituTPjZHvYzG3GSMr+ZAfyuOQI99+wb5stLZTBqdfZnTRr+XAja/ZTOs4/5by0/Jr7fml/ifxme+Bh0m5iSy7FkKMLV/8taA45Y8Ymb3+F1YeS37N34G9U3fI7k9DeX+fcPmXP6ON6f2pGVvxrV5vZcJXft/6UH43PTIwb8Pdu+TnxD8T8K5Okvu5629NfiexW199/8rN/P2p7Z/aT+wn/l/Uc/G3crfm/IVd5dHZn/Cd8T9z/5D9ufyYn6o35CHkdzif+FfaLzx/5tpf9O3Gd7Td85XEP5fnJdtqO9RzeVfZvdvBtnJ3ZXyT8ef+Nvlys4u5y5Dj8SXGRf7dGK9p78ffPy/8+TX7ugf7a3FNO+og+GDgfRjYTPwy6HXQNTGfy0cmHOfqf3fZJ8Tw3Tmjv/e56d0yVnViO30hpAnZFpMku+Yk4m/xjzafzR/jW8dXAmmLa46cjtfMo+9v75Tr+gJwFOXv5Du+jkyTC3IxxwDid+bnF+YS1ypbIxy3nDS3/Lj1fF3dWb7xv7qAvzV+2nHDzBio10UQv2UVbXoua7vmXJx8lkn+4brf913TD3Xg+50ZKM/XZMX/nWN6Bd8ffX97hRiXfBhX7pfnP0u2KOc+CwOvzQDi9xHiVx/pmXlIlxvtTPkzLpz6Vr09mddbd300jpWq1764n8HQLX3qZZC4uti6j7/dYn+rNnVFwH1sOPnilnv6qhPQ0T6rW1xf9/D0SW3Ha+/9hMmn39/eJb5Puh6IhWcDDNzHAOJ3Y/ELkPcBSf7IHwzAAAzAAAzAAAzAAAzAwCMYQPwifidfTPEIyLDJzQsGYAAGYAAGYAAGYAAGYODZDCB+Eb+IXxiAARiAARiAARiAARiAARj4eAYQv0D+cpCPXzxR//4x/m3xUvmz3yip//I3nDf+Xfcr/k244nrV7dLfrL+q3/jFW3AYgAEYgAEYgAEY+B4GNhW/8QuR3u2Hwuf8V5m+hEbHa3+Hcy3Q+o258qU/NwqntX29Yj19eYbyHH1cKo/1rz3e8lusbxW/czHey8dS+7ly+aUvpIovJa7N9SPq1y+Ner8vxXlELrD5PQ9R8kyeYQAGYAAGYOB9GNhM/A5i0H0za51Iv8dENPPf/6yCyiXKfNlWwJd89YJX/Z1dPrfq55Xt1FXdNjNL5ffGZmOwlai7Vfy2fLiXj6X2a8rFfx2H9jeD3zsO97Qv1+YPu27uyRdt3+eBzVgxVjAAAzAAAzBwHwPbid/9sYsrvVopsgmzxJwmzzZwmTgoE/DGTwXZpNaESZnc9nUkVLLJeHauBUy2YuR9nuyX3/dsC7RWH3Pna66mYuIa/832XH6sXDFo5c6PV0sw2HgMOd59dYfT+FMsZseP51x8KpuM7/kyhzXmy/Nqv1Q+sZ+snNdxHmNQbJ6pMT/nLr58WLI/KTdGEx8US7ZtxXcvH0vtl8qjr2JJ+Yvl2bHa+PxGfib5S3LXGj/fXxaLL2f/vocG+SN/MAADMAADMAAD78rAZuK3iIdksloms8f9ILz8ZDeKX9VVMuPxIFD6frw41MTaT8Zbgk72/bZV13wwm7J/3FcB6OPwdm7dj+K7xlZF2tq+bsqPcmkvLxrjp/5bOVobs7WXLWtTxrfvc/BdLz6GbRXCS+WDPbfiF/mpOZ6+YIi+a7zj+TX20/6SnGa2da6V43v5WGq/VC7/tK0C87qXH63YZDPmLx6vGT9vy98LdJ4tD2sYgAEYgAEYgAEY+LkMbCt+nfAQVJrAjuJxN3zBUpnMSnzt9t3xPBUmcRWsTJ6dmIgrPFN714lU+Sm/tbXzXvzaqtUjJtWD72VV2USv5eK6GObyE3Np8fn8lXInRH3MEqzFfrJaq1xdux1i3jkmFlbVszhiLPIj1tVYqjzbtur4XKmdt5+WN14oqH3c6hrJ+Bpy9f+3d7ZXyvM6FG3gpZi71vRCJzSSSuiDnnKXbE6iGNlOIMzwhP1jVj5sy7K0Q3ziwDzJR699r7z0NV0v7losy6PjFj9h/AoWarmp9rXRv8gO57735kjuyT0MwAAMwAAMHI+BfcVvMNnUhFUTewkpg2macJ9OYxYS8+uo86uRsyBOk+dAYAtMP4FO9gJ/VLfc1mw/+m8ifduKV9lXdJxikVY75/FGMYva6lxtDFbuY6363n6Ona2y/oyXYRiH4TL+pNecZ3+sXRYw9zw1cqE+/DbMcZEjLyh9W+3XykPbLp5+rLIVbZXvsqxrvxBq1j6KeWnXH7d8fJWPXvteufczM7Dkwpe39mv8dON7f+Xef360+tka+5Ytyo534yOn5BQGYAAGYAAGvpOB3cRvnjwvv6uZBVUWitHE3k9QvXCtwdgSd2oj8WJ1oxU01Su33heV1fzPY31u8i/b5VaTfz+5z+fW99OKT7YV5Sfbn8Tvz2UcLj/jebDzJvSXbeS38ll+J1bl5Vb1fU7CmAci0tuKxmHlPX6i/r1d7YsfHWvbtR/4nfJRiHvZi7YtH1/lo9e+Vy5/05iKNzRUtmWrsYqfbnzv4tfz0+qvdS202lH2nTdC8k7eYQAGYAAGYOA7GNhP/KbXlpc/EGRCwn+PNB3fVws12a6VRwCumdBmu9fxeo1FW2TXzuXJ9/KVZu+/JusSp1kEPPYhO/7HpGp9lldfEvkAACAASURBVOd9f1bm41XWjY5b8ZH/Xjz4/nL5dRyG/L1cE6bXYRivDfHW6q/0T3FR/HTs829tcv4e4yp7rfJevGo5k23bpjqVMbfsl/HND0iW/Pt+avutmPp8WfvInymuwUOLXvte+d4PfcqxRuPxcVqTP9U3W551nWf7HTc28kyeYQAGYAAGYAAGIgZ2E79mfJ5431+LLUTEJHjT66jDeLbVMldHAmJ+5XkppsvJcjSgycbGV3J7/svuLN70y8ePQi1N4p9YHVMf0/g3jqEXn15+st95PFNdPay4r7xNvlkOXe6iXJTnJkGo15HPy/ynHAQrqN5OS/w+xM/6KWKYBdT8en0pkB5suPYPZYX9Bd8Wm43f+e2N/6F/55tiNOUtEL+99q3y2e4cu8zCI//yxW8fbAf8hHWKMfbyl2IY/H6A94V9boYwAAMwAAMwAAMw8J0M7Cp+BVFPhKneO7aaQEukvqOPns08QV8nCnq2KP++C5NVy9dy/pefP1yvr+WO+BE/GIABGIABGICBdzLwFvErATqtEm5cIXxlwGni+4v9eV/nlT+Er48L+9s+xLTK+pcPcP7VnOW3C7j+/tX84fe2zwriRbxgAAZgAAZgYBsDbxG/f5GEvNpqr2Qy8f2L+NPntguvF6/0IOWPHuL0fPvU8vzQbf0PxH3qOPBr32uJeBJPGIABGIABGIABMXAY8asBsQVuGIABGIABGIABGIABGIABGICBkgHE739AUULBMUzAAAzAAAzAAAzAAAzAAAwcjQHEL+J3PBrUjIcPahiAARiAARiAARiAARiAgZIBxC/iF/ELAzAAAzAAAzAAAzAAAzAAA4dnAPEL5IeHvHziwzFPAWEABmAABmAABmAABmDg+xhA/CJ+Eb8wAAMwAAMwAAMwAAMwAAMwcHgGEL9AfnjIear3fU/1yDk5hwEYgAEYgAEYgAEYKBlA/CJ+Eb8wAAMwAAMwAAMwAAMwAAMwcHgGEL9AfnjIyyc+HPMUEAZgAAZgAAZgAAZgAAa+jwHEL+IX8QsDMAADMAADMAADMAADMAADh2cA8Qvkh4ecp3rf91SPnJNzGIABGIABGIABGICBkgHEL+IX8QsDMAADMAADMAADMAADMAADh2cA8Qvkh4e8fOLDMU8BYQAGYAAGYAAGYAAGYOD7GED8In4RvzAAAzAAAzAAAzAAAzAAAzBweAYQv0B+eMh5qvd9T/XIOTmHARiAARiAARiAARgoGUD8In4RvzAAAzAAAzAAAzAAAzAAAzBweAYQv0B+eMjLJz4c8xQQBmAABmAABmAABmAABr6PAcQv4hfxCwMwAAMwAAMwAAMwAAMwAAOHZwDxC+SHh5ynet/3VI+ck3MYgAEYgAEYgAEYgIGSgX9O/J5OP+Plehtv18v4czp9nHD7uVzH2+2W/xo+nn4u47VRXibqN45zbK/j5SeO6xT7+/iul5+Pi/9vxOnZPhZsDOeH2PXKn+13S7spx0+y2Wr/CePbEou/qmtxGs7xNbjGp1fbr+nj2TotPrbaPJ2Hj70PbB3LXvV78U33Hd2fbo+f9a32f339tvqX369cN3vkQH586vxkjzFiAyEBAzDwrzOwm/g9nc7jcLuNXhDlm9XjDfaVoD17c1ne9O/i1AmQye40MXhOYKcxO7vRWBWrv75Rh77ZhPI2jOfOg4XzsMx1ZOuZc2lC63LgeXrG3tY27xqX96PHSK/c29J+yO+KPKq9tpOdN4hf9fHM+NT2yFtjzz4T7BqwrcVpC/+vtrfY/gb/1set8xm5Js+I33gCVotvvgfO9+N8/PhZX2uvnPz19Rv1r8+td99T11wfvfgpjmxjfokLcYEBGHg3A/uJ37SSeZ1WM/PNyI7nm+27B9OyX97odbPUE1od6+ap462TtOjGXPq15gZatvnN42fH8OpkNPVbrEach8fJ2Ttj8Ru56cW3Vx6NX7yKX6uTJmFPCODI/p7nnhnfnv1/sq2cs/xwbovw1Zj2aP9Mv+p/zTb5iPh9ePNjTezW1IniG30+mC27Fst8R+19v399/Ub918bn/d5j32JTxqu024tfWZ9jJvowAAMw8LsM7Cx+L+NlyGLXxOZwOY+XQvymG8O0srcUNroRp5vbvY6/0fjzNVFas1+KXwMtn7v7e3+d2ouH6CbbA7TXJvIj+TL1n1fQ86vTywcHusFPr1U7YaOy4Vxvb/0s4lNZ3csr08u+y3GbHZ8blWf7y7yqrLX1uajVs9han56D0ofF+DbEx9uc47t9harWvx9Tj5Feubel/Tn/8+uyZUzNbit+ixgU4qS0Zf2W51rt5adtW+NbxK/gU2Nc5OeWV0tlf2t7f73LRm372P/Mucp611/Nts77GJZsq05r+2x7324RX8eBxjiXz+Nv+bSlrJU/s7Mot3vEnRH55vO55WFcqjtc8ldqElP6HF1+Di77n8c/96929gBj2fbR/7m9lcnGHN/8EMSPadF/cX204pzH9/hVi9r5lq3a9fvo/3J8aYzpzaL7m1fFm2JWvhif+/z2/kT9q+/hfP9aVJo/LOOvOnN8l/49ls+fLWuuD+9jbX/qY0PuarY4/7uTZeJNvGHgOAzsLn5/zsN9gj2Ml598I9LN224g2jeI0o3O3QSmG4wmNLaaHEwgopuf2WvZzxP1+GZnk0zdlORfebwW+ppval8rV39+wuTrqtxPiFO5YqXvQrt4+fZTvN1kNsXfHctH1fV9+bJeeerX+VG2jY79WKJyO5ftuglvwYeVK39W3/Ol+NXiqz6tTWvcqhdtW/37+mkclbhbvV65t6V9jc+PvypOxUwRP9mK+pd9H5tUz12/rfYqs21k386XPLaOI39a9Vv9et9q+1F/fvwq7/FVs2/nxZ4JEsuj2ffxbrXdo723Ufal8Xl//PjL+s8c9/JXlifhJpanh4fu4c+G7wQnW/cHKamf9Pm1/v6l+LTyb/Hy12fqx10/fnyy5+Pty5Wr2kPgMv7qW1+5yQJwGM/pja1tv5+R8l58fkX+lnzkGC8FqfdTPupcGR+db/Vv41KMfb01/vn66qvcmk8+J2V571h+6KFNrz7lx5lsk0tyCQOfw8B+4neaaJzH4TqMw2A31OXkoUy8n7xYWbr5uMlAbQVyzU3K7Hn7a8Xv/FR4+6rfNIZiYqBx68YX3TxVphv3Ov9tlSFPJrrt03eylxOPKCbytcyFzmvbmwT4yaTatLa+v+UEbfbZ1zFbNT7UzyL/AYu+XG1641K9NdvIvrXr8dsrj/qO8l9OHtfGr9a/bx/1J79q7VvlUS49n1F/vp9e+ynuldUk+Vbbel9Ux/cZ+VfLv9rXtjYu/zlQq1c7/0r7Gv+98dd8WXvex1JtfJ9h+XTPOT08vDQbW+Lv64or5TT6vC7tq67Pm7epMfmtL4/ay4/U18bP70U/6bMvf44qv1Ns9xK/6UFa+XB5vj+ZP+rb+9ba9/Hx9XxcdD6Kn28/jdf9lkXJVLLb+XzYOgb5x/ZzJr3kglzAAAzsK37vok83iPKGlG9A8ytPSWg6sRvd1CJIa/Va9uObXxbnNrkpfbV+Uz/Ov8iX8lzNN6sX9aH2Udni5u0melGbbvs0OSliH7waNtkO+lOZbZVjf87vT7lYGb8o1uHkpPJgwfqe+ry/Mu/56sVHvvfGpXrRttW/r99ixOr1yr0t7Wt8rYc3a+3W6uV85AludD3Jl1r7VnkYu4JPy41WujReCZM17a3/5Jv4aLAkX7X11+J0zj1QkT9bxI/sfNK2xn9v/K+OoZe/iDfv06vx97bEr2w2Gbt/vqluK//hGN3n4x58R3nIvtl1a/e7+8NSfb7vJX5lbyEu54ffUXxKX3vxUX3lR8e2jez7nPp9tYva9D4fateHbLJlUg0DMAADn8/AW8SvT7zdLGxCoBuNJhJWp7whRTc1b0v7Ub2e/XDylAThfTLgJrLqJ2qjsto28k11Ix/LstrkKfLFi0PZrrYPVg7Ud7RtjcPqtyYBqe3G157z+OZVXuvDj8+OWz5p/DW+VF6Lj2LQGpfqRFvZr/Xv27TGYfV65d6W9tW/H5/KtF1rt1Vvup5tslsRj6325ktUXuZaPvut9V0T92vae1uKV20Mvq7tv3r9lfY+9bjGf2/8r46nl7+o/8TRBvHZ8tHfi8SnGLFr2u/Ljm+jcn/9ReWtz4c9+ZaPts2xNfFrK7H3h1f36zf5WLmOvQ2/r/j4c1F+fE4VHz/+Rfv7/deX+/j5umH/0f3bCfKef96+7cvf8vOhdn2U7Tn+/MkvOSJHMPC9DOwmfqMbkoGlm0W+Ec7fx9Gx/+5LzUYJaFRP9jT50LHslze/qfx+49fNTu2tz9SPezJf+hEdR775erXyqH9/81e5nxykydKGyV+qv3Kio7x53/1+rTz10Xl1zNvx+2XbnKNZENdiZzaUT+VPx1P+O5Mj+fFMztf0L/u2bY1jTbm3pX3xofHrvN/2+lXdVj1Nls/3H7ZTG79ttbd6tfKU/wqfOZ954u778vut9r6e9mt+qNxvFd9Xrj9v79n9iesnr7FevykmwWdeb/w9u2vKW/kr+08c2gq+89W3z5/3y/KWD/6zVlz4PhV3XV86Vv+qq3Lry9tUfZXreG4/C9Oan358tTrR+ezbUvyaLWPZxiqforbROcXHl2n8tevD6qZ2FW4VD/miY8XH99XqX+2t/jL+81tespXi6fjReW2jftK5Rhu1rW0VpzX/TrBmg/PfO2En9+QeBvZh4NfEryVsmrDodcbzZfrXSFYe3WyU6Pmm0Vj9sSe9eqXRVh6d/WkyNJXPQjz5dhdHc/v1Eyf52BtD6if4bpTvv3bzznVsguTG727Cik+7fZ4ALMYYiI088ZhFp/Vd/mny5M/7yYY/v2U/TUj8GN1kqcWH9dHia018ko2SgyA+tfGs6X8Rexvn3b78q5XX+tR5tff5V5m2rfipfa//qZ5jz+xP5xe52za+0IaLf/K/Yr/qQyu+xRgUp9p2mpDLB9devvv473E9lL7MPrQfBJTt1h5rHBMHLv5z3/fPIDf+tfZb9R76dteHtVt8hlvfbmXvodw+Nza80utzpetE/kjQrbm+W/lvtTf/X+G7H9f8ea7P1+vlku8lK3OoWExc6BrYyEc5RsU25a91/y4/l4v+5V8z/mnlu33/XIwviI36meq58bdy4MuUA++rL2f/cb5BTIgJDMDAngzsJn73dOpftqWJU2sMkXBs1f/tsiOM4bdjRn/v/WDOwmf5QEZijEnke2MP2++P77v5ts90LzTJ6ftzWotxfgDwnodXtT45/3f5JvbEHgY+jwHEb7Cq+Qqoa4TjJ0/a8+pE/8b86QL+lRzS9vM+qDKXhfh139knZ5+XM3KyPifv5rsU12kF8/L4f3/J2fqcbY3V/OZC//661Tb135c3YktsYeB4DCB+3yF+9UpW8NqULqJ0I2yUq95vbvMrXUuB4fsvX/liJeF4Hwg+35+2n1dM3GuLG39U7dPGgz+/c/3oYeP0qqo+n7V94tXVd+Tu3XwvX7tefu3nHePB5u/wTZyJMwzAAAxsYwDxu7P4BcBtABIv4gUDMAADMAADMAADMAADMPAbDCB+Eb8PP2b1G+DRBx9wMAADMAADMAADMAADMAADv8kA4hfxi/iFARiAARiAARiAARiAARiAgcMzgPgF8o+DfP5hkPz9zvK7xb3y33x61Oorfcfuye91f+J3wltj/YSy3nfWP8FHfODpNgzAAAzAAAzAAAz8HQO7it/yB5H+tX/k3vJfZfq3Kjq+PSluatDrfwCmH2fZ2Xatz086rx+nUZxL33rlZf2tx3v+ivWz4rc1xlf56LVvlcsv/XBQ+VBia6zfUT//qA+/pvqO2GLz727UxJ7YwwAMwAAMwMA+DOwmficx6H45M0+k/42JaOR/+vXNuwBVuUSZL9sLxhSvor+bi+de/XyynbyqW2emV/7q2CwHe4m6Z8VvzYdX+ei1X1Mu/nMe6r8M/moeXmmfrs0vu25eiRdt97mZEkfiCAMwAAMwAAOfz8B+4vc8jOVKr1aKbMJcikeDIxIHaQKuf0FRrHzapNaESZrc3utIqEST8ehcDcpoxcj7vNhP/1+0LtBqfbTO51gtxcQW/812Kz5WrjFo5c7nqyYYLB9TjE8/4+Xq/9XM9n+Xscjv7TGGecyP5xW7XvnCfsFPikHidB6DxuaZmuNzG8uHDz37i3JjNPBBY4m2tfG9ykevfa+89FUsKX5leXSsNj6+EtOqv4hfELt8nT7mT+1tG43Fl7P/+TcmckSOYAAGYAAGYAAG3sHAbuI3iYdgspoms8N5El5+sluKX9XVQMvjSaDc+/HiUBNrPxmvCTrZ99taXfPBbMr+cM4C0I/D23l2vxTfeWx5kr+2r6fio1iaKKzkT/3XYrR2zNZetqxNyu+9z8l3PfiYtlkI98one27Fr+Qnx3j5gKH0Xfkuz6+xH/YXxDSyrXO1GL/KR699r1z+aZsF5raHH7WxyWYZv/J4Tf68Lf9ZoPNsuZHCAAzAAAzAAAzAwPcysK/4dcJDUGkCO4vH0/QDS2kyK/F1Oo/DbSlMylWwNHl2YqJc4Vna2yZS5af81tbOe/Frq1bvmFRPvqdVZRO9FottY2jFp4yljc/HL5U7IerHLMGa7AertYrV1u005pNjorOqHo2jHIv8KOsqlyqPtrU6PlZq5+2H5ZUHCmpfbnWNRHxNsXqSj177Xnnpa7pe3LVYlkfHLX7C+BUs1HJT7Wujf5Edzn3vzZHck3sYgAEYgAEYOB4D+4rfYLKpCasm9hJSBtM04T6dxiwk5tcZ51cjZ0GcJs+BwBaYfgKd7AX+qG65rdl+9N9E+rYVr7Kv6DjFIq12zuONYha11bnaGKzcx1r1vf0cO1tl/RkvwzAOw2X8Sa85z/5Yuyxg7nlq5EJ9+G2Y4yJHXlD6ttqvlYe2XTz9WGUr2irfZVnXfiHUrH0U89KuP275+Cofvfa9cu9nZmDJhS9v7df46cb3/sq9//xo9bM19i1blB3vxkdOySkMwAAMwAAMfCcDu4nfPHleflczC6osFKOJvZ+geuFag7El7tRG4sXqRitoqlduvS8qq/mfx/rc5F+2y60m/35yn8+t76cVn2wryk+2P4nfn8s4XH7G82DnTegv28hv5bP8TqzKy63q+5yEMQ9EpLcVjcPKe/xE/Xu72hc/Ota2az/wO+WjEPeyF21bPr7KR699r1z+pjEVb2iobMtWYxU/3fjexa/np9Vf61potaPsO2+E5J28wwAMwAAMwMB3MLCf+E2vLS9/IMiEhP8eaTq+rxZqsl0rjwBcM6HNdq/j9RqLtsiuncuT7+Urzd5/TdYlTrMIeOxDdvyPSdX6LM/7/qzMx6usGx234iP/vXjw/eXy6zgM+Xu5JkyvwzBeG+Kt1V/pn+Ki+OnY59/a5Pw9xlX2WuW9eNVyJtu2TXUqY27ZL+ObH5As+ff91PZbMfX5svaRP1Ncg4cWvfa98r0f+pRjjcbj47Qmf6pvtjzrOs/2O25s5Jk8wwAMwAAMwAAMRAzsJn7N+Dzxvr8WW4iISfCm11GH8WyrZa6OBMT8yvNSTJeT5WhAk42Nr+T2/JfdWbzpl48fhVqaxD+xOqY+pvFvHEMvPr38ZL/zeKa6elhxX3mbfLMcutxFuSjPTYJQryOfl/lPOQhWUL2dlvh9iJ/1U8QwC6j59fpSID3YcO0fygr7C74tNhu/89sb/0P/zjfFaMpbIH577Vvls905dpmFR/7li98+2A74CesUY+zlL8Uw+P0A7wv73AxhAAZgAAZgAAZg4DsZ2FX8CqKeCFO9d2w1gZZIfUcfPZt5gr5OFPRsUf59Fyarlq/l/C8/f7heX8sd8SN+MAADMAADMAAD72TgLeJXAnRaJdy4QvjKgNPE9xf7877OK38IXx8X9rd9iGmV9S8f4PyrOctvF3D9/av5w+9tnxXEi3jBAAzAAAzAwDYG3iJ+/yIJebXVXslk4vsX8afPbRdeL17pQcofPcTp+fap5fmh2/ofiPvUceDXvtcS8SSeMAADMAADMAADYuAw4lcDYgvcMAADMAADMAADMAADMAADMAADJQOI3/+AooSCY5iAARiAARiAARiAARiAARg4GgOIX8TveDSoGQ8f1DAAAzAAAzAAAzAAAzAAAyUDiF/EL+IXBmAABmAABmAABmAABmAABg7PAOIXyA8PefnEh2OeAsIADMAADMAADMAADMDA9zGA+EX8In5hAAZgAAZgAAZgAAZgAAZg4PAMIH6B/PCQ81Tv+57qkXNyDgMwAAMwAAMwAAMwUDKA+EX8In5hAAZgAAZgAAZgAAZgAAZg4PAMIH6B/PCQl098OOYpIAzAAAzAAAzAAAzAAAx8HwOIX8Qv4hcGYAAGYAAGYAAGYAAGYAAGDs8A4hfIDw85T/W+76keOSfnMAADMAADMAADMAADJQOIX8Qv4hcGYAAGYAAGYAAGYAAGYAAGDs8A4hfIDw95+cSHY54CwgAMwAAMwAAMwAAMwMD3MYD4RfwifmEABmAABmAABmAABmAABmDg8AwgfoH88JDzVO/7nuqRc3IOAzAAAzAAAzAAAzBQMoD4RfwifmEABmAABmAABmAABmAABmDg8AwgfoH88JCXT3w45ikgDMAADMAADMAADMAADHwfA4hfxC/iFwZgAAZgAAZgAAZgAAZgAAYOzwDiF8gPDzlP9b7vqR45J+cwAAMwAAMwAAMwAAMlA/+c+D2dfsbL9Tberpfx53T6OOH2c7mOt9st/zV8PP1cxmujvEzUbxzn2F7Hy08c1yn29/FdLz9viX+KjWJ4u43qZxHb4bxr3xrbcI7H/hvxtz7kx7N8t9q/M36/FR/64SYGAzAAAzAAAzAAAzDwLAO7id/T6TwOTqiYQ3myXRdTzzjdmty37JWCKglUJ6Amu050PSNA0pid3cgnxeqvhVbo23kYb7dhPHceLJyHWZRGdp49tyY2a2K8tX/l/69zIj+eYc/GvKb9O+K3Nd7U56YFAzAAAzAAAzAAAzDw2wzsJ37TSuZ1Ws3Mk3A73lf8PhugLH5nUVeKBB1L/Oj41hGypT9rhMW7hGPpy7PHz47hZML5xdXsMk/RGNb4F7VrnVO+lf9W3X+97B3x+9djgv/cfGEABmAABmAABmDg+AzsLH4v42XIYtdEzHA5j5dC/Jrwm14LLlYYbVJur7imyXnwaq0/XxOlNfuRqMrn7v7eX6f24ucZkdBrE/lhF9osvvIKeo7R8sGB6kTxU9lwrre3fhbxqQjVvPq67Lv8MKgJ+Gx/fshQtusd1+Lj20Uxnsc/v7ZcinHVmeN3G5VvlQ3n+2v1ib92DLxPc/t6/M3vZ/n2rKrf8lyKi95caDy0ieInmy0+NEYfP9tXDM3G1va+rbWf+qiwKT/ZHv/mRI7JMQzAAAzAAAzAwN4M7C5+f87DfYI/jJefLCQ0wbVJt/ZtIGmi7Ca50+T9fq6c3Gvwtcl7y34kqjTRNkGifflXHqvv3rbmm9rVytXf7TYLLl9X5fr+q9lL5YqVvgtdaW/1U7ydKCqP5aPq+r58Wa88+eX8KNtGx7mNfzCi/Uch7eMiW4qP8mfnS/EbtSvbezHXqq922qr/h/Y78S37PifJP2dfvvT8rpWXPLSOI39a9c23Wr/y27ay++obBN4m+9w4YQAGYAAGYAAGYAAGjIH9xO/0yut5HK7DOAz2g1RL8VtCF4oTN5mvrUCumURbX97+WvG7WNVyQrH0vXbc8k0Tey9gZEdlNfEW+2+rjFksd9un72TPwjrFx15VL1bf5U8ah8uFzmtrQicah8pT7ItVQZW1ttE4y/pRjHvjNxupXWW8a9qXfvjjsH0R8zKmW/n27aP+5E8UH5XZNiqPfPG5iPrzdnrtp34r8ff+sc/NCQZgAAZgAAZgAAZg4B0M7Ct+72JRwqicMOfJtFb07lsnsPxkujXYWr2WfT+Rl235ZyJO+158pn6cf2rX2tZ8szZRH7IVlS3E+/Rwwb3W6x4udNsnoVvEvvFqr+9bPvqtcuzP+f0pFxvjF+XJ27X9KMa98ctGahu8Gry2veyU27B9JH5XPFCJxmf9ZYGZV8Jbcaq1l89R+ZQvxWbazg9M/MquxqsHIGvaW/+1+Ms3ttzoYAAGYAAGYAAGYAAG3sXAW8Svd9YmzCYoy8my1SkFVjQp97a0H9Xr2Y/EQj7XWDltrIzKl3Ib+aY6kY9lmRffPj6h/05cyXa1vaurPlvb1jisXUv8prYbX3uWL9E4VaZt5Ftv/Gqrrerru+M6rsVP7WrbsH3BT+R3ZK9Vb7qe7GFIRUi32lt/UXm0clv6lsTvJIpvi/7XtPf2FK/aGHxd9rkBwgAMwAAMwAAMwAAM7MHAbuI3mlCbgxJJeXI8/ziOjv13+2o2yoFG9WRP4kXHsl+Kqqn8LiA0GVd76zP1s3HlMvLN+18rj/pfiN/7Kq9W2hTbaXxuFVj9+fZT/YpgUhttlTcdl9taeRZIj9/TLdvXjss8RfVqMUx9K59a6W7kz9vpxT/yw5+L2nt/rK7vz7ct91v1Uk6H83i+/7Bc2XZNPzX7pb/edr5e2nlttfe2tB/5oTiu+XdbssOWmyEMwAAMwAAMwAAMwMAaBn5N/JozaeI+rRxdx8v5Mv1rJCuPJsMaxDwpLl7ddWKuZT+LqmVbL3RD+w3hJL/KbWsMVrcm7tT/wqfiVedJsCuGzr917f0vGd9j4eKnseR+5tdddd5vTeh4IZ7GVvjr66/d78Vn8Z1si4Pzf5njYTybAL7HSPFZtN8Yv9YYQvvON2vbYiNsX4zPbEz1nO+L82JD27sPUzud19b5GNZx5cl/tdPWlbfah2XFGBTfJKKf+L642rPl5gcDMAADMAADMAADMBAxsJv4jYx/47mWwFE8IuGosk/YHmEMvx1HiTv/8OK3rxjN5AAAE4JJREFUfXhnf/nBwvKBiB7G7D3mLLLbq8zvHCu2uVnCAAzAAAzAAAzAwDEZQPz+t29i1wjHd4mGPS7SvHreFx6fLuD3iMUWG4cXv7aqX3yPOxLEW2JW1p1X7vv8lW053vdzjHgSTxiAARiAARiAgSMygPh9h/jVK6GV1zoNpDTRb5T/BWxZwC1X97wfEnh6dbh87dnX/bZ9xWbvVdBPimNekfVfHaiz8kl+4ws3bxiAARiAARiAARiAAWMA8buz+OXC4sKCARiAARiAARiAARiAARiAgc9jAPGL+B25MD/vwiQn5AQGYAAGYAAGYAAGYAAG9mUA8Yv4RfzCAAzAAAzAAAzAAAzAAAzAwOEZQPwC+cdBPv/wUf5+afnd4l75pzwhSz8e9uT3uj/xO+GfEteaH73vrNfacX7fJ6rEk3jCAAzAAAzAAAx8KgO7il/96I9+EOl2+7d+tbXlv8r0g0Y6vj0pbmpA6H+cphjubLvW5yed7/0Sdq/81bHs+SvWz4rf1hhf5aPXvlc+cf+h1/baXyt/lRPac1OHARiAARiAARiAgX+Pgd3E7zQpHs7TSmKeSP8bAjjyP/267V2Aqlzi15ftBX6KV9HfzcVzr34+2U5e1a0z0yt/dWyWg3Kl+Vmbz4rfmg+v8tFr3yvPwvI6Xi72b4/qOXo2Xnu1W/PvxvbqCzv/3k2PnJEzGIABGIABGPheBvYTv+n/gC4nxH4FqxSPBl0kDtIEvPKvgmxSa8IkTW7vdSRUsiha/uuV6FwN9mjFyPu82P+5jNedJ/85Vs/7b+NqxSfF+/QzXq7+X9XM+aoJBsvHFOOH9rdRDwNqcS3PL/IbxLAnbnvlC/vBynnO8xwDjc0zNb+5cBvLhw89+4tyYzTwoYyJP66N71U+eu375cZO5iW6VvwYavu6hnx8S34W8QtiV8uf7zMaiy9n/3tveOSe3MMADMAADMDAdzOwm/hN4iGYrKbJ7HAeNfH1k900kXVtVFdQlseTQLm38eJW9iVmzEZN0Mm+39bqmg9mU/aHcxaQfhzezrP7paDIY8sibW1fT8VHsbSHFy4XGoeNX/3XYqS6va21ly2rm/J773PyXQ8+pm0WXL3yyZ5bKS/5yTFePmAofVa+y/Nr7If9BTGNbOtcLcav8tFr3yuXf7Yt6/qy1n5tbGpTxq88zv228+dt+c8CnWf73Tc88k/+YQAGYAAGYOC7GdhX/DrhIbA0gZ3F42l6LTpNZiW+TudxuC0ntuUqWJo8OzFRrvAs7W0TqfJTfmtr5734tVWrd0yqJ9/TqrKJXovFtjG04lPG0sbn45fKnRD1Y5ZgTfaD1VrFaut2GvPJMdFZVY/GUY5FfpR1lUuVR9taHR8rtfP2w/LKAwW1L7e6RiK+plg9yUevfa/c+5rqPsFBi58wfgULtdx437RfXgs6z/a7b3jkn/zDAAzAAAzAwHczsK/4dcJUYGnCqom9hJSVTxPu02nMQmJ+HXV+NXIWxGlCGwhs9eUn0Mle4I/qltua7Uf/TaTPq6GlnWePs6CQ6M1iMIpZy35tDNbGx1o2vP0cO1tl/RkvwzAOw2X8Sa85z/G3dqkPrco2cqE+/DbMcZEjLyh9W+3XykPbyc/svx+rbEVb5bss69ovhJq1j2Je2vXHLR9f5aPXvle+8DP4ioMvb+3X+OnG9/7Kvf/8aPWzNfYtW5R9902S/JN/GIABGIABGDgOA7uJ3zx5nr9DapBkQZWFYjSx9xNUL1xrgLXEndpIvFjdaAVN9cqt90VlNf/zWJeiUG2e3Wry7yf3+dz6flrxybai/EgcmqgfxvPPZRwuP+N5sPP3c25lVuNTPsvvxKq83Kq+z0kY80BEelvROKy8x0/Uv7erffGjY2279gO/Uz4KcS970bbl46t89Nr3yr2/mf8lS758zb7GKn668b2LX89Pq5/WtdBqR9lxbm7kklzCAAzAAAzAAAyUDOwnftNry8sfCDIh4b9Hmo7vq4WabNfKS0fteM2ENtu9jtf7j/NEdqJzErp+cu3912Rd4jT5Erz6KTvP/Bqu78989PGKfC7PteIj/9vju47DkL+XawLnOgzjtSHeWv2Vvikuip+Off6tTc5fXVi1ynvxquXM+5rqVMbcsl/GNwvEJf++n9p+K6Zr+JjiGrDZa98rl897iF+zVY61Fd+pfjAu+eW3Zsuz7svY50YIAzAAAzAAAzAAA9/JwG7i1wCaJ97315cLETEJ3vQ6al5l9OJKAmJ+5XkppsvJcgTtZGPjK7k9/2V3Fm/5+7iRyE2T+OL7y5Gv5Tn1MY1/4xh68enlJ/udhedUVw8r7itvk2+WwyK/5XjK40kQ6nXk8+VBXLfErdlrlT/Ez/opYphilPrPjJYC6cGGa/9QVthf8G2x2fid383jc74p1lPeApH44H/Rvlee+Si/mlB/UCGf0rhW8PPQfxFfs9PLX+7r8fcDvC/sf+fNjryTdxiAARiAARiAgV3Fr4DqiTDVe8dWE2iJ1Hf00bOZJ+jrREHPFuXfd5Gyavlazv/y84fr9bXcET/iBwMwAAMwAAMw8E4G3iJ+JUCnVcKNK4SvDDhNfH+xP+/rvPKH8PVxYX/bh5hWb//yAc6/mrO9Xsn+V8eP39uuNeJFvGAABmAABmDguxh4i/j9C4jyaqu9konw/Iv40+e+HxzpQcofPcT5V3OZH7qt/4G4f3Wc+L3vtUY8iScMwAAMwAAMfA8DhxG/QPs90JJrcg0DMAADMAADMAADMAADMLCVAcTvf0CzFRrqwwwMwAAMwAAMwAAMwAAMwMC/xgDiF/E7/mvQ4i8ftDAAAzAAAzAAAzAAAzAAA1sZQPwifhG/MAADMAADMAADMAADMAADMHB4BhC/QH54yLc+EaI+TxFhAAZgAAZgAAZgAAZg4HgMIH4Rv4hfGIABGIABGIABGIABGIABGDg8A4hfID885Dy1O95TO3JKTmEABmAABmAABmAABrYygPhF/CJ+YQAGYAAGYAAGYAAGYAAGYODwDCB+gfzwkG99IkR9niLCAAzAAAzAAAzAAAzAwPEYQPwifhG/MAADMAADMAADMAADMAADMHB4BhC/QH54yHlqd7ynduSUnMIADMAADMAADMAADGxlAPGL+EX8wgAMwAAMwAAMwAAMwAAMwMDhGUD8AvnhId/6RIj6PEWEARiAARiAARiAARiAgeMxgPhF/CJ+YQAGYAAGYAAGYAAGYAAGYODwDCB+gfzwkPPU7nhP7cgpOYUBGIABGIABGIABGNjKAOIX8Yv4hQEYgAEYgAEYgAEYgAEYgIHDM4D4BfLDQ771iRD1eYoIAzAAAzAAAzAAAzAAA8djAPGL+EX8wgAMwAAMwAAMwAAMwAAMwMDhGUD8AvnhIeep3fGe2pFTcgoDMAADMAADMAADMLCVgV3E7//+979fE1Cn0894ud7G2/Uy/pxOv9bv2sD+XK7j7XbLfw0fTz+X8dooX9vfnvVybK/j5SeO6xT7+/iul5+Pi//k44fFds88YYsPehiAARiAARiAARiAARjYzsBu4vd0Oo/D7TZ6QZSFYF1MPZOwZ8VNEpsSpdoO50m8TXZVZtsnBFQas7MbjVGxGs6xyIza/Na503kYb7dhPHceLJyHZa5/y79eP1MeK7n7VL9746J8+4cbMSNmMAADMAADMAADMAADnoH9xG9aybxOq5lZhNjxvuLXO79lP4vfWdSVIknHEqQ6vnWEbOnDGvH76QLs2TEk4VwRnWWc/ur402P/V3GhX24MMAADMAADMAADMAADR2dgZ/F7GS9DFrsmNofLebwU4tfEx/RacLHCaKLLVo6T+LqvwD6uJN/bV0RpzX4pfi2x+dzd3/vr1BK/Vr5GBJaA9NpEfiRfpv7zCnqO0fLBwSTIp9XpRzE/nOvtrZ9FfCpCNa9ML/sux1kTkdn+7FfZrndc8y/HbbnaXPbluSkfWizKpvjdxrJezz/KuSnAAAzAAAzAAAzAAAzAwL/JwO7i9+c83AXsMF5+8vdzJShNgGjfgEnixQmwSaDcz3lx6gFL9QLx27IfiU6JSRPY2pd/5bHvv7Vf801tauXq73abRaevq/KHhwGKlb4LXWlv/ad4u7iVx/JRdX1fvqxXnvx2fpRta8elP+Wx58Hvl/Z83Moys9kaV1mf43/zg428kTcYgAEYgAEYgAEYgIGSgf3Er31XNAmx8zhch3EY7AepluK37Lx8TTaJFieGayuQLXHj+/D214rfeVX6uVXBlm+RgJW/KpP4tvN9/22Vt75yvWifvpM9C+tk315VL1bf5U+ZC53XticiU9+32+Jhh9pG2yjXUc6yX8M4XOsitpWDnt+Rb5zjgxMGYAAGYAAGYAAGYAAG/n0G9hW/91VFCYxS0GUx4197Xv6oVEu0eNhq9Vr2IyEl/6KVX+svC61tvypd883sqT8vcDWuqGwhXqeHC/OPZPk2fn+y6dqEsUmv/y4FcdRW5/xWOfbn/P7Un3uY4cvL/am+fyU58E/jbP0YWSsHPb9Lvzj+9z/kyCE5hAEYgAEYgAEYgAEYMAbeIn49XCY2TOxJtPhXTr24szYt0eJtRvV69kPxm1Y+GyunjZVR74/fj3xTeeRjWeaFsY9P6L9bzZXtantXV322tq1xWLuWiExtN772HK38Rv7JL+u/9n1d1Ynat/yO6nOOD0oYgAEYgAEYgAEYgAEYOAYDu4nfmuCQ2MjiZn4NVsd+Ba9mo4Qtqid7En86lv1SPE7l99XqSDymflauXMrHyDeV2bZWHvW/EL/3V8j9w4MkAO/+9dpb3y3B6H1UXd/X2vLUR+VV6tJGedzzL8Xjblv5U769rVqMrc4zOfW22T/GBx95JI8wAAMwAAMwAAMw8H0M/Jr4NbiyeNFrz9fxcr5M/xrJyluiReJu8Z1cey3W/YBTy370Wq0XTqH9jcK3N4YUg8pqsvpf+OReW05t7/9LeYqB829d+/wd7Kl9ET/rY+4nfh1adUyoluLYi3XV27LVGCL/lNuH+Ny/Vxy2Dcb3UM/xs8VX6n7fhyU5J+cwAAMwAAMwAAMw8G8zsJv4BYQMQkvAK0aRcFTZJ2yPMIZPiCM+/NsfjuSP/MEADMAADMAADMDAsRhA/N5XO/cCe41wbL2yu5cfz9rJK6z9/9P76QL+2fHT7lgfcOSTfMIADMAADMAADMAADIgBxO87xG/6leLlL1kr4Nqm17Dda8s6/5fb/Epw/XXn8pXh8rXnv/SdvvlQgwEYgAEYgAEYgAEYgAEYaDGA+N1Z/LaCTRkXIwzAAAzAAAzAAAzAAAzAAAz8DQOIX8Rv+pErLsC/uQCJO3GHARiAARiAARiAARiAgd9hAPGL+EX8wgAMwAAMwAAMwAAMwAAMwMDhGUD8AvnhIedJ2u88SSPOxBkGYAAGYAAGYAAGYOCTGdhN/JY/hpT+V+uH/aDTJycC3/iggAEYgAEYgAEYgAEYgAEYgIH3MbC7+B3Op7SSOInh4czKIqvLMAADMAADMAADMAADMAADMAADf8rA28SvPbHw//M2/Wuf2/Lf6ETn7P/HplVj+3dBrBz/KRw8dXrfUydiS2xhAAZgAAZgAAZgAAZg4HcZeJv41cpvuRLs/zesF8eW+CR83UpxeQwcvwsH8SbeMAADMAADMAADMAADMAADR2Fgd/E7rdrayq0Tshaw03mYVnMfxfF5HMKV4WE8n/Kr1EcJOuPgAwQGYAAGYAAGYAAGYAAGYAAGfpeB3cWvVnotkWll1726fDrNAje98uzLfi7j1QTzw9/yVWkA+V1AiDfxhgEYgAEYgAEYgAEYgAEYOAIDbxW/+Tu9y5Vbe5XZXn02YexfgfbC+AiBZQx8QMAADMAADMAADMAADMAADMDA5zDwVvFbrvxa4vUjV9frUhRbGd/x/RwwuEjJBQzAAAzAAAzAAAzAAAzAwJEY2F38Ll5bdq81K2j6rm/5fWArn8r8q8/F94Zlhy0XIgzAAAzAAAzAAAzAAAzAAAzAwFoGdhO/azuUwPXfDV7blnqADQMwAAMwAAMwAAMwAAMwAAMw8AwDvy5+o1ehn3GcNgAPAzAAAzAAAzAAAzAAAzAAAzCwloFfE79J9KbXmR+/67vWWeoBNgzAAAzAAAzAAAzAAAzAAAzAwDMM/Jr4fcY52gA1DMAADMAADMAADMAADMAADMDAHgwgfv8DpD1AwgYcwQAMwAAMwAAMwAAMwAAMfDIDiF/E7/jJgOIbH6AwAAMwAAMwAAMwAAMwAAN7MID4RfwifmEABmAABmAABmAABmAABmDg8AwgfoH88JDv8ZQIGzxthAEYgAEYgAEYgAEYgIF/mwHEL+IX8QsDMAADMAADMAADMAADMAADh2cA8Qvkh4ecJ3T/9hM68kf+YAAGYAAGYAAGYAAG9mAA8Yv4RfzCAAzAAAzAAAzAAAzAAAzAwOEZQPwC+eEh3+MpETZ42ggDMAADMAADMAADMAAD/zYDiF/EL+IXBmAABmAABmAABmAABmAABg7PAOIXyA8POU/o/u0ndOSP/MEADMAADMAADMAADOzBAOIX8Yv4hQEYgAEYgAEYgAEYgAEYgIHDM4D4BfLDQ77HUyJs8LQRBmAABmAABmAABmAABv5tBhC/iF/ELwzAAAzAAAzAAAzAAAzAAAwcnoE9xO//AQ1bFbQ51KvvAAAAAElFTkSuQmCC;" vertex="1" parent="1">
          <mxGeometry x="1495" y="522" width="959" height="477" as="geometry" />
        </mxCell>
        <mxCell id="h6udd_h5KtsEGIipjdYG-2" value="&lt;font style=&quot;font-size: 24px;&quot;&gt;CreaciÃ³n y permisos otorgados al usuario administrador edu_manage&lt;/font&gt;" style="text;html=1;align=center;verticalAlign=middle;resizable=0;points=[];autosize=1;strokeColor=none;fillColor=none;" vertex="1" parent="1">
          <mxGeometry x="1485" y="470" width="770" height="40" as="geometry" />
        </mxCell>
        <mxCell id="h6udd_h5KtsEGIipjdYG-4" value="&lt;span style=&quot;font-size: 24px;&quot;&gt;Ejemplo proporcionado de diagrama de la base de datos de EduManage&lt;/span&gt;" style="text;html=1;align=center;verticalAlign=middle;resizable=0;points=[];autosize=1;strokeColor=none;fillColor=none;" vertex="1" parent="1">
          <mxGeometry x="1500" y="-400" width="800" height="40" as="geometry" />
        </mxCell>
        <mxCell id="h6udd_h5KtsEGIipjdYG-5" value="&lt;span style=&quot;font-size: 24px;&quot;&gt;Diagrama entidad relacion de la base de datos EduManage&lt;/span&gt;" style="text;html=1;align=center;verticalAlign=middle;resizable=0;points=[];autosize=1;strokeColor=none;fillColor=none;" vertex="1" parent="1">
          <mxGeometry x="80" y="-420" width="660" height="40" as="geometry" />
        </mxCell>
        <mxCell id="h6udd_h5KtsEGIipjdYG-7" value="" style="shape=image;verticalLabelPosition=bottom;labelBackgroundColor=default;verticalAlign=top;aspect=fixed;imageAspect=0;image=data:image/png,iVBORw0KGgoAAAANSUhEUgAAAqgAAADCCAYAAACFSDBJAAAgAElEQVR4Ae197XXrOrLsCWAcwD1vJgvnokyUCCNRHsqJbzXAAgutBkBSsk3L9WMvkAT6u4BugJT3P//+++/8n//8R//kA2FAGBAGhAFhQBgQBoSBU2DgHxWoKs61QREGhAFhQBgQBoQBYeBMGFCBqp3SKXZKZ5oU0kWLtDAgDAgDwoAw8LMYUIGqAlUFqjAgDAgDwoAwIAwIA6fCgApUAfJUgNSO9Wd3rPK//C8MCAPCgDBwBgyoQFWBqgJVGBAGhAFhQBgQBoSBU2FABaoAeSpAnmHXJh10eiAMCAPCgDAgDPwsBlSgqkBVgSoMCAPCgDAgDAgDwsCpMKACVYA8FSC1Y/3ZHav8L/8LA8KAMCAMnAEDKlBVoKpAFQaEAWFAGBAGhAFh4FQYUIEqQJ4KkGfYtUkHnR4IA8KAMCAMCAM/iwEVqCpQVaAKA8KAMCAMCAPCgDBwKgyoQBUgTwVI7Vh/dscq/8v/woAwIAwIA2fAgApUFagqUIUBYUAYEAaEAWFAGDgVBlSgCpCnAuQZdm3SQacHwoAwIAwIA8LAz2JABaoKVBWowoAwIAwIA8KAMCAMnAoD31qgfnx8ztfbfb7frvPnx8epHGE7pc/rbb7f7/lfR8ePz+t86/T/xK4r+/Y2Xz9jvxbfL/bdrp+n8/9P+E0yv3eHbHNsusQY3RKLZ+m3yDg6psyxF6wNH5fptOvkUf88Szfyb1qXsX7fH9fCHn219k+Xb18be/Kh9zPz5lnfGz30OGv+foWN4vG9+WDk71Sgfnxc5ul+n7loyRPmcZKPGPb6jwK8XniWApIWkcK3LE7HiuBkM/GNbIGvfnqxCHWzpHaf5sug+L9MdawjXkeepaRKMQCetsanxNkl+PKcYpPjkPFZ+kl23mhsw++Ifov+5tOyuYEepK/5s+Uf+LrXXyWwhf9e/0JO1D7auOKo+IfsYf9H/Pwz84/NGbPRWrMH+vux0f0z9EV/xKW0Kz569kf6tJ4lHJCfWuNGzxMW3DwY0fyF/pZ/c4wpnnaIEKyFLXr4bksOwNivaCP5wOZX5xzzzWhOjvz3FT4Rz3MVjd8Zj1ygphPBWzkVzBPC7tcJ/51KeVl58aGE6U5i/QTG/X1noogWB6/Llknsab7z/qgNzybEJNedWlymHDPEA4sf7n18jMftepmvDndIPozHVoH0bHwieug70t/iHNHb855/Nvc38LxHvwiLoOd4JH2XAmmP/yP+eGa+QREPX6JvS/ssvcmI4jOyf4tuGJN0bMQJY7a0z87HLTJ+45jIv4ifL+DyelK/KYro2Q8J9y+IH/Pccx3Jb9m3h++WsdHc8HQj//nxuv+7xeUrYk8F6nW+TrkgtYQ0BYVCAmc5fVgLRlMEi0GaYO6EB/1ITpwI2YgWf1+gGg2Spr3SjiZwNNFZVnQ9oon0SLosBfN0ySfR0ekddCw+oN09+nr0JqfyT+N0pVW4sb3GJyoQMv86rkzXuuZYRGNgH8tMviYbMCY6XSt+v0xF75adLdsivaJnET106+kPXiF9Os1pb/ZG/jPePWzu0Q96cpuKIcKj9YGnxWOP/5mvv042BGuDH9e6f5be+IbxCd48sP0tffY+N9ll/hP2wafqNz9hg1DWl/XTiD0FbBo7XfPnVXc7ycY6VWOylr+uA6svQGd21LTwbbGvgae1P/uCi8pKfuAf+Mm32b7H1/Kt556e71vzDD5Y9V/9A/okr+THxzW2ss/5Bzwi+ZA9XZZP5JKM2v8Y09LvsT+/0TC5PK9W+vvcytPQ1bdFxo7YeR66V0HLGPjn//7v/3ICMlAtBcDndZqvn3kyYAExEOPaGKTJRkAsIF+etZJuNAGNX49/SZD06hqTwYoGXEM/f88G965buoGm1Q95vGjzWPS3Chz0t+hNfvI37ez9PXTEWJbFfaP+pHeQfDwPvk80hAXus2vYB51ycVkv4BzjtNATv7XPEmRODD9ZoEb6w2aLC+zEs5F/Rv3GJ42h+IO3tVv8y+P9dYs3bNnjf88b94XXE6/4za+GDZvnprP3M2T1WujBY0b289ij1yaXE/7onucA4ov1zXTg/pFOaWwqTD+WTa4VN9vXd8jvrU/mQ9Yv2UdzmO0FP44f95s9/r5nI2RjXuYia5ovB34rEGEh0jeNI/uyj+uikXWGjnjm/YPnPflmF3zM47box+Mhy7emE8fE94/uoQc2VqPx6lcxOsJALlDLB/mXebpN8zTZj5jqBcwz8gtkmgA8YdN3rY8TdstEMVnMf02QdIKw6JeS1nL9zO7PZPZ0w+SLJjD6sHhs09+KreyfIX3gy8gniJGPBZ6jHS1EnNBA02tZXp0kavs4Puwr482+98Un22rjcsxX/7FuI9t4bHQd0SM+Pf3BK6If+WfUb7zTGDqd4WS1Rz/oya3pzMUT+mDLHv+DttWaHT72rbHR82fpYRPzHtnPY49cezwbD/Zp2F/W5PgNEa+PI514bMLRdHnY1HgeTAN8cdy439Mm+wb6Q480duf6xvKybnmdQWyLb19VoKY3IPWJqY8ZZLNuveuW/9gvoB/5v9hbHeDU62Pi2zi1hZy9NoBOrQrNr8JAfsVvi8lyOgOQ+kmRJwG9oqJXUKZcNLEipVvjevzjCZgLaC5QeQFNcqhgjnTxz1q62TjvD6aN+ngB4mvQMQ1fl35e4NMC6XwfvOaJaPGMW8SYn/F1icVG/0W+5gUc9qG4N/nAm8lFP8ePdeT4J75Jr3oBhv5Mh2d72oge+rX0Z/4R/cg/o37jvwWbW/RjXXHd4g1b9vgfPM/awibWb2Q/jz1yXeaT22DgRJL9C/68ZgB/PD+4HzStlsfCVvAEZkIdl/mPsT35PXrTy/yOOQ9+Xdmd9Y3tzLyseLR8sGyIsXa+qkAFv6oAXA9wYA/7h3W065F/MB7xwX2iDQ6LOKZ8DbpIp8QbGAzexkRzA/zUqgj9CQw8FKishAHWJh3AjgXFxvhJEU0s5oXraNyIf7iAp6KtPqHjBSKigQ6tNtINYyMdfV8lnxa1SJeogGvSBycMkB21PTtsfG8hSrQ7X/Fn+3IsoE9kH/CTx6+vq3DPJ5TpGgnSnWBkXP5cgQp9OV6wO/Lt0D+EZfBh/9mzXkw9Nnv6gT+3fi5bX5a/zP8d/me+Z7wO40NzFTqz/Xh2tPWx9HxyvOoTuhRv4H9QoHh+/p7jCxwxZvgatEyDfsZ71I/5bTy43+7N79X8pgJp5B/oFLWZ1nxn60H2YZJtp8QWV5IT0ftn8A8/j+LDOsM/bH9Fv8SP+71/MD6UP4j/SD/wRgt9vW+iuQEatSpQfwIDqUCNJoUpA8DmyUgFRVoM1o/4bWyLhzcqGjfi7ycgxmOCYcLxAprkLAu816F1H+nGY1v9kXxegNDPC1RasHckoDR+42KLuLHufN3qTzIGr4GYD1972tECnsbD/qhAoKLtIf7WN03lEwmvB/uZ+7ZcR74ZxY/5RvTW3/PPlv4W9ox2j36sK64xn9hvVXxcgZri0fA/eB5poceWP5V2hL/RRPGB3Jb9R2UxXfJnY/76+KW1w066aP1i+jwf6n6W5a95LQKOWCbsx/qJe8jHWPQbf+aJ8ejH/Uq/Fo9eN9yzfXi2pc261QUqYmy2QqctvGwM/MPjYX8PH4musXbCH9AF9/APy+rJB72Nr/2/vk0Er+RPwg+eo43kpGcdGtC2WvjpK+dvS7aev2cBvalAteCXRROvXi71H6uPAA/QrMDt7KKtSMHrBzvBI/5lQS79a7GcdFt2mCv99sUbOlrbsyHJcYkatLCvtYAkWhT1sIEWgm30eRGqbAwSXl786tNM6IkWCzjuk35Bkcj9W67Togj7UrucaEQnCMmXOY6hPkTzUKCWeD/aGfHaojvGRPSIDycoYBIxf7R9faXJvKv4uYT2yCP7z+gTNivfrj9o2KIfdGi1JWlCBuPT4R7y8Iq6xXPv81WH1e69PEbjo/gazSp7WaPI/hHPLf2rz2gNpPkLPCV8mGw3H6t+w43FZKOOXMxgjYM+wHRvfcdYYD35y+vXWb9tfIRfHDAkfmVOx/5p+TjrltcBzJ/b9Zr+rndUAEZ8YF89N+v5uwUf3kb4NtnX8c9IPvq7/t+QXyr7AuxAThlH+Iz8Fj1DDFjXaJyevWdB+eq4pgL11Ux/Kz8s3j39WwmuR/Odfe9gw3f6S7K0UAoDX4uBXFzXm0kUfK8oZGzN42JQ8fzaePb8m4v0r9tg9mSr7+fi/lW+V4FK//fuluLulQvrq4OaT0HGi8PZi+xX+0X83m/hUkx/T0zzuuQK1HQqXz87GlNfAKeTwOvj30U9yl90Y6ytJ/zj/CN/jv0pH2UfqUD1BWrwitODJU3G4BWJH/ed9/n1THvB969vdOKgReI78SlZX4M3bJjLa1msX2gPvKb9iljlkzV6fb/zh5gjnepPFOpPwEa06v8abMqv8uuzGFCBSgXqs84UvSakMCAMCAPCgDAgDAgDz2NABaoK1FkT6fmJJB/Kh8KAMCAMCAPCwOswoAJVBaoKVGFAGBAGhAFhQBgQBk6FARWoAuRLAbl+LJ+/N/Pfuo76z7L7TN+0HfzO+IzfKJ/Fry09Rt9Qt+j0/HWnFfKlfCkMCANnwkApUP2PaH7bH9vt6Y8+/EkT3G/9O3lbA4a/AZd+sHCwuNkq64zj8IMN+NnrOOr34/fev/KvExwtUHs2PouPEX2vH3rhxzR+47DX118xPv/QRb8C/grfiqcKD2FAGPhtGEgFainY6BefOdn9jmQR6Z9+NboUiehH4cR9rwpY8peTx3+I+lVyzswnn462MTPqf9Y2i8GrCq+jBWpLh2fxMaLf0g/85zi0/+LDs3F4hn7Ln3p7hr9olaSFAWFAGPgdGMgFavpfLurCAicultR8gWfBjRJ4SpL48ybuBNESjxUPKQEtY1BMRAkzetYCVXTywjpX1+5/xWnx3PM8+6pO+Hv0N1k9/1g/bMAJGJ9wt5K6xaP4OPifWlCwbLW1iq/7X5CSjgPfZp/UOGPZFX+Hn8S/+t9YVtsYU6t/6v8JxuhH/Kt+w2igA+vrr1v2PYuPEf2o/0FP+l+6fF/r/hF/j3/Kp/Jf4Ls8T9c/NQRssszIFu7X9e9ILIqT4iQMCAPPYiAVqCnBBwklJZzpUoojLmh8gYqxUMjflyJikcMFHJIfJ6xW0QX+3LbGmg7GE/ynS/7vQtkO5nP02hfI2baciLfKOuQf+NIKt0b8IL/lo602Gz14GU2K7yKz6I7NSWlzMTrqL/z8CT7dZx/XmwCvO+Ltn2/h7/Hq8R3x9M9aPn4WHyP6Ub/XMxeBjwWmH8f3LdswxvvP32cd+/FjXrwW4LlaJTxhQBgQBv4OBtYClYoBAABJZi3wPsoPalLCQYGU/h/gOvn406SU4KiI8iclNb99hST0hN5o7TkXqHa69hWJr+ieThCtMDVf7LOh5x/vS7OP/Zf6qVhkm1FUJv7BqSd8tbctNn8QJg6eoLIt0MPbjFiiP2pbY0b8w/5G0R/JtWeYIxG+iq8O4mNEP+r3Oqf5QnPR90f3PfyE/nNYaMWmKWunfhEfPfs7iUyxVqyFgffDwFqgBgkBSQXJF8WOAaEkxY+PORcT66u79TXrWrSmBBcUwQAVJzkuuNDfa1u8H/W/zNN938lRTy76ki/SqeFqb+QzjI/alg02ln0NWuaffWenlZ/zdZrmabrOn+k17qqP0eUiY4lTJxaQwW0YY4cZX1QyvV23+kPe5E+21fPke8Sbn61y2/iM9Ip87vnyfU/HZ/Exoh/1s54ZAzUuuL933cLPq+IH2Xt9Dzq175egFFPFVBj4uxh4yTeoXFy2wNQrwECDAsPGRidRGOfbKKFlnXIxysVDTubHErSXi3sk6KqATydI2+X0/BMWUHRqXQrUz+s8XT/ny2RyrRiPv/eEP7b+iAvjOSahz92pGfyDNrLD+kb4ieSDJ7fADz/bxD/QO8XDFeCeL9/3dHwWHyP6UT/0TDa94L+YhK3Az6viV+m5cwMFWrV/N5kp9oq9MPBeGMgFaip26h+VWLLn7xrT/ZI0kBBb/RFIegUYxme+t/l2iwsrjPMtilEuoFh/JFQUkDlRP8oAH/4BkpfVumd5Nob91aLh5z3/QP++fbd5mvJ3olY83qZpvnUKrJ481suu4Rf4D/cc/zQuKPSYV47vo99tzMhfrZgx/zSmYXOPv/dv3sTU+Gc5reueT7fgo/g12FiM6Ef9r96YeVt7/jV/bYkf/Gq8GOt4rva9ko/iqXgKA8JADwOpQLUBa3JcXoW6RF+K0vTqdZovVozQGCT59fV+XfD6hBYpVXgcOD3p6Q++a4GVvw+NCtGUaA+cMkFGsX+nDSP/9OwzX2a9c/FXxmJDEfyC3xeXUTz4WSna8Or9UsffxvYK0FH/g/9MjvNhLnLWV/W+iHngQfQPfY5/hW/D9c5vUHfbR7rBzyVuQYH6oL+j7/WvfFffZZzGmwXog/aBt/mO5n6yPcKY03EUv8zHTv63v3mAjmqV6IQBYUAYeC8MlAIVgR0VShj3FS0SIQrJr5Ax4pmT6LbEPeKl/veaLFviqdO/52L+k+vPlvhqzHPxlf/kP2FAGNiKgYcCFUViOQl0JyVbGR8Zl5LTN8pjHdcTNBWn7Bdd71tMcFr5k5us3xqzfEqv+fdb4ye9960V8pf8JQz0MfBQoP6Ew/Kppb1+VHL6Cf9LZn+S7PVP2uz80EZrr65nGZ83xnq1f5Z4SI/Xrgnyp/wpDOzHwCkKVAVuf+DkM/lMGBAGhAFhQBgQBt4VAypQ/yNwvyu4ZZewLQwIA8KAMCAM/E4MqEBVgVr+dzBN4t85iRU3xU0YEAaEAWHg3TCgAlUFqgpUYUAYEAaEAWFAGBAGToUBFagC5KkA+W47QNmjUw1hQBgQBoQBYWA/BlSgqkBVgSoMCAPCgDAgDAgDwsCpMKACVYA8FSC1y9y/y5TP5DNhQBgQBoSBd8OAClQVqCpQhQFhQBgQBoQBYUAYOBUGVKAKkKcC5LvtAGWPTjWEAWFAGBAGhIH9GFCBqgJVBaowIAwIA8KAMCAMCAOnwoAKVAHyVIDULnP/LlM+k8+EAWFAGBAG3g0DKlBVoKpAFQaEAWFAGBAGhAFh4FQYUIEqQJ4KkO+2A5Q9OtUQBoQBYUAYEAb2Y0AFqgpUFajCgDAgDAgDwoAwIAycCgMqUAXIUwFSu8z9u0z5TD4TBoQBYUAYeDcMqEBVgaoCVRgQBoQBYUAYEAaEgVNhQAWqAHkqQL7bDlD26FRDGBAGhAFhQBjYjwEVqCpQVaAKA8KAMCAMCAPCgDBwKgyoQBUgTwVI7TL37zLlM/lMGBAGhAFh4N0w8K0F6sfH53y93ef77Tp/fnycrjD6vN7m+/2e/3V0/Pi8zrdO/0+AJPv2Nl8/Y78W3y/23a6fp/P/T/hNMrWoCwPfhwFbY6dLvEZticOz9FtkHB1T1tgX5IaPy3TaPHnUP8/Sjfyb8jLy9/0xF/boq9w/Xb49N/bkQ+9n5s2zvjd66PGd9VsqUD8+LvN0v89ctGSHPQb5GUOPGlgDbykgCUSFbwHnsSI42Ux8I1vhq58GS6ibLWr3ab4Miv/LVMc64nXkWVpUKQbA09b4lDi7Bb48p9jkOGR8ln6SnTca+/D7jP7VArPoAfvhy6Jny76O/lv4Q45vt/j/ccyKo6z3em/89/rfMFc2f7BziWfxSyO+Ju8Z+70/ovse/9xXYyljZX3Wo4e8Jr5sw+vm7V7/bpEPPaJ2HP/7fO/EJ+LJzyz+tmaaD6w1ff384PH++hn6gi/grrRr/Hr2e1169wnn5Kfe2F5fwopbJ3rj/0pfy785xhTPYE6Zj1r08F+aRy+IH/jtbSP5wOZX1xzmm9GcHPlvr72j8blATSeCt3IqmB1i92vAR4y+st8nSAQMlTzuEUDc84K6Rb8IHJ5uSxA9zXfeH7Xh2QUxyXW71suUixrEA+DHvY+P8bhdL/PV4Q6LD+OREzj792h8Iv0/r1M6kYa+Pf23+L1l3xb9t/BnPnw90h/9HI8kb0mQfv4Z76P+j+KzJb7P2M++aF2P+KeFGf5YNvRYb4zniD71u/lR8BUk073+Hclv2W3Pt8W/zgct/Xpykg+X4hBzqTfe9z1Lb/xC/OHNHhUmyZ8HCsSkI/HxNmy9f3Y93irnt42L/Av88nw0uyyGHmcRPfvgmXnEfI5eR/Jb9h2V0aKL5oYfO/KfH//sPRWo1/k65YLUEsYUFApJubL7rE9UAIbk4GAR4uecCNmAFv8wQaZFfdF3WWAYoFGgWVZ0PaKJ9DA+K4DySXR0eocx6ynS6j/0TZc2vcmp/NNYPLckDuPjJ+7Kf9Ur8lH0DAXG6PMClpl8TTasPng8XSl+v0xF75adLdsivfEs88onPHjGLXTr6T/EDmHUxjIvltXSf8Sfefjrkf4pGT6c4OXPcWxOFf/TyfxR/0f2Ff6d+D5jv/dHdD/iD4xY3MwGv4b16EHL6xPrUOx/wr89+Swrut4c/058Ir7+WdIxyA1+XOv+WXrjG+IvePOEOdOKWUvH3vOEG+RPWvtAU/XbuGVMpMueAjaNna7587q7rXPIM/UBVC1/zQOrfNDZ25CaFr6N8pv1gcfan9+osH8r+YF/4CffZvseX8u3nnt6vm/No0f9V/+APslDfN0baRtT2efWW/CI5EP2dFk+kUwyav9jzOrfWr/H/jXf8bxa6R/XOOjYaouMHbFr8cLzqkD9XBagvLNfE5QNNiMewESKFCMxqaiAhDDw8Ys7nrf4xwt41s8SBhwDen/P8nvXETh4fKsf8njS8lj0c1GS+uEr7OBp0jO96ZDATTtzf896Wh/L4j7wavUnuaSHp43u2Zao39uPhM06cIzTRCdsrX22QOaJd7RACvULTrB43Bb9fbyY3q5XG/JrTiQfP64VuxF/z4fvR/q3eEMX1h18j/ofPMHH2pV/O74tHZnPM9db+K8JqE4OJrdHv9oXf3sZ9e/1b0/+yC8tWsRq1a8dn5GMwuuJV/y2XlgMbJ03nXn9GMlHP/TAvbUj+3ns0WuTy3lvdM9rIOYv8pvpwP0jnYBbo09y0/q+Pb9Dfiu/mXzzIeuX5NAazvaCH8eP+42fv+/ZCNnIK7nImuaLreukQ48H+iIsRPqmccQ7+/hxXWC+Pf/wOMaJPYd8sws8WE/0sz+9fjwesnxrPmcevn90Dz1auW1EH/XnArV8kH2Zp9s0T5P9iKkGsCf2E8Q7pLXAbnGUyWL+6wK5LvBwhjkU189U/yazpxtkRAFEH8CzTX9b7DOgh/TplWIN/sgniJGPBZ6jHQGRFzTQ9FqWVy8StX0cH/aV8Wbfe+ywrTYux3z1H+s2so3H4jrbW+840Wct4jPUn3bPvJgYj559LKulf6Lv8Gce/nqkv8n0i6LxgC7sf/D2McJz0ODet1E/82/F9xn7vQ7R/Rb+xY+0UQSvHv0QX8EGaa9/e/KhY6vdE3+T05t/LRl4bvR+7qNvS/ssfYS/kf1b9OqNiWLJmA/7S07+KOsP+43zY0+29fHYhJPpUnhG+czTAPd75LPMiB56JFk78xvbm3nnPIPYFt++qkDdMD8hm3XrXbN/eBz7Bc8j/zF9sbfzBibxbZzaQs5eG0D3le1aoC6LLpT0TslOcD90oB1E5NhI8da4Hv84AO0TVJOb5JB+kS7+WUs3G+f9wbRRXwUgWmxAxzR8XfqJJvRNcMwf0eIZt4gxP+PrIm+j/yJf86IL+7AYmnwuiNDPCyDryPFPfJNe31+gtvQ33+3FDtvHvm897/Fn+uga/m3p3+INXdj/4M/xxTNrQcPP+DrqZ/6t+LZ0ZN7PXG/hn8YsmwTGqsnt0ae1oJMc2H7YsNe/Pfng2WpbtIgV69eKT4v32Z7DJtZrZD+PPXKd/edyJ63f7F/wr/JHcFjE/aBptTwWtvo1IdRxWf8xljHPPE1uj976ze9Y88EP61FIS/5p2ZXkJt/Y4YLVA8uBCHLnqwpU8KsKwPUAD/awf7zOoY1BfkV8mD7iz/7na9BFNIn3sn4hFhhvbTQ3uP8nrh8KVFbCFDanw1gAysZ4p0SOZV64jsaN+Ofg1idc+Vl9QscAiWigQ6uNdMPYSEffV8knUEe6cAIC7yZ9sMOE7Kjt2WHje0BMtDtf8XMsoE9kH/CTx6+vK3DPJ5TpGguk28FmXL6wQA1+9AI7rEV8WvrbmJ7PR/axrFZsevyZProe6e/nsvHI8Vvmv/P/2p/nH8ts6Y8xUX/2zzq/o/g+Yz9k99oRf8QwrYc2t13B2aNnX0Y6ePttDM8fpon8Z/09+UwfXe+NfxSfiO8Zn0X+G9n/rB2tWIJvFP8UT6x/X1yg+vXB9GKfoL+dn9bDomIT5T97Zn6v1nd6CzHyD3hGbaa1tcPyQV5Dku52Smw6kJyI3j+L5lEUH9YZ/kF+8DyjfvYvjw/lD+I/0o/52zX08b6J5oan/e77VKBGTjFFoHAOBhUUS0Lnbw1aPLxB0bgRfx8AjIeD4XCeQElOsEPx+vB9pNuW/kg+AxD9DOA0YXcsQGn8xsmGuLHufN3qTzJc4mW63rWnHU3gNB72u8XM5OSYLxsQVyClvmkqn0iwXi3beEx0nfWvC67yK+tlgWjFz/j1sMNYgGy2D8+sbenf48/00fUYf7a4198fVfFZ5jvb35pfLf2hV9T/ML8t3i6+W+wv68IBDPf4w39YbxCnPetf8qfb+K34evT/Xv/29IfvWy38xvGt4r9j/rVkbHkOPXzxv4V265gQfwG+2f6tvHvjEr/G+g18wf9pvbCTLspfTJ/nS93fk83rD3DCMuF35E/cQz7Got9kMU+MRz/uV/q1eGzpyfa1xkTPs251gWq8zJdmK3SKaKNn8A/3wX7Ex/qSvhSfRNdYd+AP6IJ7+Idl9eSD3sbX/n/cIHj9WIZdRxK48BQAACAASURBVHLSM7LJ04zu4adXzt9NBaopViYNjt4v9QfIkcEwaFW8s4tKpxLov81X4l8mJI6n6WPhpNtSQFQ7tAOO7tmQ5LiF2tvXAlDWMSehoiPpB//06TMIC735IljwMvjrQgt6osUExn3SLygSuX/LdZoUFCMAFfbxBEdMzeZQHyoKHwqYEu9HOyNeW3S3MSn+pD/0Hekf0VqcQB/pFPE0PtHYEX/r7/2LZLH/jbYsmrCf8LmlH/Jb+tvzCruE3y3x9bFh/0K2tVnOIy54THTd4595rie8Rl/8tczBHj3k+THAR8Wv4X/waPnX8275B3x8W+wJ5G+Jj+d35H7Vofb1EV4tmpb/VtkLTh3+W/y2PsccrOYArd+Yj6nfZLv1uOq3Qshy0UYduZhJOAm+Qe3ld+jezU+d/G0+ivDJ+QsyWv5p+TnT5fme56mtu9e04Y4KwIhPKJvWJ6PZgg9vYzW/O/4ZyUd/1/84NIzmb8mXtAYH2IGcEgPCZ+S36BliwLpG47Y+SwXq1sHvPg6Tt2dna4Hr0Xxn3zvY8J3+kqx+cfvb/JOTxNcVOL/NH9L3vfD9G+OZi+t604iC7xWFjM15LgZ/o4/eRedXr78qUOn0aUtx98qJ9WpQ5l3wODmfvch+tV/E7/2T9HrCNMa/8PD+eFCMzxPjnJdcgZreRtbPjsbMF8DpJPD6+HdRj/IX3RhLX7X+qkD1BWpwRO4BmoIRHJH7cd95n4/n2xPeH99rxzmedN8ZP8lSPIQBYWAvBnBgUl7LIn+hPfCadq8OW8bnkzV6xey+x97Cozem/kRh/b1Mj0Z9559vKlCpQBVgzw9YxUgxEgaEAWFAGBAG3h8DKlBVoHZ/YKNF4P0XAcVYMRYGhAFhQBg4GwZUoKpAVYEqDAgDwoAwIAwIA8LAqTCgAlWAfCkg14+l8/dG/lvXUf9ZdnDpm6aD3xmf8Rvls/i1pcfoG+oWnZ7r1EcYEAaEgffEQClQ/Y9o8Dcsf0vge/qjD3/SAvdb/07aVh/gb4CVv2VH/zXaVh6/eRw+2IefvS2jfj9+7/0r/zrB0QK1Z+Oz+BjR9/qhF35M4TcOe339FePzDx30K/yv8K14vmcCV1wV13fGQCpQS8FGv/jLye53JItI//SrweUEDP0onLjvVcFN/nLy+A8Rv0rOmfnk09E2Zkb9z9pmMXhV4XW0QG3p8Cw+RvRb+oH/HIf2X3x4Ng7P0G/5U2/P8BetErowIAwIA78DA7lATf/LQV1Y4MTFkpov8Cy4UQJPSRJ/3sK9HrXEY8VDSkDLGBQTUcKMnrVAFZ28sM7VdeN/g2rx3vI8+6pO+Hv0Nxk9/1g/bMAJGJ9wt5K6xaP4OPjfJFCwbLHRxlTxDf5bt2xzjSPmPeqv+Dv8JB9U/xvHahtjavXP4/+0NeJf9RtGAx3YHn/dsu9ZfIzoR/0PetL/0uX7WveP+Hv8Uy6V/wLf5Xm6/qkZYJNlRrZwv65/R2JRnBQnYUAYeBYDqUBNCT5IKCnh0H+LxgWNL1AxFgr5+1JELHK4gEPy44TVKrrAn9vWWNPBeIL/dMn/XSjbwXyOXvsCOduWE/FWWYf8A19a4daIH+S3fLTVZqMHL6NJ8V1kFt2xOSltLlZH/YWfP8Gn++zjehPgdUe8/fMt/D1ePb4jnv5Zy8fP4mNEP+r3euYi8LHA9OP4vmUbxnj/+fusYz9+zIvXAjxXq4QnDAgDwsDfwcBaoFIxAAAgyawF3kf5QU1KOCiQ0v8DWycff5qUEhwVUf6kpOa3r5CEntAbrT3nAtVO174i8RXd0+msFabmi3029PzjfWn2sf9SPxWLbDOKysQ/OPWEr/a2xWb6zjbSk/m2+tkWjPdjEUv0R21rzIh/2N8o+iO59gxzJMJX8dVBfIzoR/1e5zRfaC76/ui+h5/Qf+5NRSs2TVk79Yv46NnfSWSKtWItDLwfBtYCNUgISCpIvih2DAglKX58zLmYWF/dra9Z16I1JbigCAaoOMklfoE+GOvbFu9H/S/zdN93cuRlRffJF+nUcLU38llEi2ctG6yffY3xzD/7zk4rP+frNM3TdJ0/02vcVR+jy0XGEqdOLCCD2zDGLka+qGR6u271h7zJn2yr58n3iDc/W+W28RnpFfnc8+X7no7P4mNEP+pnPTMGalxwf++6hZ9XxQ+y9/oedGrfL0EppoqpMPB3MfCSb1C5uGyBqVeAgQYFho2NTqIwzrdRQss65WKUi4eczI8laC8X90jQVQGfTpC2y+n5Jyyg6NS6FKif13m6fs6XyeRaMR5/Dwp/bP0RF8ZzTEKfu1Mz+AdtZIf1jfATyQdPboEffraJf6B3iocrwD1fvu/p+Cw+RvSjfuiZbHrBfzEIW4GfV8Wv0nPnBgq0av9uMlPsFXth4L0wkAvUVOzUPyqxZM/fNab7JWkgIbb6I5D0CjCMz3xv8+0WF1YY51sUo1xAsf5IqCggc6J+lAE+/AMkL6t1z/JsDPurRcPPe/6B/n37bvM05e9ErXi8TdN86xRYPXmsl13DL/Af7jn+aVxQ6DGvHN9Hv9uYkb9aMWP+aUzD5h5/79+8ianxz3Ja1z2fbsFH8WuwsRjRj/pfvTHztvb8a/7aEj/41Xgx1vFc7XslH8VT8RQGhIEeBlKBagPW5Li8CnWJvhSl6dXrNF+sGKExSPLr6/264PUJLVKq8DhwetLTH3zXAit/HxoVoinRHjhlgoxi/04bRv7p2We+zHrn4q+MxYYi+AW/Ly6jePCzUrTh1fuljr+N7RWgo/4H/5kc58Nc5Kyv6n0R88CD6B/6HP8K34brnd+g7raPdIOfS9yCAvVBf0ff61/5rr7LOI03C9AH7QNv8x3N/WR7hDGn4yh+mY+d/G9/8wAd1SrRCQPCgDDwXhgoBSoCOyqUMO4rWiRCFJJfIWPEMyfRbYl7xEv97zVZtsRTp3/Pxfwn158t8dWY5+Ir/8l/woAwsBUDDwUqisRyEuhOSrYyPjIuJadvlMc6ridoKk7ZL7ret5jgtPInN1m/NWb5lF7z77fGT3rvWyvkL/lLGOhj4KFA/QmH5VNLe/2o5PQT/pfM/iTZ65+02fmhjdZeXc8yPm+M9Wr/LPGQHq9dE+RP+VMY2I+BUxSoCtz+wMln8pkwIAwIA8KAMCAMvCsGVKD+R+B+V3DLLmFbGBAGhAFhQBj4nRhQgaoCtfzvYJrEv3MSK26KmzAgDAgDwsC7YUAFqgpUFajCgDAgDAgDwoAwIAycCgMqUAXIUwHy3XaAskenGsKAMCAMCAPCwH4MqEBVgaoCVRgQBoQBYUAYEAaEgVNhQAWqAHkqQGqXuX+XKZ/JZ8KAMCAMCAPvhgEVqCpQVaAKA8KAMCAMCAPCgDBwKgyoQBUgTwXId9sByh6daggDwoAwIAwIA/sxoAJVBaoKVGFAGBAGhAFhQBgQBk6FARWoAuSpAKld5v5dpnwmnwkDwoAwIAy8GwZUoKpAVYEqDAgDwoAwIAwIA8LAqTCgAlWAPBUg320HKHt0qiEMCAPCgDAgDOzHgApUFagqUIUBYUAYEAaEAWFAGDgVBv75f//v/51KIe0y9u8y5DP5TBgQBoQBYUAYEAbeCQMqULVj0gZFGBAGhAFhQBgQBoSBU2FABaoAeSpAvtPuT7boNEMYEAaEAWFAGDiGARWoKlBVoAoDwoAwIAwIA8KAMHAqDKhAFSBPBUjtNI/tNOU3+U0YEAaEAWHgnTDwrQXqx8fnfL3d5/vtOn9+fJyuMPq83ub7/Z7/dXT8+LzOt07/TwAk+/Y2Xz9jvxbfL/bdrp+n8/9P+E0ytaD/JQzYGjdd4jViix+epd8i4+iYssa9YG3+uEynzVNH/fMs3ci/KS8if94fc1GPvsq90+Xbc1NPPvR+Zt4863ujhx5nrZ9eYaPn8c9///vf+ePjMk/3+8xFSw7YI8g8gz33Rx1cA38pIAnEhW+ZHMeK4GQz8Y1sg69+Gqyhbrao3qf5Mij+L1Md64jXkWdpUacYAE9b41Pi7BJMeU6xyXHI+Cz9JDtvNPbh9xn9qwVu0QP2w5dFz5Z9Hf238Icc31q87+Q79PPzdO3lE01PfgtPW+YTdBm1EYbYvz39jPeo4BjRFx7kI8gvcaW+vfh7tG+dx4U/xYPxP/Kd9VuMbM0yP1hr9kL/r6Yv+nf807N/i34Yw5jGsyPtCC9HeL4DTcu/OcbrepvvVwzD9hY9+l+5ZoDnnjaSD2x+dc4334zm5Mh/e2z9DWP/+d///jcnMN1u5VQwB8TuV8D9pDEe7AAMdhK4B4BwHyXlnh0ROP34LSDyNN95f9SGZxfkJNftmi9TXqAQD0w+3Pv4GI/b9TJfHe6w+DEeWwn6aHwi/T+vUzqRhr49/bf4vWUf46Ol/xb+zIevU2zdxqW10Toiv6Vb6znrtuXa+z+iGcka4XtEn/odvoEP1qflPx7jr2Efz4ckb9nI7MG/5833phveEAHL3D+6fpbe+Ef+Gdk/0ov7k45UyHPfnusRXvbweqexkX8RP+Rf2GsY9jiL6DHe2tE85LFfcR3Jb9n3avnR3PAyRv7z43/7PRWo1/k6rSdSU1AoJOeUXXC9OwIYU4CXMQxOfs4LMTuwxd8XqEaDRdteaUcAioDGsqLrEU2kR9Jl+XRhuuST6Oj0BDoiQfBJJ/p69Can8o87hYM9rcIN/eDDsUFf5l/HFX29lmMRjYN9LDP5mmzAmOh0p/j9MpUFr2Wn2cByIn38s1axhnHQjfl6/YfYKRjpn1619B/xh65RG9lXfOpO24/Ib+lmz9lnkW5bnkX6e7qWDhg3Kjh69FvkQ07Lf+iP2ngDkT+HsvlQYrUB/xF/PEs2Bmsz+kfts/TGP/LPyP6RXlv7TXZZf2ntAX3Vb37CBoHmLsaO8IRx1qax0zV/3na3k2zkifoAqJa/rsNYf1Y6s6OmNTkt+qQDPq8r+Tv7govKij7wD9vE19m+x9fyredM669b8xA+KPFzG27jk+SRfX7tqewL6I1HJB+yp8vyiWKSUfsfY1r6PfbnNxpFJuldeOzcaBUZO2Ln/X+2+/yKH99ULgtgPhlYF0g48QHM5IiyeGFSG89gEkUAGPEvCzQlUwTDQIhr6Ofvtzq9pRvoW/2Qx4sGj0U/T5jUD1+VxWMFPdOb/DS5CLD+HjpiLMvivlF/khvEzfPge7aFn+Pa24+EzzpyjNNCQ9ha+2xhx6msXa/+gizzC/PF81678o+/zduiv4+Xl8cyvH08tqX/iD/ziK49Xlr8jsjnRGR84f8Wr0i/0bOkf0rucYxa9oBvz+c2pkfPsQO/VnvE5pZs8Frlj/E/0sv8YOskx6lFw8+LLgfpwQt8cG/tyH4ee/Ta5PLByOie8YL5j/xiOnD/SKc0dsFukpvWre35FfJb+cXkmw9ZvySH1lC2F/wwT42e+6P7no2QjXU9F1jTfEFdQXm7x8f6IixE+qZxZF/28WM+gDzoiHvvHzzvyTe74GMet0U/Hg9ZvjWdOCa+f3QPPbCxGo3/Df25QC0fhF/m6TbN02Q/YqonkDfGT9AUAAZM+q71ETBbAmWymP+6QK/JCcGwgOK67DxsN0LFnNe9dd/TDTIiAKEP4N2m/1pgDekDX0Y+gV0+FniOdjQReEEFTa9lefUileMP+zg+7Cvjzb7PPFbssK02Lsd89R/rNrKNx+I627ueWOA52s36u10w29izD3Ksbemf6Dv8mUd0zTbCHtYPNEfkr3P1M72FwQ8IjVckA7L2tsBlwpGb3yP/rDquawjL79Gz75gmum75LxqLZ0YTrVfgtQf/4Nlqzc5nYvIsPWxi/Ub289gj1349MR7s07C/5MT4Dd0IT6wnj004my4lZ0X5JOn3pHyWGc136JFk7cwvlW2pTshrNWJbfPuqAjUddtXrs48ZZLNuvWv2D49jv+B55D+mL/ZSIe71S3wbp7aQs9cG0L1zm37Fn5y9LPhwkg9KDgK9IrFkSQVpFNjIca1xPf4xAHIBzQUqL7xJDukX6eKftXSzcd4fTBv1VQCmxQZ0TMPXpZ9oQt+kYmUt4kBnLcvm57hGjHHv2yJvo/8iX/MEhX1YjE0+J2T0c/xYR45/4pv0+v4CtaW/+W8vdtg+9n/reY8/07euczxywcj+9OOPyC94s0QyXebL8qmQ8eKYellH72HLnvWn6EhJhOX3/JtoB8kFvFr+Q3/UtmSDF8drhP+I/5mewSbWaWQ/jz1yXdYzt8HDiST7F/wZL9H6xP2gabU8FraCJ9aUUMdl/cVYnkvM0+T26K3f/I41F/y6sjv5he3MvKx4tHy8HEggd72qQAU/mruwwXzC16wbX4/8g7GID+6tjfiz//kadBFN4g0Mug220UVzA/z+avtQoLIjzGEMAADaxvigRIFlXriOxiGYLf7hApJ2VcuECE57Ixro0Goj3TA20tH3tRaQSJecZDv606TksZDZa3t2GF1vIiTa4NV5T162ry6WWWfvuzx+LV5wzyes6RoLtNtBZ1y+sEBd/ooFx4/tHelvY3s+H9nHslqx6fFn+t618bYk1eN1RH62b5ovy+tfWxuiH7v1dNvbl2WumOvZZLz9euXl9egzlle8elq+b/mPx/jrSDeWWfy7JGiTkb9HXO33PM96H/lnZP+ztvBaFPHy/rUxCQ9Yf6L8QutzxJOfsX3AGa8pfA06pkE/r09Rfyt/Gk/ze7W+UoE08g90itpMawWqrcf5lDPpZqfE5iOSE9H7Z/APP4/iwzrDP2x/Rb/Ej/vZfzw2lD+I/0g/5m/X0Nf7Jpobnvav3acCNQqKOQIOy2BYF2jc7znBgGMjWeCHCYh78PcAKP0L+BFw0JusJGdZYCB71Ea6MU2rP5LPEwD9PEHSgrFjAUzjN052xI115+tWf5Kx8aSI+dm1p80xqgvwpv3BYp9jvtC7AjX1TdPLvkFd9a8TPn6lPYqf0bewYX2MBbtPz2iDhWfWtmLT48/0veukx93+Osc6l/34I/IRq9ttSVDLK0P+qwsmp8zbgxhjXZM/aH6P/BPF4IFfZ35lfMf4YD4t//EYfw2/NOfHDvx73nvuoQf/gHMP/ZaxkX8gt2X/Fr6jMSl+jfj6+Z3nSf2GkOkz3uv+nnzGHnDKMmE/8hfuS/4bFUhug/1IvxaPLT3ZvtaY6Hm2oy5QEWOzFTZFtNEz+If72Fd4nvT187+xrsAf0AX38C94WtuTD3obxzHdoh/LaMlJsskmTzO6hx5fOX9HOry6f1OBakLLpMXR/6X+Y/VRYKHs6rjOLs6KFBx/2wke8S8LQumvE2zI/0CgezYkH7hE4e1rATjRLotIsZH0g/59+vxJQ6E3XwQLbp58dSKFnmixgOA+6RcUidy/5TotGhQjTBTYxwkIMTWbQ31o15vH5uIn6br04RUd6xbx4v7edYo/6Q99R/obT09rcQJ9pFPE0/hEY0f8ezZxX1mYg4Xc5FbYcvjq2Vf4LpiGba34RM9ZT38NrFT60fyx8T39rL9evxZbiceIPpKB+LK+rfjxmOi6+BD4I9324D/ivfXZqsM617bSbh3X8s8q+zE2W3n3xq2YJJzT+llhzHzv1sOq3+aP5QKKUVc28Uo4C75BrfHp8t+gQDXZPXrrj/DN+WPkn5Z9mS7nG6wht+s1/V31qACM+ISy3fqzBR/eRp6fPf+M5KO/n59tE0DYImyAvrd+pRiWvLbwIXxGfoueIQasazTutzxLP5L6Lcp+tZ5YPHpyWgtsj+Y7+97Bhu/0l2R97/8klZPI1xVAiuf3xlP+Pr+/c3FdH1qg4HtFIWNzmotBYeLnMPFu66sK1OWVq02qLcXdKyf2qydy3iWOk//Zi+xX+0X8fm7BhO/XE6gxPkGj9ufjphj8/hjkvOAK1MYnRkfi7QvgdGJ4ffy7qEd4i2Yb/t51fU1/qF8gyCDIu4/xK6YEBjrCP4P/8muEehFivfxrBu14t0189qGu5TNhQBhgDODAonp9y696D7ymZf6vuq5yW9KvnSuOyKxfodef4B3hJxrNM8OAClQ6QdWk0KQQBoQBYUAYEAaEAWHg5zGgV/wqUNOvyjUZf34yKgaKgTAgDAgDwoAwkDGQfsUvZ2hCCAPCgDAgDAgDwoAwIAycBQMqUHWC+tIT1PVj7fwtr//WddR/lomRvqk6+J3xGb9RPotfW3qMvqFu0em5kqkwIAwIA++JgVKg+h/R4G9Y/pbA9/RHH/6kBu63/p22rT7A3yBLH8wfLG62yjrjOPxgAH72Oo76/fi996/86wRHC9Sejc/iY0Tf64de+DGH3zjs9fVXjM8/tNCv/L/Ct+L5nglccVVc3xkDqUAtBRv94jAnu9+RLCL9068WlyIR/SicuO9VwU3+cvL4DyG/Ss6Z+eTT0TZmRv3P2mYxeFXhdbRAbenwLD5G9Fv6gf8ch9f+ivfZ2IE+zU1ah/BcrRKxMCAMCAN/CwO5QE3/i1NdWODExZKaL/AMJFECT0kSf2LDnSBa4rHiISWgZQyKiShhRs9a4IxOXljn6rrxv0G1eG95nn1VJ/w9+puMnn+sHzbgBIxPuFtJ3eJRfOz/l4r7/j8FUsU3+N+Iss01jth/o/6Kv8NP8kHC6fq/dcA2xtTqn8f/aWvEv+o3jAY6sD3+umXfs/gY0Y/6H/RcsAD/+f7o/hF/j/ip/Bf4Ls/Tx/ixvMgW7tf130pQirfiLQz8XQykAjUl+CChpIRD/y0bTmAMML5AxViAyd+XImKRwwUckh8nzFbRBf7ctsaaDsYT/KdL/u9C2Q7mc/TaF8jZtpyIt8o65B/4kv4rPbbB7If8lo94fO/a6MHLxqX4LvKL7ticlDYXq6P+wo9Ozjx+so/rTYDXF/H2z7fwD+UFcyLijWctHz+LjxH9qB/6oc1F4IoNPO+1LdtA4/3n77fEj3nxWoDnav9uolLsFXth4O9hYC1QqTgAEJBk1gLvo/ygJiUcFEjp/5mviwd/mpQSHCV8f1JS89tXSEJP6I3WnnOBaqdrX5H4iu7pdNYKU/PFPht6/vG+NPvYf6mfikW2GUVl4h+cesJXe9ti8wdhYnA6HdnhbYEefixiif6obY1hX4GO+Yf9jaIf9L7FHInwVXx1EB8j+lG/1zXNF5qLvj+67+En9J/DQis2TVk79Yv46NnfS2iKuWIuDLwPBtYCNUgISCpIvih2DAAlKX58zDnZr6/u1tesa9GaElxQBANMnOQSv0AfjPVti/ej/pd5OvBq28vz98kX6dRwtTfymafj+5YNNoZ9DRrmn31np5Wf83Wa5mm6zp/pNe6qj9HlImOJUycWkMFtGGMXIy76mBbXrf6QN/mTbQWvqEW8fd+QvyumjD7yuefL9z0dn8XHiH7Uz3pmDNS44P7edQs/Q/8unxTw+tGTs9f3PV7qe59kpVgqlsLA38LAS75B5eKyBaBeAQYaFBg2NjqJwjjfRgkt65RfY3LxkJP5sQTt5eIeCZoTcH62XU7PP5lX/W0n+7wUqJ/Xebp+zpfJ5FoxXtMUfZeCYeuPuOA/jkno86DQg0xrIzvS8+AEvqJb9GX53I9r4Af3aNlXeMZtpFeKhyvAmcZfRz7CmMy/fqWen23Dx4h+1A89kk3pdH899Ubfnha2Aj9D/26MH3TozQWMUfu3EpXirXgLA38PA7lATQVC/aMSS/b8I5F0v5y6ISG2+iMgbUk6SNq3W1xYRXztWU6Q9et71h8JFQVkTtSPMsCHf4DUkumfszzrY3/5sdF9zz/Qnws0lpf7b/M05e9ErXi8TdN86xRYPXleP/gF/sM9x99ocvwe/Qp+vf6Rv1oxA29r05iGzT3+3r95E1Pjn+W0rns+5XgZfaRP8WuwsRjRj/pfvTHztkb2sJ+2xA/jjRdjHc/V/r0EpZgr5sLA38VA+a9O1+S4vAJ2ib4UpenV6zRf7LSMxiDJr6/364LXJ7QIdIXHztfPxqunP/iuBVb+PjQqRFOiPXDKBBnF/p02jPzTs8/sz3rn4rCMxYYCJ6blx0v7i69StOHV+6WOf4rBwRPUHD/EhD4VcT7MRc7a74uYXgwe+swO4l/h23C98xvUkf0P8km20WYf5E9QIlyO6Hv9BQ8c/3Td3kxAp6xXEBua+80xzsZR/FYfbDtZZh11/XeTmGKv2AsD74mBf/73v/+VHz5ZkEeF0lcCAUkWheRXymrxzkl0W+Ju8dDz95wsW+Kq07/nYv+T68+W+GrMc/GV/+Q/YUAY2IqBhwIVRWI5CXQnJVsZHxmXktM3ymMd1xM0FafsF13vW0xwWvmTm6zfGrN8Sq/591vjJ733rRXyl/wlDPQx8FCg/oTD8qmlvbpVcvoJ/0tmf5Ls9U/a7PzQRmuvrmcZnzfGerV/lnhIj9euCfKn/CkM7MdA+QZVztvvPPlMPhMGhAFhQBgQBoQBYeD1GEi/4pdjX+9Y+VQ+FQaEAWFAGBAGhAFh4BgG/vn333+rH0nJkcccKb/Jb8KAMCAMCAPCgDAgDLwGAypQlz/xI0C9BlDyo/woDAgDwoAwIAwIA89iQAWqClSdoAsDwoAwIAwIA8KAMHAqDOgbVAHyVIB8dscleu3ahQFhQBgQBoSB348BFagqUFWgCgPCgDAgDAgDwoAwcCoMqEAVIE8FSO16f/+uVzFUDIUBYUAYEAaexYAKVBWoKlCFAWFAGBAGhAFhQBg4FQZUoAqQpwLkszsu0WvXLgwIA8KAMCAM/H4MqEBVgaoCVRgQBoQBYUAYEAaEgVNhQAWqAHkqQGrX+/t3vYqhYigMCAPCgDDwLAZUoKpAVYEqDAgDwoAwIAwIA8LAqTCgAlWAPBUgn91xiV67dmFAGBAGhAFh4PdjQAWqClQVqMKAMCAMCAPCgDAgDJwKA//897//PZVC2vX8/l2PYqgYCgPCgDAgDAgDwsAzGNAJqnZM2qAIA8KAMCAMCAPCgDBwPr2McQAADilJREFUKgyoQBUgTwXIZ3ZbotVuXRgQBoQBYUAYeA8M/PPvv/+qQFGRKgwIA8KAMCAMCAPCgDBwGgx8a4H68fE5X2/3+X67zp8fH6dxAnZbn9fbfL/f87+Ojh+f1/nW6Qe/72yzb2/z9TP2a/H9Yt/t+vkl/k++gQ/v9xlyKt9Ol5fKhm3TJbb9u+IAPY7iu0f/lf77Lv9IznucaiiOiqMwIAx8BwZSgfrxcZknKiZMcE6I7YLniHK9BNzj54ueVERSkVP4UmF0pEhINhPfSCf46qeLoVC3yzTf79N8GRT/l2ktHCM+R59t8c0WH++Vj/j/dEygxxHsmc1b6L/Cf3v9rfFKTsKAMCAMCANfjYFcoKYTwVs5FcyJ0u5fW6AeNSYXqGvh5RM57lGg4P4+KDa9PluS/1cVd16Xo/dHbfiw4vbJU2Efp8iGLfpFdL1niDfi3xv72/u+wn+/3SfSX4lSGBAGhIH3wwAVqNf5OuWC1AqN6XqZr65AteKsvAJ3J3WWOO11bkqgwWtkft4qHFv8o8InP1v0XT4d4ALlSCIf0UR62KRYC6R8Ep19VBf3GBP5D33TpU1vcir/NIrJfIpZy/YTt1VkZ/7rRsDTje5b/mG6yMer/esrel8wY8zqv/uMeKNvuiyfkCT89X3AOq30bf+b3kfxzViFXP8s+QVvADobq8h/4NnDB2xk/9k1fGg89tIzrdEXGQ1sQk+175dIFFPFVBgQBl6NgapA/bxMSxKe5utnTvZIQpYYcW1KpGRGiagk2OWZT8BQvJVge/yjwgfJ0IoGXEM/fw/Zo7alG+ha/ZB3v69FEY9FP77HNH6pH77Ct7kNehuf/E2Fi7+HjhjLsrhv1J/0Ij08bXSfaXjzguvHYpf9Al7wD+Jnz32BGtF5ei64euNBhxbyH+hfhG/w55gk/Yg/dBnp3er3eOjdR/r0xptuLbnQ21rwffYknnnqWklPGBAGhIG/iYFcoJbXu5d5uk3zNNmPmOoC1QMkLCAo4bZO8rYkOpPF/LcWqNXpEBVzXvfWfU83JF8uMsAHfa0CK9bfTutyQTukT98Ir8Vv8o99luFOsaFPsoNigedorRiJ7EB/8r07XUNfr43s9OMjH4/sNx6JrmHvFnqvB9+H9M7n3qd78c30kTzoE/kHfdZG/ZEuHItIHvMZ0Re5Df+zfrr+m4lEcVfchQFh4NUYWAvUpaBD8eKTWk54OBlbWiqCOOH1lGyN6/HnZAve0M8KLVxzgZjkkH6g67Ut3YwmkgFeUV9VYJcNAL3Cpg3AkD4Vo873ndfYLBs6cosY8zO+LrHY6b8oTszXriMfj+wHj0QbvAbfSg8+vg3powJ1w6Ynss/k5SIwnyj3/NSih85Rf4kXfFPadVPDJ6SwF5uULfQmv+V/6KZWCUoYEAaEAWHgVRh4KFCZsSU1K/p8QrMxvgiKEifzwnU0bsQ/Suj5WecEsnPCCF18G+mGMZGOvo8LZPZPqD8VQODdpKexkNlre3YYXa9ATbQ7X/FDl8hO9KGNdBvZD1q0GI9vmXHf8h/oWm1I7/AT6R3x640r88k2LI1it0dv8qL+6ATU65YK1FK43iv5W+iZH/zVsoHH6lrJShgQBoQBYeAIBlKBGiU9Y4ZCJiew9QcVuOdvzVo8vFLROPBDgYF78PeFT+lfkjwSJuhNZpKz8wQw0o31b/VH8qsCdTktxYkVfFvso9NUyGP6Mr5R1IAGLeKGe9+2+nMR8/jdqKdv3fs4ReNaPkyyEU+cGHfix3xG/o/04GcRPetjY1ke0/rr3rgU0+kyX5YfI3raLXJa/L2+zDvPl35ce/TMC9eRHvDjlj91Bj5qlbiEAWFAGBAGIgxsKlCNMCXXcgJzm6+X+o/VRwkLAtfE5V5TU8HV458Ln5qWi9GQf6e4gV6+7dmQfOBO1UAP+ZVO7rV+KarhQ9JvGz3/Qn3xBflv1WX9thXPfGvFCBfL1u8LYk+z5b5VoMK+6hth8wPpX8d4mi/m68VHIf1O//X0D/mTbkbbw0ZI7+wzHmUc6V49BzbQLjoUOjxHSzqGY6g/6Q86tNTfow/7nA3wbyp0D3y/DHq1SlTCgDAgDAgDhoFUoAoMGQy9IgQ+ioo79J2hfQcbvtuPKMB4g/HdOnylvFz8r9+jmixsmF5tcy6E+6e1X2mreCuxCQPCgDDwHhhQgUr/7+6W4u6rEvsrJlQ+hR4XB2cvsl/hiz083r5AtdN8911xVLTu8Zkfu56Aj/HnaXX/HslEcVQchQFh4JUYUIHqC1S8/my8wjTnp2Tc6X9lgLbyykVWfUrGtCjC8Jrdv+LnsX/tGr559WnimfyYTzb5M5k2Vs6kt3RRwhMGhAFh4G9iQAUqFaiaBH9zEijuirswIAwIA8KAMHAuDKhAVYE6a1Kea1IqHoqHMCAMCAPCwF/HgApUFagqUIUBYUAYEAaEAWFAGDgVBlSgCpAvBeT6Y5n8vaP/1nXUf5Yd4zN/duuM3yifxa8tPUbfULfo9FynTMKAMCAMvCcGSoGKH4rgRzS/7Y9t9/RHH34Eg3v8ofxXgRt/AzL58GQ/onqVjT0+o79wMOrv8d7S98q/TnC0QO3Z+Cw+RvSj/oL7+zl/ab/1r1BswYLGvGfCUlwVV2Hg72AgFaglcdEf7s7J7pyJzAM00j/9ankpEtGPApX7PK+j98lfTh7/IfqjfH8TXT4dbWNm1P+srRYDf2J7lOfRArWlw7P4GNGP+nPxd5uvV/uTU+0YHfXXq+i2/Km3V8kSn7+T6BRrxVoY+H0YyAVq+juJddLikyBf4FmgowSekmTjzzRZ4rHiISWgZQyKiVy41H/2JnrWAlh08sI6V9eN/w2qxXvL8+yr4/qbjJ5/rB82RCfcraRu8Sg+Xv471ZV+/a9rt9hoY6r4BkXOqAAd9Vf8gxPoHOf1TyXBNsYU2+c3CCP+Vb9hNNCh56uWfc/iY0Q/7rf/hSzP72iu9GxC3yP+HvFT+S/wXSt+kGFtZAv36/r3JRnFTDETBoSBIxhIBWpK8EFCSQlnupTiCCeQJiglG6LBWCjh70sRsdBwAYrkh4LDeLSKLvDntjXWdDCe4D9d8n8XynYwn6PXPuln23IhtVXWIf/Al+6/VYUdZj/kt3yEsaPW6MHLxqb4LvKL7ticlDYXRaP+ws+f4NN99nG9CfA6I97++Rb+yR4vj/Ad8fTPWj5+Fh8j+lE/6+nHcl/vumUbaLz//H2W248f8+K1AM/VKskJA8KAMPB3MLAWqJScAQAkmbXA+yg/qEkJBwXSx+P//+5Pk1KCo4TvT0pqfvsKSegJvdHacy5Q7XTtKxJf0T2dzlphaol4nw09/3hfmn3sv9RPxSLbjKIy8Q9OPeGrvW2x+YMwMTidjuzwtkAPPxaxRH/Utsawr0DH/MP+RtEPet9ijkT4Kr46iI8R/aifdU1jD+Cgh5/Qfw4Lrdiwbrj2cwHP1f6dxKRYK9bCgDCwFqhUPAIYSCpIvih2rL8kxY+P/D8rlVOz9RUs//eKKekERTBkcZLjggv9vbbF+1F/K6TXU8Uezz19OemjMM0FW+SzHs+WDUbDvgYP5p99Z6eVn/N1muZpus6f6ZV+fWKVZCBOnVhABre5oOPYPr4C56KPaXHd6g95Jz2z/mwreEUt4u37hvxdMWX0kc89X77v6fgsPkb0o/5Kz+BzHu7vXbfwM/Tv8nkJrx89OXt93+OlPiU5YUAYEAZ+JwZe8g0qF5ctIPQKMNCgwLCx0UkUxvk2SmhZp1yMcvGQk3lduHl+e++RoDkB52fb5fT8k3lF3wijgLPCe5ovn9d5un7Ol8meL8/ohBN2wR/+G030+xbjOSahz4NCj3lFdlj/CD+RfOaLa+AH92iH/AO9UzyCTRt4+ran47P4GNGP+lnXjP8aS9y/5Rq2Aj9D/y4FKuOnJ6c3F3p06vudSUhxU9yEAWEgwkAuUNMr+vuMhGMDLdnzj0TS/XLqhoTY6o8EbUk6me9tvi0/6Ij4RM9QjHICZP2RUFFAJl2C15zgc+RXziyv+G/HKWXPP9C/b99tnqb8nagVIbdpmm+dAqsnz/sYfoH/cM/xN5ocv3bx0+tnfHn5dt+KGY9NYxo29/h7/+YirsY/y2ld93y6BR/FrwE2R/Sjfuj8igLVeHlbe/4t4wO7oBe3xouxzn26ViITBoQBYeBvYCAVqBbsNTkur3Fdoi9FaXr1mk/ruABCkm/9itontAhghceOwg58evqD71pg5e9Do0I0Jdr0Den6bSVk9FrIKPbvtGHkn559plfWOxeHZSw2FMsJVtHNYuji27PN+krRhlfvl+tDAdwrQBOP4KQSch/8Z3KcD5OPkvyMUV/EPPAg+oc+x7/Ct/lm5zeou+0j3VYf5E9QIlw+6O/oR/0ZH+4TjY0F4wNv853DTzjG6TiKX/Jh8D07/KP2byQlxVlxFgaEAcNAKVABiFGhhHFf0SLJoZD8ChkjnjmJtk8BR/Tq/9sTS6d/z8X/J9cfzd3nYif/yX/CgDDwSgw8FKgoEstpmzspeaVwzyslp2+Ux/LXEzQVp+wXXe9bcHB6/ZObrN8as1d9fvBb7Zfe++aa/CV/CQPvjYGHAvUnAp5PLe31o4rDn/C/ZL52kqfNzg9ttH5rLPPGePuPCn+rndL7tXNN/pQ/hYH3xcApClQB7H0BptgqtsKAMCAMCAPCgDCwFwMqUP8j0OwFjcYLM8KAMCAMCAPCgDDwlRhQgaoCtfzvYF8JNPHWQiYMCAPCgDAgDAgDWzGgAlUFqgpUYUAYEAaEAWFAGBAGToUBFagC5KkAuXVnpXHahQsDwoAwIAwIA++Lgf8P3OBp74zSgBMAAAAASUVORK5CYII=;" vertex="1" parent="1">
          <mxGeometry x="1495" y="999" width="680" height="194" as="geometry" />
        </mxCell>
      </root>
    </mxGraphModel>
  </diagram>
</mxfile>
